<?xml version="1.0" encoding="UTF-8"?>
<svg width="382px" height="382px" viewBox="0 0 382 382" version="1.1" xmlns="http://www.w3.org/2000/svg" xmlns:xlink="http://www.w3.org/1999/xlink">
    <title>Combined Shape</title>
    <g id="Page-1" stroke="none" stroke-width="1" fill="none" fill-rule="evenodd">
        <g id="2020-copy-7" transform="translate(-214.000000, -2475.000000)" fill="#1F2937">
            <g id="Group-35" transform="translate(90.000000, 2475.000000)">
                <path d="M225.252809,260.747191 C236.298504,260.747191 245.252809,269.701496 245.252809,280.747191 L245.252809,362 C245.252809,373.045695 236.298504,382 225.252809,382 L144,382 C132.954305,382 124,373.045695 124,362 L124,280.747191 C124,269.701496 132.954305,260.747191 144,260.747191 L225.252809,260.747191 Z M356.162921,260.747191 C367.208616,260.747191 376.162921,269.701496 376.162921,280.747191 L376.162921,362 C376.162921,373.045695 367.208616,382 356.162921,382 L274.910112,382 C263.864417,382 254.910112,373.045695 254.910112,362 L254.910112,280.747191 C254.910112,269.701496 263.864417,260.747191 274.910112,260.747191 L356.162921,260.747191 Z M486,260.747191 C497.045695,260.747191 506,269.701496 506,280.747191 L506,362 C506,373.045695 497.045695,382 486,382 L404.747191,382 C393.701496,382 384.747191,373.045695 384.747191,362 L384.747191,280.747191 C384.747191,269.701496 393.701496,260.747191 404.747191,260.747191 L486,260.747191 Z M225.252809,130.910112 C236.298504,130.910112 245.252809,139.864417 245.252809,150.910112 L245.252809,232.162921 C245.252809,243.208616 236.298504,252.162921 225.252809,252.162921 L144,252.162921 C132.954305,252.162921 124,243.208616 124,232.162921 L124,150.910112 C124,139.864417 132.954305,130.910112 144,130.910112 L225.252809,130.910112 Z M356.162921,130.910112 C367.208616,130.910112 376.162921,139.864417 376.162921,150.910112 L376.162921,232.162921 C376.162921,243.208616 367.208616,252.162921 356.162921,252.162921 L274.910112,252.162921 C263.864417,252.162921 254.910112,243.208616 254.910112,232.162921 L254.910112,150.910112 C254.910112,139.864417 263.864417,130.910112 274.910112,130.910112 L356.162921,130.910112 Z M486,130.910112 C497.045695,130.910112 506,139.864417 506,150.910112 L506,232.162921 C506,243.208616 497.045695,252.162921 486,252.162921 L404.747191,252.162921 C393.701496,252.162921 384.747191,243.208616 384.747191,232.162921 L384.747191,150.910112 C384.747191,139.864417 393.701496,130.910112 404.747191,130.910112 L486,130.910112 Z M225.252809,3.63797881e-12 C236.298504,3.63594975e-12 245.252809,8.954305 245.252809,20 L245.252809,101.252809 C245.252809,112.298504 236.298504,121.252809 225.252809,121.252809 L144,121.252809 C132.954305,121.252809 124,112.298504 124,101.252809 L124,20 C124,8.954305 132.954305,3.63290244e-12 144,3.63797881e-12 L225.252809,3.63797881e-12 Z M356.162921,3.63797881e-12 C367.208616,3.63865487e-12 376.162921,8.954305 376.162921,20 L376.162921,101.252809 C376.162921,112.298504 367.208616,121.252809 356.162921,121.252809 L274.910112,121.252809 C263.864417,121.252809 254.910112,112.298504 254.910112,101.252809 L254.910112,20 C254.910112,8.954305 263.864417,3.62934973e-12 274.910112,3.63797881e-12 L356.162921,3.63797881e-12 Z M486,3.63797881e-12 C497.045695,3.63865487e-12 506,8.954305 506,20 L506,101.252809 C506,112.298504 497.045695,121.252809 486,121.252809 L404.747191,121.252809 C393.701496,121.252809 384.747191,112.298504 384.747191,101.252809 L384.747191,20 C384.747191,8.954305 393.701496,3.62934973e-12 404.747191,3.63797881e-12 L486,3.63797881e-12 Z" id="Combined-Shape"></path>
            </g>
        </g>
    </g>
</svg>