<?xml version="1.0" encoding="UTF-8"?>
<svg width="1419px" height="577px" viewBox="0 0 1419 577" version="1.1" xmlns="http://www.w3.org/2000/svg" xmlns:xlink="http://www.w3.org/1999/xlink">
    <title>Dots</title>
    <g id="Page-1" stroke="none" stroke-width="1" fill="none" fill-rule="evenodd">
        <g id="2020-copy-2" transform="translate(-55.000000, -4738.000000)" fill="#000000">
            <g id="Group-18" transform="translate(-18.000000, 4738.000000)">
                <g id="Dots" transform="translate(73.000000, 0.000000)">
                    <circle id="Oval" cx="323" cy="411" r="30"></circle>
                    <circle id="Oval-Copy-8" cx="885" cy="517" r="30"></circle>
                    <circle id="Oval-Copy-6" cx="549" cy="146" r="30"></circle>
                    <circle id="Oval-Copy-11" cx="983" cy="321" r="30"></circle>
                    <circle id="Oval-Copy-4" cx="1243" cy="321" r="30"></circle>
                    <circle id="Oval-Copy" cx="141" cy="331" r="50"></circle>
                    <circle id="Oval-Copy-10" cx="1369" cy="527" r="50"></circle>
                    <circle id="Oval-Copy-3" cx="885" cy="78" r="50"></circle>
                    <circle id="Oval-Copy-2" cx="283" cy="281" r="10"></circle>
                    <circle id="Oval-Copy-14" cx="509" cy="212" r="10"></circle>
                    <circle id="Oval-Copy-12" cx="141" cy="156" r="10"></circle>
                    <circle id="Oval-Copy-13" cx="1031" cy="341" r="10"></circle>
                    <circle id="Oval-Copy-7" cx="733" cy="477" r="10"></circle>
                    <circle id="Oval-Copy-7" cx="1283" cy="227" r="10"></circle>
                    <circle id="Oval-Copy-7" cx="993" cy="47" r="10"></circle>
                    <circle id="Oval-Copy-15" cx="835" cy="10" r="10"></circle>
                    <circle id="Oval-Copy-9" cx="10" cy="527" r="10"></circle>
                    <circle id="Oval-Copy-5" cx="855" cy="411" r="10"></circle>
                </g>
            </g>
        </g>
    </g>
</svg>