<?xml version="1.0" encoding="utf-8"?>
<!-- Generator: Adobe Illustrator 25.0.1, SVG Export Plug-In . SVG Version: 6.00 Build 0)  -->
<svg version="1.1" id="Layer_1" xmlns="http://www.w3.org/2000/svg" xmlns:xlink="http://www.w3.org/1999/xlink" x="0px" y="0px"
	 viewBox="0 0 1419 577" style="enable-background:new 0 0 1419 577;" xml:space="preserve">
<style type="text/css">
	.st0{fill-rule:evenodd;clip-rule:evenodd;fill:#191919;}
</style>
<g id="Page-1">
	<g id="_x32_020-copy-2" transform="translate(-55.000000, -4738.000000)">
		<g id="Group-18" transform="translate(-18.000000, 4738.000000)">
			<g id="Dots" transform="translate(73.000000, 0.000000)">
				<circle id="Oval" class="st0" cx="323" cy="411" r="30"/>
				<circle id="Oval-Copy-8" class="st0" cx="885" cy="517" r="30"/>
				<circle id="Oval-Copy-6" class="st0" cx="549" cy="146" r="30"/>
				<circle id="Oval-Copy-11" class="st0" cx="983" cy="321" r="30"/>
				<circle id="Oval-Copy-4" class="st0" cx="1243" cy="321" r="30"/>
				<circle id="Oval-Copy" class="st0" cx="141" cy="331" r="50"/>
				<circle id="Oval-Copy-10" class="st0" cx="1369" cy="527" r="50"/>
				<circle id="Oval-Copy-3" class="st0" cx="885" cy="78" r="50"/>
				<circle id="Oval-Copy-2" class="st0" cx="283" cy="281" r="10"/>
				<circle id="Oval-Copy-14" class="st0" cx="509" cy="212" r="10"/>
				<circle id="Oval-Copy-12" class="st0" cx="141" cy="156" r="10"/>
				<circle id="Oval-Copy-13" class="st0" cx="1031" cy="341" r="10"/>
				<circle id="Oval-Copy-7" class="st0" cx="733" cy="477" r="10"/>
				<circle id="Oval-Copy-7_1_" class="st0" cx="1283" cy="227" r="10"/>
				<circle id="Oval-Copy-7_2_" class="st0" cx="993" cy="47" r="10"/>
				<circle id="Oval-Copy-15" class="st0" cx="835" cy="10" r="10"/>
				<circle id="Oval-Copy-9" class="st0" cx="10" cy="527" r="10"/>
				<circle id="Oval-Copy-5" class="st0" cx="855" cy="411" r="10"/>
			</g>
		</g>
	</g>
</g>
</svg>
