<?xml version="1.0" encoding="UTF-8"?>
<svg width="172px" height="181px" viewBox="0 0 172 181" version="1.1" xmlns="http://www.w3.org/2000/svg" xmlns:xlink="http://www.w3.org/1999/xlink">
    <title>Group 407</title>
    <defs>
        <polygon id="path-1" points="0.297666667 0.430038889 3.91933333 0.430038889 3.91933333 21.94665 0.297666667 21.94665"></polygon>
        <polygon id="path-3" points="0.0825 0.30642 0.959666667 0.30642 0.959666667 5.45622 0.0825 5.45622"></polygon>
    </defs>
    <g id="Page-1" stroke="none" stroke-width="1" fill="none" fill-rule="evenodd">
        <g id="2020-copy-2" transform="translate(-576.000000, -4926.000000)">
            <g id="Group-18" transform="translate(-18.000000, 4738.000000)">
                <g id="Group-407" transform="translate(594.000000, 188.000000)">
                    <g id="Group-3" transform="translate(168.000000, 100.000000)">
                        <mask id="mask-2" fill="white">
                            <use xlink:href="#path-1"></use>
                        </mask>
                        <g id="Clip-2"></g>
                        <path d="M3.91966667,0.668372222 L3.91966667,18.8012611 C3.21366667,19.8499278 2.50766667,20.8985944 1.80166667,21.94665 C1.30033333,20.3412611 0.799,18.7364833 0.297666667,17.1310944 C0.378333333,13.8109278 0.459,10.49015 0.539,7.17059444 C1.081,4.92353889 1.623,2.67709444 2.165,0.430038889 C2.73766667,0.587094444 3.32233333,0.665927778 3.91966667,0.668372222" id="Fill-1" fill="#862838" mask="url(#mask-2)"></path>
                    </g>
                    <g id="Group-6" transform="translate(171.000000, 95.000000)">
                        <mask id="mask-4" fill="white">
                            <use xlink:href="#path-3"></use>
                        </mask>
                        <g id="Clip-5"></g>
                        <path d="M0.959833333,5.45622 C0.661166667,5.45382 0.368833333,5.37642 0.0825,5.22222 C0.105833333,3.58362 0.1295,1.94502 0.152833333,0.30642 C0.413166667,0.48162 0.682166667,0.57942 0.959833333,0.60042 L0.959833333,5.45622 Z" id="Fill-4" fill="#9A595C" mask="url(#mask-4)"></path>
                    </g>
                    <path d="M89.2102804,175 C85.0318431,173.920376 80.889103,172.126828 76.6674535,171.919016 C69.4992292,171.565174 65.8424704,167.840785 64,161.495344 C66.4731188,159.39351 68.6374892,156.627676 71.4782253,155.312158 C80.6937084,151.044212 86.5054437,143.243463 92.9052414,136 L94.5917718,146.047989 L94.6888429,149.428521 C93.5897485,152.179377 91.1604683,155.256617 91.739763,157.593721 C92.4067348,160.284667 95.7315734,162.321599 97.9015801,164.64123 C99.0094421,165.209748 100.11793,165.778267 101.226419,166.346161 C101.817612,166.912184 102.40818,167.478206 103,168.044228 L102.970566,168.019266 L102.818383,172.93561 C101.714905,173.506001 100.610801,174.076391 99.5073225,174.646158 C96.0753926,174.764105 92.6428365,174.882677 89.2102804,175" id="Fill-7" fill="#BD2B4C"></path>
                    <path d="M119.292983,27.0730131 C120.375267,27.1239963 121.456953,27.1749796 122.539236,27.2253334 C125.478483,29.5265034 128.418328,31.8270439 131.358173,34.1275845 C133.571717,44.3091287 135.785859,54.4906729 138,64.6722171 C135.966239,70.4635369 132.35385,76.2366034 132.29651,82.0493235 C132.223641,89.3707702 128.269604,89.5696678 123.917774,89.9756456 C121.67317,90.1852434 119.309707,88.9887105 117,88.4278948 L120.249836,78.2778217 C122.41739,77.0548531 125.385904,76.398365 126.597799,74.497508 C129.655906,69.7013058 130.927529,64.9051036 126.214341,59.5002495 C120.928354,53.4376485 120.902073,45.0115646 126.057851,42.3409234 C128.878239,40.8806624 129.415797,41.5346327 127.269149,38.9174925 C124.193123,35.1655028 121.419921,31.1371965 118.517108,27.2265922 L118.878466,27 L119.292983,27.0730131 Z" id="Fill-9" fill="#E4507B"></path>
                    <path d="M138.67473,63.8342106 C136.322618,53.8894737 133.970506,43.9447369 131.619028,34 C133.164049,35.1484155 134.634199,36.427165 136.316273,37.3370445 C136.665886,37.5263978 137.802285,36.3484727 138.575748,35.8000859 C140.989407,37.3450367 143.403701,38.8899875 145.817994,40.435553 L148.340154,47.3543258 C148.182797,48.3508898 147.739277,49.3972512 147.913766,50.3354107 C149.302065,57.8037999 151.827397,65.2309986 151.991099,72.7116834 C152.155436,80.2310996 150.003828,87.7972394 148.866794,95.3424765 C145.885887,97.5341794 142.749525,99.5592761 139.990061,101.988285 C138.622701,103.192031 137.950125,105.137206 136.963469,106.746709 C134.264282,106.830935 131.565095,106.91516 128.865908,107 C125.243516,105.80855 121.621758,104.617099 118,103.425649 C120.681421,102.936281 123.372359,102.491793 126.041724,101.948325 C142.625162,98.5737782 148.861083,99.1633555 148.766542,77.5856865 C148.737355,70.8027808 148.159955,63.9079846 146.752621,57.2800044 C145.595283,51.8299492 142.838356,46.6989667 140.790807,41.4259691 C140.126479,41.6460616 139.462786,41.8655393 138.798459,42.0856318 C138.729298,49.3480685 147.72976,56.1912229 140.290816,63.7942497 C139.752121,63.8077749 139.213426,63.8206854 138.67473,63.8342106" id="Fill-11" fill="#C4314F"></path>
                    <path d="M82.1141343,14.676393 C76.9715725,12.3180052 71.8813332,9.84087591 66.6708767,7.63593859 C61.7675038,5.5613124 56.7370618,3.77471034 52,1.12160018 C66.3949374,-1.75437854 79.7097873,1.06070713 92.2179975,7.73214961 C93.8892055,8.62423279 94.6105096,11.2219303 95.7721953,13.0298449 L99,19.7993252 C95.4943874,20.5330864 91.9887748,21.2662388 88.4825393,22 C87.4996223,20.7553461 86.5167053,19.5113011 85.5337884,18.2666471 C84.3939037,17.0700987 83.254019,15.8729414 82.1141343,14.676393" id="Fill-13" fill="#A2B455"></path>
                    <path d="M92.2701328,135.919952 C85.8413172,143.329535 80.0044306,151.309185 70.7474394,155.675011 C67.8947311,157.020699 65.7207598,159.849963 63.2366705,162 L51.6283179,156.520853 C51.0741313,155.94185 50.5193157,155.363485 49.9645001,154.78512 L49.9663872,154.804271 C49.3109248,151.989051 48.6554624,149.173192 48,146.357972 C50.6520437,146.799725 53.4053633,146.917824 55.9385179,147.736855 C71.2450121,152.688707 85.012239,144.2373 90.5975084,129.081712 C91.623477,129.054262 92.6494455,129.02745 93.674785,129 C93.7836093,130.727435 93.8918047,132.454231 94,134.181665 C93.4231679,134.761307 92.8463358,135.340949 92.2701328,135.919952" id="Fill-15" fill="#CA3F62"></path>
                    <path d="M19.2559174,86.8549232 C18.1706116,80.4125676 17.0853058,73.9696111 16,67.5272556 C16.0857824,66.9419693 16.1715647,66.3572839 16.2567117,65.7725985 C20.2484512,61.9099494 22.832089,56.3112714 29.706116,56 C30.3466243,56.9536441 31.4446386,57.8700318 31.5348689,58.8687441 C31.7426529,61.1419864 31.4567117,63.4560907 31.3709293,65.7533694 C30.8524226,66.8139754 30.3332804,67.8751824 29.8141382,68.9363894 C28.2509929,71.3808911 29.2861001,72.4348871 32,72.5905228 C31.433201,73.036398 30.8670373,73.4822732 30.3015091,73.9281483 C24.3291501,75.9748476 26.5918983,81.6348184 24.6932486,85.4698257 C23.8297061,87.2124646 23.4058777,89.1503992 22.7837967,91 C21.6076251,89.618508 20.432089,88.2364151 19.2559174,86.8549232" id="Fill-17" fill="#E66487"></path>
                    <path d="M147.948306,97.6004526 C149.033726,89.9589425 151.087666,82.2956404 150.930789,74.6809033 C150.774517,67.1047691 148.363818,59.5828035 147.037933,52.0191219 C146.871971,51.0689919 147.295357,50.0086569 147.445572,49 C150.782997,52.8982722 154.119816,56.7959218 157.457847,60.694194 C157.628655,64.6385407 157.800675,68.5828873 157.971484,72.5266113 C157.903039,74.6908653 157.833383,76.8551193 157.764939,79.0187507 C158.843091,82.9350791 159.921848,86.8507849 161,90.7664907 C157.093819,90.7851695 154.409948,92.0378965 154.397228,96.7823198 C154.3942,98.1894584 153.325134,99.5941066 152.74487,101 C151.145813,99.8668175 149.547362,98.7336351 147.948306,97.6004526" id="Fill-19" fill="#AF3742"></path>
                    <path d="M20,86.3616751 C21.15399,87.7896451 22.3073566,89.2182363 23.4613466,90.6462063 C24.0716958,88.7343787 24.4875312,86.7312454 25.334788,84.9299783 C27.1976309,80.9659485 24.9775561,75.1155572 30.8372818,73 C30.644015,75.075805 30.451995,77.1516101 30.2593516,79.2274151 C29.7225686,84.9436431 29.1851621,90.6598711 28.6490025,96.376099 C29.2001247,99.717139 29.7512469,103.0588 30.3017456,106.39984 L30.3322943,106.45512 L31.9906484,114.798092 L32,114.814863 C31.9133416,115.876368 31.8273067,116.937874 31.7406484,118 C31.0648379,117.611175 30.0710723,117.38819 29.765586,116.806816 C27.6670823,112.813593 25.7119701,108.744593 23.7113466,104.700438 C23.1945137,103.640174 22.6783042,102.57929 22.1614713,101.519027 C21.4413965,96.4667835 20.7206983,91.4139188 20,86.3616751" id="Fill-21" fill="#DE4B77"></path>
                    <path d="M40.5849572,8 C42.7235149,9.64952041 44.8614423,11.2996654 47,12.9491858 C44.19334,14.1977247 41.4528599,16.2694624 38.5648931,16.495561 C34.5833815,16.8072273 32.92258,18.1975463 33.0952781,22 L29.4616839,18.2993531 L24.9318242,13.3776489 C24.2876727,12.3058666 23.6435212,11.2334597 23,10.1610529 L23.0958034,8.15427169 C27.6414202,8.18237787 32.1864068,8.21173321 36.7320237,8.24046398 C38.0159147,8.15989293 39.3004359,8.07994646 40.5849572,8" id="Fill-23" fill="#B2C15B"></path>
                    <path d="M30.1032039,54.7654531 C22.8885987,55.0864446 20.1769528,60.8593338 15.9874399,64.8426026 C15.6933337,64.1578621 15.3978937,63.4731216 15.1031206,62.7883811 C14.6202795,63.5251743 14.1381054,64.2625871 13.6559313,65 C13.1037319,63.3287374 12.5521994,61.6580945 12,59.9868319 C12.6402312,58.3248644 13.2797955,56.6635167 13.9200267,55.0009295 C18.6604051,52.7099923 23.4007836,50.419055 28.1411621,48.1281177 C28.2685414,47.0852053 28.3965877,46.0422928 28.5246339,45 C30.8974908,46.0503486 33.2710145,47.1006971 35.6445383,48.1510457 C35.7625809,48.7273431 35.8812905,49.3042603 36,49.8811774 L30.1032039,54.7654531 Z" id="Fill-25" fill="#CD8F71"></path>
                    <path d="M35.2098111,46 C32.8723856,44.9788473 30.5356169,43.9576946 28.1981914,42.9365419 L27.646509,42.5395274 C27.2018794,42.0611821 26.7572497,41.5828369 26.3119632,41.1044916 L26,40.7514559 L28.1817723,36.0583707 C28.4050722,35.9445077 28.8332828,35.7619653 28.8194908,35.7270232 C28.6750025,35.3631435 28.4602405,35.0233617 28.2645246,34.6769529 L29.7304234,28.0060245 C30.965141,28.0277127 32.1998585,28.0494009 33.4352329,28.0710891 L33.3662726,28 C33.9146711,28.5536515 34.4624129,29.1079055 35.0101546,29.661557 C35.6288269,29.7561416 36.2468425,29.8501238 36.8655148,29.944106 C36.9009801,30.9544146 36.9371022,31.9647232 36.9732242,32.9744293 C37.6490351,37.2451971 38.3241891,41.5165674 39,45.7867327 C37.7370415,45.8578218 36.4734263,45.9289109 35.2098111,46" id="Fill-27" fill="#CE4668"></path>
                    <path d="M35.6900685,31 C35.0713615,30.8997179 34.451997,30.7994357 33.83329,30.6991536 C33.2849355,30.1077462 32.736581,29.5163387 32.1875689,28.9255741 L32.2559489,29.0014285 C32.2467439,28.344452 32.2375389,27.6868326 32.2283339,27.0298561 C32.1566664,25.4581265 32.084999,23.8870397 32.0126741,22.3153102 C31.8325192,18.4017357 33.5650303,16.9701439 37.7184543,16.6493697 C40.7311168,16.4173065 43.5899245,14.2850255 46.5177695,13 C47.0957116,13.2333488 47.6736536,13.4666976 48.2515956,13.6994036 C49.3535647,14.7549373 50.4561913,15.8091854 51.5581604,16.8640763 L51.6508678,16.9650012 C51.7672452,18.0063926 51.8836226,19.047784 52,20.0898182 C49.4968996,20.4581622 46.9977441,21.0919967 44.4900412,21.1292811 C41.117069,21.1794222 37.8762542,20.9705011 37.8473242,25.5944073 C37.1286773,27.3962716 36.4093729,29.1981358 35.6900685,31" id="Fill-29" fill="#D3A674"></path>
                    <path d="M22.5454642,105 C24.54926,109.127308 26.5074725,113.279971 28.6093038,117.354666 C28.9152745,117.948628 29.9106159,118.175563 30.587498,118.572383 C30.6742937,117.488418 30.7604651,116.405087 30.8472608,115.321756 C31.946882,119.432582 33.0927111,123.531999 33.9993834,127.68593 C34.0412202,127.878001 31.9437599,128.5512 30.841641,129 L30.8247814,128.994295 C30.3371016,127.44188 29.8494217,125.890098 29.3617419,124.33895 C28.6779911,124.746547 27.9948647,125.155411 27.3111138,125.563641 C25.2080337,119.31024 23.104329,113.057473 21,106.804073 C21.5157792,106.202504 22.0303095,105.600935 22.5454642,105" id="Fill-31" fill="#D2446B"></path>
                    <path d="M145,40 C142.534735,38.4240879 140.070117,36.8488027 137.604852,35.2735175 L137.4973,35.1099085 C136.966669,34.6140666 136.434742,34.1175979 135.904111,33.6211292 L135.704557,33.4305654 C135.186884,32.9315893 134.668562,32.4319863 134.149593,31.9330102 L133.955223,31.7474612 C133.434958,31.2622759 132.914693,30.7764637 132.394428,30.2912784 L127,25.1272515 C129.407602,25.6268544 131.814556,26.1264574 134.222806,26.6260604 C136.42308,26.0838313 138.623353,25.5422291 140.824275,25 C142.215967,29.999791 143.608308,34.9995821 145,40" id="Fill-33" fill="#9D5141"></path>
                    <path d="M48.9563679,156 C43.65625,153.725488 38.3555425,151.451594 33.0554245,149.176463 C33.5713443,147.389877 34.5625,145.582882 34.4923349,143.822269 C34.3873821,141.197118 33.5341981,138.60598 33,136 C33.5064858,136.042052 34.0135613,136.079775 34.5212264,136.115643 C39.3472877,142.191522 44.1739387,148.266782 49,154.342661 L48.9982311,154.324109 C48.9846698,154.882533 48.9705189,155.441576 48.9563679,156" id="Fill-35" fill="#9E2138"></path>
                    <path d="M37,8 C32.4116057,7.97173579 27.8238475,7.94347158 23.2354532,7.91520737 C19.8240596,5.27680492 16.412666,2.63840246 13,0 C20.9565252,2.16774194 28.9124142,4.33548387 36.8689394,6.50322581 C36.9052037,7.00276498 36.9484665,7.50168971 37,8" id="Fill-37" fill="#A4BD46"></path>
                    <path d="M129.881171,8 C130.712911,9.70432459 131.544652,11.4086492 132.376973,13.1129738 C132.58796,14.8002915 132.90008,16.4821429 132.980871,18.1755345 C133.056431,19.7772109 132.887875,21.3916424 132.826845,23 C130.781496,22.3525267 128.736148,21.7044461 126.690799,21.0569728 C126.668712,20.585034 126.618145,20.1161322 126.539679,19.6502672 C126.025871,16.912172 125.512645,14.1740768 125,11.4359815 C125.041267,10.8541059 125.083116,10.2728377 125.124383,9.6909621 C125.946243,10.9118076 126.768102,12.1332604 127.58938,13.3547133 C127.981711,11.912172 128.317081,10.4483722 128.802408,9.04105928 C128.948878,8.61406706 129.509765,8.3425656 129.881171,8" id="Fill-39" fill="#9D9D45"></path>
                    <path d="M88.3411939,174.376225 C91.6627995,174.25148 94.9844052,174.125408 98.3054048,174 C101.204007,175.965396 104.102004,177.930129 107,179.895525 C105.77826,180.225303 104.557126,180.555744 103.335386,180.885522 C98.9871794,174.576614 94.6759401,179.155018 90.3550044,180.938605 C81.9634201,181.59418 88.2684713,176.837947 88.3411939,174.376225" id="Fill-41" fill="#706436"></path>
                    <path d="M32.4198765,135.679379 C32.9841615,138.31387 33.886021,140.933356 33.9962621,143.586602 C34.070379,145.367103 33.0240227,147.193867 32.4790455,149 C30.6529046,148.137883 28.8261409,147.27514 27,146.412397 C32.6478327,141.90738 30.6093064,137.119159 27.5157042,132.291551 C28.0912001,131.218749 28.6666961,130.146572 29.2421921,129.074396 C29.7342287,129.032509 30.2268881,129.008127 30.7201704,129 L30.7376096,129.006252 L32.4746856,133.997656 C32.4503952,134.557813 32.4323331,135.118596 32.4198765,135.679379" id="Fill-43" fill="#A92A45"></path>
                    <path d="M161.924051,60 C162.855696,60.6691275 163.786076,61.3382549 164.717722,62.0067541 C163.008861,68.5089138 161.828481,74.9507579 166.860759,80.6901751 L167,84 C164.666456,81.7337627 162.332911,79.4675253 160,77.2019163 C160.031013,75.5206157 160.062025,73.8393152 160.093038,72.1580146 C160.703165,68.1055525 161.313924,64.0524621 161.924051,60" id="Fill-45" fill="#8A983B"></path>
                    <path d="M88,22.442692 C91.6747617,21.6867999 95.3495234,20.9309078 99.0236323,20.1750157 C100.803891,20.2258267 102.584802,20.2766377 104.365061,20.3268214 C105.54276,20.836186 106.721112,21.3455507 107.898159,21.8549153 C108.543152,21.2364011 109.186839,20.6185142 109.831179,20 C110.888105,20.520656 111.944379,21.0413119 113,21.5619679 C112.573051,22.2664217 112.144797,22.9702482 111.717848,23.674702 C108.048962,23.7204947 104.380729,23.7669146 100.711842,23.8127072 C100.148453,23.6922663 99.5778822,23.6376915 99.0014362,23.6489829 C95.9207468,24.3948382 91.296775,21.3838158 90.2104713,26.9855722 L90.196762,26.9949816 C89.7920094,27 89.3872568,27.0012546 88.9825042,26.9987454 C88.6547852,25.4800609 88.327719,23.9613765 88,22.442692" id="Fill-47" fill="#D49973"></path>
                    <path d="M127.821291,25.7385504 L132.998951,30.6943215 C133.498309,31.1599402 133.99829,31.6261605 134.497027,32.0917792 L134.683587,32.2698452 C135.181702,32.7486985 135.679195,33.2281535 136.176688,33.7070068 L136.367601,33.8898855 C136.877531,34.3663325 137.387462,34.8427795 137.89677,35.318625 L138,35.4756359 C137.241945,36.0122404 136.128182,37.1648573 135.786156,36.9801739 C134.136966,36.089242 132.696724,34.8379669 131.181857,33.7142257 C128.121031,31.5154707 125.060826,29.3167158 122,27.1173593 C122.501846,26.07844 123.004314,25.0389192 123.506782,24 C123.907886,24.1136976 124.317074,24.1527999 124.733725,24.1167055 C125.808932,24.64188 126.882895,25.1670546 127.958102,25.6922292 L127.821291,25.7385504 Z" id="Fill-49" fill="#C62E59"></path>
                    <path d="M133.44566,23.9056312 C133.505542,22.2942471 133.673096,20.6767776 133.598244,19.0720873 C133.518209,17.3755091 133.209011,15.6904929 133,14 C135.665899,17.806956 138.332949,21.6139119 141,25.4214764 C139.044624,25.9478538 137.088671,26.4742311 135.133871,27 C134.57075,25.9685437 134.008781,24.9370875 133.44566,23.9056312" id="Fill-51" fill="#948941"></path>
                    <path d="M28.9098842,133 C32.0498025,137.786293 34.1188488,142.533537 28.3864591,147 C27.2580608,144.614291 26.1296626,142.229203 25,139.843494 C26.3035055,137.561916 27.6063787,135.281578 28.9098842,133" id="Fill-53" fill="#B44154"></path>
                    <path d="M11.4249081,31 C14.9497371,34.5463701 18.474566,38.0933697 22,41.6403693 C21.4845255,42.0935795 20.9696561,42.5467898 20.4547866,43 C19.3911668,42.4190097 18.3275469,41.8373898 17.263927,41.2563995 C14.5098897,37.8793538 11.7546423,34.5016786 9,31.1246328 C9.80830269,31.0830885 10.6166054,31.0415443 11.4249081,31" id="Fill-55" fill="#949C50"></path>
                    <path d="M167.818047,82 C162.499593,76.4705249 163.747098,70.2643172 165.553139,64 C166.702315,67.8551972 167.850823,71.7103945 169,75.5655917 L167.818047,82 Z" id="Fill-57" fill="#747F39"></path>
                    <path d="M12.2634658,0 C15.5091789,2.93451789 18.7548921,5.86903579 22,8.80355368 L21.9080089,11 C18.6701634,9.11996769 15.4323179,7.23993539 12.1944725,5.35990308 C11.0500303,4.17898857 9.90558806,2.99807406 8.76054065,1.81715954 C8.17349203,1.62649105 7.58644341,1.43582256 7,1.24447068 C8.7538834,0.829647117 10.5089772,0.414823559 12.2634658,0" id="Fill-59" fill="#A4B35D"></path>
                    <path d="M162,59.2141552 C161.367246,63.4758832 160.733837,67.738272 160.101083,72 C159.585822,71.4509309 159.071218,70.901201 158.556613,70.3521318 C158.371513,66.1663881 158.1851,61.9806444 158,57.7949007 C159.117821,56.8632671 160.235642,55.9316336 161.353462,55 C161.569413,56.4047184 161.784706,57.8094368 162,59.2141552" id="Fill-61" fill="#95973B"></path>
                    <path d="M130,7.78200692 C129.577021,8.1158259 128.938251,8.38039519 128.771442,8.79648516 C128.218723,10.1678656 127.836785,11.5942907 127.389976,13 C126.454657,11.8097341 125.518676,10.6194682 124.582695,9.42979421 C124.055792,6.82671645 123.527565,4.22363868 123,1.62056092 C123.609645,1.08017665 124.219291,0.540384265 124.828936,0 C126.552624,2.59360772 128.276312,5.18780732 130,7.78200692" id="Fill-63" fill="#A8A956"></path>
                    <path d="M27.2114133,133.040656 C25.8809423,135.360857 24.5511165,137.679798 23.2206454,140 C19.8105875,134.380082 24.3027017,131.416956 27.4443425,128 L29,129.797038 C28.4038044,130.878033 27.8076089,131.959029 27.2114133,133.040656" id="Fill-65" fill="#C35A66"></path>
                    <path d="M5.43848757,38 C3.53662357,33.7798132 -1.73340963,30.9221235 0.573797682,25 C1.20775235,25.5716564 1.84170701,26.1427204 2.47623178,26.7137845 C2.98020293,27.2119845 3.48417409,27.7089998 3.98871534,28.2071998 L4.00353802,28.2012759 L7,36.2571884 C6.47949586,36.8383231 5.95899171,37.4188653 5.43848757,38" id="Fill-67" fill="#A6B550"></path>
                    <path d="M82.5188904,15 C83.6792602,16.3143813 84.8396301,17.6294314 86,18.9438127 C84.2492999,18.9625418 82.4992338,18.9812709 80.7491678,19 C78.4994452,18.4053512 76.2497226,17.8100334 74,17.2153846 C74.038679,16.6535117 74.0640423,16.0909699 74.0767239,15.5277592 C76.8907794,15.3518395 79.7048349,15.1759197 82.5188904,15" id="Fill-69" fill="#A62D3D"></path>
                    <path d="M55.0241644,15 C60.0091243,15.2068155 64.9940842,15.4129595 69.9784091,15.6164177 C69.9542781,16.1233843 69.9612634,16.6316938 70,17.1393319 C66.6191176,17.1876784 63.2376003,17.2366963 59.8560829,17.2843713 C58.0856283,17.8564714 56.3145388,18.4278999 54.5440842,19 C53.3927807,18.4399866 52.2414773,17.8793017 51.0901738,17.3186168 L51,17.2131946 C52.3411765,16.4759107 53.682988,15.7379553 55.0241644,15" id="Fill-71" fill="#BB3B5D"></path>
                    <path d="M105,21 C103.367078,20.9505192 101.734755,20.9016494 100.101833,20.8521686 L97,14.0610874 C98.5820426,14.0403177 100.164684,14.0201588 101.747325,14 L101.412121,14.6169823 C101.2104,14.7452657 101.008679,14.8735492 100.806958,15.0024435 C101.102656,15.3408674 101.397755,15.6792914 101.693453,16.0177153 L103.37486,17.7269395 C103.836364,18.197923 104.297868,18.6682957 104.75997,19.1392792 C104.839581,19.7593158 104.91979,20.3799633 105,21" id="Fill-73" fill="#CBC87A"></path>
                    <path d="M91,180.38558 C95.3274663,178.544376 99.6452215,173.81807 104,180.330782 C103.461039,180.549973 102.922685,180.769164 102.383118,180.988355 C99.1020122,180.992465 95.8202997,180.996575 92.5391942,181 C92.0281526,180.789714 91.5152902,180.584222 91,180.38558" id="Fill-75" fill="#5C431D"></path>
                    <path d="M21,42.4682131 C21.5421818,41.9790352 22.0830909,41.4898573 22.6252727,41 C23.7064545,41.3689217 24.7876364,41.7378433 25.8694545,42.1060856 L26.1723636,42.5042221 C26.6038182,43.0436766 27.034,43.5838105 27.4654545,44.1232651 L28,44.5703193 C27.8784545,45.7130933 27.7556364,46.8565466 27.6340909,48 C25.4329091,47.3674658 23.2310909,46.7349316 21.0299091,46.1030768 L21,42.4682131 Z" id="Fill-77" fill="#A3A257"></path>
                    <path d="M171,91.0695763 C170.857284,91.7132721 170.713908,92.3563042 170.571853,93 C169.411629,92.9847371 168.250743,92.9701378 167.089858,92.9548749 C167.060126,91.2693211 167.029732,89.5844308 167,87.898877 C167.618434,86.6738642 168.236868,85.4488515 168.855963,84.2238387 C168.97225,82.8156713 169.087876,81.4081674 169.203502,80 C169.802775,82.5183767 170.401388,85.0367534 171,87.5557938 L171,91.0695763 Z" id="Fill-79" fill="#816F3E"></path>
                    <path d="M103.67859,19.597956 C103.596353,19.013531 103.514115,18.4285303 103.432492,17.8441054 C102.958706,17.4001727 102.485534,16.9568159 102.012362,16.5128833 L100.288445,14.9018281 C100.290286,14.442925 100.193319,14.0030229 100,13.581546 L100.343679,13 C102.541382,14.5983878 104.739698,16.1967756 106.938629,17.7957392 C106.958881,18.8638261 106.979748,19.9319131 107,21 C105.892863,20.5330358 104.785727,20.0654959 103.67859,19.597956" id="Fill-81" fill="#B7A170"></path>
                    <path d="M125.03041,23.9861626 C124.472193,24.0242477 123.923974,23.9836653 123.385753,23.8650398 C123.257446,19.9104428 123.12914,15.9552214 123,12 C123.598209,12.0274712 124.195584,12.0611857 124.79296,12.1005194 C125.52864,14.9150637 126.263487,17.729608 127,20.5441523 C126.34347,21.6910729 125.68694,22.8386178 125.03041,23.9861626" id="Fill-83" fill="#908151"></path>
                    <path d="M10.5598849,56 C9.3730352,53.7205776 8.18684968,51.441787 7,49.1623646 C7.76843037,49.1086643 8.53619659,49.0543321 9.30462696,49 C10.5366394,51.2276173 11.7679876,53.4552347 13,55.682852 L10.5598849,56 Z" id="Fill-85" fill="#9A9053"></path>
                    <path d="M6.1819242,38.7400562 C6.71428571,38.1598403 7.24664723,37.5802159 7.77900875,37 C8.85247813,39.098477 9.92653061,41.196954 11,43.295431 C10.4542274,43.8638178 9.90845481,44.4322046 9.36268222,45 C8.24139942,43.7520331 7.12069971,42.5028833 6,41.254325 C6.0606414,40.4162354 6.1212828,39.5781458 6.1819242,38.7400562" id="Fill-87" fill="#AEBB60"></path>
                    <path d="M111,23.9793136 C111.393562,23.3193465 111.788327,22.6599671 112.181889,22 C114.13646,22.6405736 116.074782,23.3322755 118.047406,23.9117301 C122.647988,25.2622238 117.653242,25.8604843 117.821138,26.8560179 L117.403505,26.7878467 L117.03943,26.9994123 C116.58208,26.974142 116.12473,26.9747297 115.667379,27 C114.111185,25.9933004 112.555593,24.9860132 111,23.9793136" id="Fill-89" fill="#B33350"></path>
                    <path d="M33.7777527,22.5749302 C33.8516093,24.0501546 33.9261434,25.525379 34,27 C32.751214,25.9676446 31.5031056,24.9352892 30.2543196,23.9029339 C29.5028797,22.3703899 28.7514399,20.837846 28,19.3053021 C28.6240542,19.2039369 29.2474308,19.1019685 29.8708075,19 L33.7777527,22.5749302 Z" id="Fill-91" fill="#A19256"></path>
                    <path d="M10,54.2930531 L12.4311001,54 C12.9690653,54.0402802 13.4918114,54.1412726 14,54.303561 C13.3647643,55.8692353 12.7301902,57.4349095 12.0949545,59 C11.3968569,57.4308231 10.6987593,55.86223 10,54.2930531" id="Fill-93" fill="#AC8D64"></path>
                    <path d="M168,80.6824966 C167.946021,82.1221167 167.891733,83.5610583 167.837754,85 C167.582048,84.9090909 167.325108,84.8378562 167.067859,84.7856174 L167,81.2123474 L167.544725,74 C167.696792,76.2279512 167.84855,78.4552239 168,80.6824966" id="Fill-95" fill="#696C31"></path>
                    <path d="M124.910117,12 C124.610368,11.9568681 124.310619,11.9198979 124.01087,11.8897741 C124.007107,8.25984938 124.003763,4.62992469 124,1 C124.333194,4.01101637 124.666806,7.02203274 125,10.0323645 C124.970318,10.688243 124.939799,11.3441215 124.910117,12" id="Fill-97" fill="#8E8A37"></path>
                    <path d="M3.03884088,27.362124 C2.35943092,26.73582 1.67940997,26.1088662 1,25.4819125 C4.2595793,21.8377845 5.8291874,25.8970663 8,27.2198412 C7.43484333,27.7863735 6.86968665,28.3529058 6.30452998,28.9194381 C5.76259056,28.9701141 5.21942917,28.9941528 4.67626778,28.9935031 L4.65977132,29 C4.11966483,28.4536082 3.57894737,27.9078661 3.03884088,27.362124" id="Fill-99" fill="#868E42"></path>
                    <path d="M8.63663308,1 C9.75815056,2.33333333 10.8790753,3.66666667 12,5 C10.3331357,4.32561728 8.66686426,3.65123457 7,2.97608025 C7.54534677,2.31790123 8.09128631,1.65895062 8.63663308,1" id="Fill-101" fill="#8E9755"></path>
                    <path d="M30.3131331,129 L28.5992536,127.089654 C28.4002133,126.491959 28.1997512,125.892924 28,125.295229 C28.7783899,124.863039 29.5567798,124.43152 30.3344589,124 C30.8903501,125.639641 31.4448196,127.280622 32,128.920933 C31.4362893,128.929644 30.8740004,128.955776 30.3131331,129" id="Fill-103" fill="#BE3455"></path>
                    <path d="M29,17.6982707 C28.4879644,17.7990459 27.9753722,17.8998211 27.46278,18 C26.6424099,16.3333333 25.8209267,14.6666667 25,13 L29,17.6982707 Z" id="Fill-105" fill="#8E9444"></path>
                    <path d="M55,14.3214141 C53.6991641,15.2145469 52.3977123,16.1076798 51.0968764,17 C50.0645842,15.6663958 49.0322921,14.3336042 48,13 C50.333128,13.4404714 52.666872,13.8809427 55,14.3214141" id="Fill-107" fill="#B2655E"></path>
                    <path d="M6,43 C7.31106187,44.3698897 8.62144196,45.7404283 9.93250384,47.109669 C9.97136526,47.6839714 9.99386399,48.2582738 10,48.8332252 C9.21118118,48.8883842 8.42304415,48.9441921 7.63354355,49 C7.08948355,47 6.54474178,45 6,43" id="Fill-109" fill="#8C8D43"></path>
                    <path d="M29.0496454,24 C30.3567376,25.0431655 31.6638298,26.0863309 32.9702128,27.1294964 C32.9801418,27.7532008 32.9900709,28.3762956 33,29 C31.6659574,28.9780515 30.3333333,28.9561029 29,28.9341544 L29.0496454,24 Z" id="Fill-111" fill="#A84F50"></path>
                    <path d="M9,1.4930862 C8.37554543,1.99558694 7.7504121,2.49808767 7.12595753,3 L2,1.93321565 C3.67448851,1.62194763 5.34965577,1.31067961 7.02550179,1 C7.68389411,1.16416593 8.34160768,1.32892027 9,1.4930862" id="Fill-113" fill="#76823B"></path>
                    <path d="M6,28.8994373 C6.59587717,28.2662915 7.19239854,27.6331458 7.78763152,27 C9.19196908,28.2851697 10.5963066,29.5703394 12,30.8555092 C11.1400043,30.9034307 10.2793644,30.9520784 9.4187245,31 C8.27914967,30.2993284 7.13957483,29.5993828 6,28.8994373" id="Fill-115" fill="#7E873D"></path>
                    <path d="M22,105.214106 C21.6681416,105.808986 21.3366854,106.404493 21.0044248,107 C21.0028158,105.332706 21.001609,103.666667 21,102 C21.3334674,103.07116 21.6665326,104.142947 22,105.214106" id="Fill-117" fill="#B8335A"></path>
                    <path d="M108.032985,22 C108.022208,20.6666667 108.011104,19.3333333 108,18 C108.333442,18.6246181 108.666558,19.2499551 109,19.875292 C108.677662,20.5832884 108.355323,21.2920036 108.032985,22" id="Fill-119" fill="#BC875E"></path>
                    <path d="M36.1304004,8 C36.0791264,7.66707718 36.0360817,7.33374384 36,7 C37.3331223,7.28078818 38.6668777,7.56116585 40,7.84195402 C38.7099225,7.89490969 37.4198449,7.94745484 36.1304004,8" id="Fill-121" fill="#96A245"></path>
                    <path d="M14,64.289288 C14.4136156,63.5259782 14.8272311,62.7626684 15.2414188,62 C15.4942792,62.7087877 15.7477117,63.4175754 16,64.1263631 C15.9227689,64.7511225 15.8461098,65.3752405 15.7688787,66 C15.1796339,65.4297627 14.5892449,64.8595253 14,64.289288" id="Fill-123" fill="#B55959"></path>
                    <path d="M69.0414831,15.8807767 C68.9963317,15.5871845 68.9881896,15.2932039 69.0163167,15 C70.3442112,15.0069903 71.6721056,15.0128155 73,15.0190291 C72.9851963,15.3471845 72.9555888,15.6737864 72.9111776,16 C71.6210327,15.9603883 70.331628,15.9203883 69.0414831,15.8807767" id="Fill-125" fill="#AF2F4B"></path>
                    <path d="M27.3433713,36 C27.5748041,36.2507632 27.8287589,36.4967292 27.9996154,36.7601396 C28.0159244,36.7854339 27.509568,36.9175752 27.2455172,37 C26.8882719,36.654601 26.9208899,36.321413 27.3433713,36" id="Fill-127" fill="#A84F50"></path>
                    <path d="M51,155.99669 C51.0088365,155.664583 51.017673,155.332107 51.0261414,155 C51.3508837,155.333211 51.6756259,155.666789 52,156 L51,155.99669 Z" id="Fill-129" fill="#B52342"></path>
                    <path d="M142.751033,157.468194 C149.948652,157.628392 160.081155,151.301815 158.950672,148.120379 C156.947655,142.48403 158.767671,138.808232 162.011721,134.487261 C163.998498,131.842739 162.759963,127.675083 158.898832,127.574333 C155.150124,127.477338 148.570836,123.852854 147.990605,130.698824 C147.426612,137.342043 143.661666,140.931484 139.39456,144.210541 C135.839471,146.942671 134.539102,150.361276 136.312899,153.484515 C137.658862,155.854322 141.538106,156.777339 142.751033,157.468194 M170.843856,121.931101 C170.908187,122.47615 170.960652,123.022451 171,123.570004 C170.51283,127.754556 170.299225,131.997305 169.429815,136.099881 C168.95826,138.323257 167.368088,140.308839 166.283199,142.401428 C165.158961,143.533453 163.203413,144.558472 163.042896,145.8144 C161.73316,156.068337 154.702303,160.195318 145.883284,162.592034 C139.568192,161.51007 132.797159,157.96631 128.137819,165.894244 C128.05475,166.034418 127.622543,165.969337 127.353975,166 C126.235984,165.992491 125.117992,165.985607 124,165.978724 C124.687659,164.345453 125.219798,162.622071 126.099201,161.102065 C127.393948,158.863671 129.992186,156.855561 130.173938,154.599019 C130.701705,148.043408 134.195585,143.463992 138.225352,138.82638 C139.688735,137.142421 140.003522,134.455972 140.841079,132.226964 C142.493083,125.877859 146.612165,122.63322 153.09964,121.897935 C154.181406,121.775283 155.06081,119.859788 156.0339,118.773444 C160.485881,118.065068 165.534332,121.892929 169.434811,117 C169.904493,118.643909 170.374174,120.287192 170.843856,121.931101" id="Fill-131" fill="#AC2244"></path>
                    <path d="M125.891517,165.926891 C126.163355,165.897478 126.59918,165.960507 126.683065,165.825445 C131.388836,158.220551 138.226427,161.619913 144.602964,162.65779 C145.735099,164.192095 146.867865,165.7276 148,167.262505 L136.349417,167.626272 L132.68685,168.990699 C131.298013,169.106552 129.908546,169.222405 128.51971,169.338259 C124.821823,170.82094 121.122674,172.303621 117.424787,173.786902 C116.283191,173.857735 115.141596,173.928567 114,174 C115.512457,172.394863 116.786503,170.461975 118.598549,169.269827 C120.792179,167.827364 123.439924,167.013391 125.891517,165.926891" id="Fill-133" fill="#A41E34"></path>
                    <path d="M148.298022,167.088934 C147.198886,165.482553 146.099137,163.876173 145,162.269793 C153.646133,159.864306 160.539159,155.720511 161.823832,145.426987 C161.981201,144.166132 163.898414,143.137094 165,142 C162.88133,148.977106 161.34805,156.228119 158.40763,162.818236 C156.858429,166.289199 153.261588,169.672837 148.298022,167.088934" id="Fill-135" fill="#A32037"></path>
                    <path d="M114.54646,174.734044 C115.695676,174.662395 116.843623,174.591347 117.992838,174.520299 C118.661046,174.651557 119.330523,174.784019 120,174.915878 C116.034539,176.610184 112.069713,178.305092 108.104252,180 C105.069078,178.216584 102.034539,176.433167 99,174.649751 C100.118122,174.100034 101.236243,173.550318 102.354365,173 L107.689874,173.104163 L114.54646,174.734044 Z" id="Fill-137" fill="#9F2C38"></path>
                    <path d="M119.977886,174 C119.318174,173.864279 118.659087,173.728557 118,173.592836 C121.66625,172.061477 125.333125,170.530739 129,169 C125.992212,170.66646 122.985674,172.33354 119.977886,174" id="Fill-139" fill="#923033"></path>
                    <path d="M133,169 L137,168 L133,169 Z" id="Fill-141" fill="#923033"></path>
                    <path d="M169.483616,117.462746 C165.554331,122.361388 160.468598,118.529058 155.98374,119.238261 C147.344977,112.013406 146.716417,105.729562 154.12197,100.612269 C154.724733,99.1969945 155.835251,97.7835993 155.838397,96.3676981 C155.85161,91.5937305 158.639546,90.3332025 162.697185,90.3144074 C164.364535,89.8764804 166.033144,89.4385535 167.701124,89 C167.729437,90.5906961 167.75838,92.1820186 167.786693,93.7727147 L161.636372,93.7727147 C167.482795,96.5023967 171.075463,100.381715 169.710753,107.250716 C169.63525,110.654517 169.559747,114.058318 169.483616,117.462746" id="Fill-143" fill="#BE3258"></path>
                    <path d="M169.11729,106 C170.65827,99.3746107 166.601563,95.6328731 160,93 L166.944003,93 C168.192275,93.0138986 169.440548,93.0277971 170.68811,93.0410914 C170.872118,93.4755729 170.975844,93.9227444 171,94.3838144 C170.950268,96.0341189 170.900536,97.6844234 170.850094,99.3353321 C170.272492,101.556687 169.694891,103.778041 169.11729,106" id="Fill-145" fill="#AE4D4A"></path>
                    <path d="M140,133.665001 C139.168743,135.816157 138.856556,138.408172 137.405882,140.033919 C133.408785,144.509554 129.944386,148.929024 129.420979,155.255668 C129.240728,157.433395 126.663954,159.371368 125.379283,161.531582 C124.507144,162.998498 123.98002,164.661688 123.297423,166.237913 C115.166337,168.230238 107.944555,166.166651 101.104334,161.788851 C96.3503095,158.745709 98.9623906,163.464119 98.1813059,164.614582 C96.0350263,162.369216 92.7465419,160.398632 92.0868629,157.794538 C91.5145217,155.532866 93.9172399,152.554343 95.0036971,149.892877 C95.5295821,149.915826 96.0554671,149.926697 96.581352,149.925489 L96.5832103,149.935152 C97.1406855,150.45754 97.6981607,150.979929 98.2556359,151.502318 C99.518627,151.039717 101.142119,149.837317 101.988862,150.229863 C109.02296,153.49102 114.446575,149.906767 119.989117,146.603941 C122.424664,145.062743 125.150718,143.822295 127.229481,141.912103 C130.569997,138.841181 133.483115,135.326983 136.577102,132 C137.717449,132.555 138.859034,133.110001 140,133.665001" id="Fill-147" fill="#B92A4C"></path>
                    <path d="M135.757441,131.035846 C132.704823,134.466647 129.831266,138.090505 126.534805,141.257255 C124.484447,143.227054 121.794231,144.506209 119.39186,146.0955 L118.625497,143.252587 C111.777731,148.975156 103.902035,146.538285 96.2879057,146.177082 C95.74094,146.155908 95.192752,146.134734 94.6457863,146.11356 L93,136.085831 C93.5597996,135.520985 94.1202103,134.955516 94.6806209,134.39067 C95.1860295,133.690684 95.6908269,132.991321 96.1968466,132.291336 C96.7419789,132.364199 97.2877224,132.437685 97.8328547,132.510548 C106.156512,144.95709 109.831266,144.826932 114.338386,136.095795 C118.776447,131.331035 123.461407,126.77677 127.590235,121.748581 C132.899775,115.28181 132.707267,115.117401 124.317607,112.574037 C123.852534,112.038461 123.386238,111.502884 122.920553,110.966063 L128.087699,109.256578 C130.687466,109.17126 133.287234,109.085941 135.887002,109 C141.675672,110.043128 141.54,114.20879 140.320786,118.45977 C139.093627,122.739397 137.301779,126.850256 135.757441,131.035846" id="Fill-149" fill="#D5456E"></path>
                    <path d="M98.0301974,163.945557 C98.7983041,162.761108 96.2296239,157.903316 100.904658,161.036353 C107.631226,165.543474 114.733015,167.66802 122.728999,165.616841 C123.819332,165.623681 124.909666,165.63052 126,165.637981 C123.632331,166.762741 121.075224,167.606466 118.956687,169.10055 C117.206671,170.334739 115.976239,172.33742 114.514948,174 L107.933961,172.316902 L102.960455,167.311131 L102.989084,167.336001 C102.413461,166.772067 101.839056,166.208133 101.264042,165.643577 C100.185891,165.077777 99.1083487,164.511978 98.0301974,163.945557" id="Fill-151" fill="#A32037"></path>
                    <polygon id="Fill-153" fill="#A41E34" points="102.144505 168 107 173 102 172.89256"></polygon>
                    <path d="M96,145 C96.3316062,145.024858 96.6632124,145.049715 96.9948187,145.075304 C96.996299,146.383256 96.9981495,147.691939 97,148.99989 C96.6857883,149.001353 96.3715766,148.988193 96.0573649,148.960411 L96,145 Z" id="Fill-155" fill="#C7395E"></path>
                    <path d="M101,166 C101.333333,166.333211 101.666667,166.666422 102,167 C101.666667,166.666422 101.333333,166.333211 101,166" id="Fill-157" fill="#A41E34"></path>
                    <path d="M137.572672,65.0399291 C138.11093,65.0264146 138.649187,65.0135145 139.187445,65 C139.985004,65.2690607 141.379148,65.393148 141.491365,65.828068 C144.029861,75.6672108 145.652876,85.6021834 141.256788,95.3006529 C140.600609,96.7467004 137.766673,97.9365873 135.854559,98.0674319 C123.746617,98.8961142 111.614583,99.3930778 99.4907904,100 C97.979358,98.8850569 96.4679257,97.7694994 94.9571274,96.6545563 C94.3047516,96.5808411 93.6530098,96.5065115 93,96.432182 C93.0507192,95.945047 93.1096803,95.4591407 93.1768832,94.9738486 C100.545116,92.7236907 107.913982,90.474147 115.282215,88.2246033 C117.733855,88.7719391 120.242553,89.9397115 122.625088,89.7351516 C127.24434,89.3383179 131.441354,89.1448154 131.518067,81.9993506 C131.579564,76.3263479 135.413936,70.6914315 137.572672,65.0399291" id="Fill-159" fill="#DB3F66"></path>
                    <path d="M116.582567,87.6329322 C109.281574,89.9715313 101.979953,92.310769 94.6789598,94.6493681 C91.8532958,95.4610446 88.7411705,95.763747 86.2691856,97.2038182 C82.5885353,99.3470019 79.359564,102.29356 75.938362,104.898461 C74.8082221,104.899099 73.6780821,104.899099 72.547314,104.899738 C70.2813802,104.896545 68.0148182,104.892713 65.7488845,104.88952 C65.2036029,104.885688 64.6589496,104.88952 64.1142963,104.901654 C62.9910666,104.886966 61.8690933,104.873555 60.7464918,104.859505 L60.6472354,105 C59.5786595,104.407368 58.5100836,103.814097 57.4408795,103.222103 C56.7109058,102.06813 55.9809321,100.914796 55.2509585,99.7621 C54.1679339,98.0423165 53.0836528,96.3231716 52,94.6046652 C56.0688808,91.6127655 59.1288651,94.9309962 62.5136311,96.3180627 C65.1288466,97.3896545 68.2284078,100.090985 69.1725992,94.5503832 C70.3027392,94.5484673 71.4322509,94.5471901 72.5617627,94.5459129 C78.957513,92.2724523 85.3513788,89.9919669 91.7521548,87.7300013 C93.3327174,87.1712154 94.9032288,86.5313256 96.5302785,86.1660393 C108.165883,83.5477279 109.874599,81.1037577 109.774715,67 C112.611058,69.2932576 115.446774,71.5858766 118.283117,73.8784956 C118.855411,75.0305526 119.427706,76.1826096 120,77.3346666 L116.582567,87.6329322 Z" id="Fill-161" fill="#E8668B"></path>
                    <path d="M120.383406,77 C119.807118,75.8660975 119.230831,74.7328236 118.654544,73.5982926 C128.92207,69.0821678 129.569207,65.3278444 121.257009,58.4282617 C120.611137,57.8921093 119.98361,57.2346471 119.227036,56.9467716 C113.890529,54.9134155 114.078407,51.2697167 115.877486,46.8233608 C116.868118,44.3732767 117.260322,41.6837154 117.922008,39.1028931 C114.72934,39.2273458 111.536039,39.3436273 108.34337,39.4837938 C107.784163,39.5083072 107.229384,39.6296171 106.672707,39.7069287 C104.990025,38.5642265 103.307975,37.4215244 101.625925,36.2781937 C100.947791,33.2636725 94.4251831,32.635752 98.1327776,27.8292376 L98.2422152,27.8260948 C104.529501,27.2245734 110.818052,26.6224234 117.10597,26.020902 C117.586737,25.9932458 118.068136,25.9932458 118.548902,26.0196449 C121.622644,29.9248201 124.56038,33.9475339 127.818205,37.6943147 C130.091724,40.3084501 129.521763,39.6547591 126.535318,41.1136214 C121.074823,43.7799264 121.102657,52.1949409 126.700423,58.2484966 C131.69217,63.6458472 130.345391,68.4353909 127.107177,73.2249345 C125.823657,75.1231526 122.679698,75.7787292 120.383406,77" id="Fill-163" fill="#E65583"></path>
                    <path d="M100,99.3222275 C112.081715,98.7050214 124.172275,98.1996371 136.237564,97.3569134 C138.143041,97.2238517 140.967773,96.013803 141.621044,94.5432532 C146.002506,84.6804498 144.384492,74.5771359 141.854806,64.5712756 C141.742979,64.1289862 140.353674,64.0021716 139.558882,63.7291766 C146.965985,56.0034805 138.004048,49.049292 138.073545,41.6696811 C138.735028,41.4466623 139.395249,41.2236435 140.056733,41 C142.09615,46.3580735 144.841276,51.5718408 145.993661,57.1098287 C147.39497,63.8447465 147.969899,70.8507853 147.998961,77.7431283 C148.092466,99.6689374 141.883237,99.0698477 125.37078,102.49884 C122.712841,103.051077 120.033421,103.502112 117.363477,104 L100,99.3222275 Z" id="Fill-165" fill="#CF3C5A"></path>
                    <path d="M137,130.297848 C138.608422,126.148351 140.474624,122.072941 141.752705,117.830217 C143.022512,113.615893 143.163814,109.486153 137.134937,108.45202 C138.125322,106.835685 138.79937,104.882254 140.171016,103.673399 C142.939131,101.234697 146.085324,99.2010055 149.076212,97 C150.755921,98.123655 152.436267,99.2473099 154.116613,100.370965 C146.625071,105.414447 147.260929,111.606897 156,118.726671 C155.008341,119.798465 154.112157,121.688305 153.009748,121.809314 C146.398479,122.53475 142.200797,125.735315 140.517269,132 C139.345483,131.432616 138.172423,130.865232 137,130.297848" id="Fill-167" fill="#BF2647"></path>
                    <path d="M100.167057,100.401499 L117.31494,105.078404 C120.876419,106.288853 124.437897,107.499302 128,108.709751 L122.724544,110.424241 C117.049763,111.615953 111.374359,112.808289 105.69833,114 L105.617841,112.042545 C107.492796,110.59288 109.367751,109.144463 112.34085,106.846609 C108.170401,106.183298 105.212277,105.712359 102.253529,105.241421 C95.7807228,101.37523 95.7763552,101.374605 95.5261532,108.175105 C95.4543995,110.103204 95.4207065,112.033177 95.369543,113.9619 C94.857908,113.841355 94.3631195,113.670843 93.8864255,113.451613 C94.0174539,107.914652 90.8702749,102.014806 95.7058494,97 C97.1920866,98.1336248 98.6795718,99.2678742 100.167057,100.401499" id="Fill-169" fill="#B6A766"></path>
                    <path d="M80,18.0570839 C81.7107438,18.0378267 83.4221074,18.0185695 85.1328512,18 C86.1109504,19.4050894 87.0890496,20.8101788 88.0671488,22.215956 C88.3783058,23.8810179 88.688843,25.5460798 89,27.2111417 C88.8134298,27.7606602 88.7254132,28.3287483 88.7371901,28.9154058 L85.2140496,29 C83.4754132,25.352132 81.7380165,21.7049519 80,18.0570839" id="Fill-171" fill="#AB3E46"></path>
                    <path d="M91,129.050756 C85.4152651,144.113313 71.649356,152.512206 56.3443269,147.591386 C53.8114147,146.776748 51.0583586,146.660008 48.4065688,146.220332 C47.2712555,143.942645 46.1359422,141.664323 45,139.386001 C49.6695655,139.541442 55.1989499,138.134859 58.8319523,140.172723 C66.6917166,144.580905 73.3520114,145.130976 80.0028714,139.201375 C83.7233024,135.884453 87.3022124,132.405111 90.9446495,129 L91,129.050756 Z" id="Fill-173" fill="#D4476C"></path>
                    <path d="M97,97.2250238 C92.4871258,102.215952 95.424279,108.087706 95.3019947,113.597681 C95.2035849,118.705472 95.1057575,123.812642 95.0073477,128.920434 C94.057606,128.947163 93.1078644,128.973271 92.158705,129 L92.1074621,128.950271 C92.1161967,125.598535 92.1249313,122.247421 92.1342482,118.896929 C92.1284251,114.19878 91.7679775,109.458983 92.2530387,104.819888 C92.5337103,102.129548 94.1740673,99.6014491 95.2024203,97 C95.8016135,97.0745935 96.4008068,97.1498087 97,97.2250238" id="Fill-175" fill="#D4476C"></path>
                    <path d="M43.7823431,139.341069 C44.8854909,141.534046 45.987417,143.727023 47.0905648,145.919389 C47.7270432,148.61313 48.3635216,151.30687 49,154 C43.9997964,148 39.0002036,142 34,136 C36.7102252,136.544122 39.4192287,137.087634 42.1294539,137.631145 C42.680417,138.201527 43.2319909,138.770687 43.7823431,139.341069" id="Fill-177" fill="#B52342"></path>
                    <path d="M93,129.045474 C93.0983416,124.029909 93.1961013,119.014955 93.2944428,114 C93.7395985,114.214246 94.2004655,114.380883 94.6776258,114.498688 C94.784696,118.790942 94.892348,123.082586 95,127.37484 C94.9144603,128.89776 94.8295025,130.42007 94.7439628,131.942379 C94.2627291,132.628456 93.7820774,133.313923 93.3008438,134 C93.2007565,132.348288 93.1006692,130.697186 93,129.045474" id="Fill-179" fill="#A77556"></path>
                    <path d="M68,94.667354 C67.0473764,100.138046 63.9201345,97.4704768 61.2809298,96.4125281 C57.8665698,95.0437517 54.7792581,91.7677675 50.6746738,94.720945 C49.7182473,94.1717952 48.7611871,93.6220149 47.8041268,93.0728651 C44.1520862,89.0699352 40.5006794,85.0663748 36.8499065,81.0628144 C36.4220815,80.46827 35.9942566,79.8724645 35.5657978,79.2772895 L35.609531,79.3340329 C35.0479711,78.1979044 34.4864113,77.061776 33.9254852,75.925017 L33.9254852,75.7289371 C32.920255,74.2328034 31.9150248,72.7366698 30.9104284,71.2405361 C28.2040395,71.0772413 27.1715552,69.9713759 28.7307395,67.4065754 C29.8703384,67.3983791 31.0099374,67.3901828 32.1495363,67.3819866 C34.4008463,67.3863999 36.6521563,67.3908133 38.9034663,67.3952267 L50.9022133,67.4526005 C58.9719427,65.5176514 63.0201175,70.0010086 64.8277572,76.8196709 C66.3717299,82.6415412 66.9789244,88.7086691 68,94.667354" id="Fill-181" fill="#ED6E94"></path>
                    <path d="M50.9868011,67 L39.6285747,66.945978 C38.8912379,65.6631048 38.1527012,64.3790442 37.4153644,63.0955773 C36.0222838,64.3748887 34.6286033,65.6542001 33.2361226,66.9335114 C32.1568151,66.9412289 31.0781076,66.9489463 30,66.9566637 C30.489558,65.9082814 30.979716,64.8604927 31.469874,63.8121104 C33.126932,62.2080736 34.7845899,60.6040368 36.4422478,59 C41.2952318,59.5360641 46.1482159,60.0721282 51,60.6075987 C50.9964003,62.7382012 50.9916007,64.8693974 50.9868011,67" id="Fill-183" fill="#F38EAA"></path>
                    <path d="M36.7230965,59.9579048 C35.020134,61.6388106 33.3177877,63.3197163 31.6148252,65 C31.6980318,62.6217236 31.9753873,60.2266506 31.7738423,57.872636 C31.6857049,56.8393331 30.6212762,55.8906354 30,54.9033676 L35.4497268,50 C37.4861322,50.5829048 39.523154,51.1658096 41.5607922,51.7487143 C42.7071948,52.8087674 43.8535974,53.8694426 45,54.9301178 C41.3185684,55.0582697 37.6402186,55.1901543 36.7230965,59.9579048" id="Fill-185" fill="#EC7894"></path>
                    <path d="M31.153883,72 C32.1021898,73.509298 33.0510949,75.0179603 34,76.5266225 C32.8117746,79.0181722 31.6241474,81.5090861 30.4365203,84 C29.9572813,82.5962384 29.4786407,81.1931126 29,79.789351 C29.184875,77.6646358 29.3697499,75.5399205 29.5546249,73.4158411 C30.0877109,72.9434702 30.6201986,72.4717351 31.153883,72" id="Fill-187" fill="#A9A060"></path>
                    <path d="M167.081165,87.6651121 C165.27026,88.1102867 163.458672,88.5548254 161.648451,89 C160.432528,84.999788 159.215922,81.000212 158,77 L158.868223,77.0801314 L159.739862,77.0610525 C162.257778,79.3543378 164.776377,81.648259 167.294293,83.9421803 C167.864684,83.9905135 168.433025,84.0572897 169,84.1425089 C168.359933,85.3171339 167.720549,86.491123 167.081165,87.6651121" id="Fill-189" fill="#95973B"></path>
                    <path d="M159.945434,78.9794371 L159.471789,79 L159,78.9164219 C159.041945,76.6107268 159.084633,74.3056951 159.126578,72 C159.417595,72.5512177 159.708612,73.1030986 160,73.6543163 C159.981811,75.4293566 159.963623,77.2043969 159.945434,78.9794371" id="Fill-191" fill="#AC9049"></path>
                    <path d="M28.6300815,79 C29.1349461,80.3727549 29.6398107,81.7455098 30.1446753,83.1182647 C30.166132,85.1630975 30.1869577,87.2079304 30.2084144,89.2527632 C30.3996319,93.260362 30.5908493,97.267339 30.7820668,101.274938 C31.1367342,102.32129 31.4907704,103.367021 31.8448067,104.413374 C32.0341309,105.561067 32.2228241,106.707516 32.4115172,107.855209 L35.388325,116.467256 C36.5135419,118.16517 37.6381278,119.863705 38.7639758,121.560998 C38.8422298,122.615432 38.9211149,123.670489 39,124.724302 C38.914173,125.280741 38.827715,125.8378 38.741888,126.394239 C37.6734683,127.379041 36.569077,128.329027 35.5460952,129.35735 C34.3754404,130.535507 33.2760978,131.782675 32.1464633,133 L30.3863792,128.03682 C31.5002367,127.596643 33.6200368,126.936377 33.5777544,126.747997 C32.6614252,122.673874 31.5033921,118.652597 30.3920589,114.621373 L30.3825927,114.605209 L28.703918,106.253661 L28.672995,106.198328 C28.1157507,102.854103 27.5578754,99.5092567 27,96.1650318 C27.5427294,90.4433545 28.086721,84.7216773 28.6300815,79" id="Fill-193" fill="#C63C54"></path>
                    <path d="M28,97 C28.3334591,100.666439 28.6669181,104.333561 29,108 C28.6669181,104.333561 28.3334591,100.666439 28,97" id="Fill-195" fill="#D2446B"></path>
                    <path d="M30,107 L31,115 L30,107 Z" id="Fill-197" fill="#D2446B"></path>
                    <path d="M9.06471831,48.6864366 C9.05889366,48.1025641 9.03753662,47.5193506 9,46.9367961 C9.60576334,46.3034987 10.2115267,45.6702013 10.81729,45.0369039 L10.9240752,45 C13.3853124,51.3830578 17.0846107,50.5685358 21.2835343,46.8504673 C23.5221405,47.4639947 25.7613938,48.0768632 28,48.6903906 C23.3998229,51.1267074 18.7996458,53.5630242 14.2001158,56 C13.7030792,55.8167985 13.1918046,55.7021328 12.6649976,55.6566619 C11.4651202,53.3330338 10.2645957,51.0100647 9.06471831,48.6864366" id="Fill-199" fill="#BBC470"></path>
                    <path d="M40.2760174,51 C38.2901337,50.3707186 36.3054513,49.7414372 34.3201682,49.1121558 C34.2132452,48.486904 34.1063223,47.8623237 34,47.2370719 C35.1557291,47.157824 36.3108575,47.0792478 37.4665866,47 L42,49.051041 C41.4251389,49.7004701 40.8502778,50.3505709 40.2760174,51" id="Fill-201" fill="#CC4D6B"></path>
                    <path d="M36,30.209822 C36.6976338,28.4732147 37.3952677,26.7366073 38.0922638,25 C40.3107904,25.5991078 42.5006209,26.3400933 44.7548582,26.7632481 C48.1460983,27.3989096 51.5826145,27.8121515 55,28.3195655 C54.9993623,29.9688158 54.9987246,31.6180662 54.9980869,33.2673165 L54.9304917,33.3181199 C53.7934888,33.8695221 52.656486,34.4215439 51.5201208,34.9729462 L51.5111932,34.9748048 C48.6607149,30.9408946 45.8159758,26.878485 41.17805,33.3075875 C40.6028528,35.5385982 40.027018,37.7689893 39.4518208,40 C38.3358617,37.7751848 37.2199027,35.5509892 36.1045813,33.3267936 C36.0695083,32.2878031 36.035073,31.2488125 36,30.209822" id="Fill-203" fill="#EC698E"></path>
                    <path d="M37,33 C38.0461308,35.2129531 39.0928598,37.4265226 40.1395888,39.6394756 L40.1491589,39.6407085 C41.7659065,42.4275499 43.3832523,45.213775 45,48 C44.4533084,47.9975343 43.907215,47.9950686 43.3605234,47.9919865 L38.8464299,46.1094354 C38.2309533,41.7396236 37.6154766,37.3698118 37,33" id="Fill-205" fill="#E95982"></path>
                    <path d="M33,28 C33.3335997,28.3330917 33.6667998,28.6665458 34,29 C33.6667998,28.6665458 33.3335997,28.3330917 33,28" id="Fill-207" fill="#A84F50"></path>
                    <path d="M27,44 C26.6663386,43.6666667 26.3336614,43.3333333 26,43 C26.3336614,43.3333333 26.6663386,43.6666667 27,44" id="Fill-209" fill="#CD8F71"></path>
                    <path d="M55.3850891,28 C52.0733408,27.5293442 48.7430533,27.1460384 45.4566422,26.5558509 C43.2720872,26.163925 41.1499481,25.4760434 39,24.9209109 C39.0271911,20.7872998 42.0732084,20.974068 45.2434395,20.9292436 C47.6004105,20.8959126 49.9493478,20.328712 52.301993,20 L55.4141341,20.2505567 C57.6122845,21.2700237 59.809817,22.2894907 62.0085855,23.3089577 C63.1413406,23.8077724 64.2747136,24.3060125 65.4074687,24.8048272 C65.9389305,24.8065513 66.4697742,24.8278141 66.998764,24.8686158 C67,25.3846706 67,25.9001509 67,26.4162057 C63.128363,26.9443287 59.256726,27.4724517 55.3850891,28" id="Fill-211" fill="#E96386"></path>
                    <path d="M56,20 L52.3808839,19.6700642 C52.2536831,18.4469611 52.1264822,17.2238581 52,16 C53.3029105,16.6304266 54.6058211,17.2608532 55.9087316,17.8912797 C55.9389148,18.5941865 55.9690981,19.2970932 56,20" id="Fill-213" fill="#B2655E"></path>
                    <path d="M132.261231,23.9308305 C132.841216,24.953887 133.420015,25.9769435 134,27 C131.795701,26.5195558 129.591994,26.0379044 127.388288,25.5568566 L127.518755,25.5103815 C127.012305,24.3400531 126.506449,23.1697248 126,22 C128.087472,22.643409 130.173758,23.2874215 132.261231,23.9308305" id="Fill-215" fill="#A36942"></path>
                    <path d="M135,33 C134.666667,32.6668062 134.333333,32.3331938 134,32 C134.333333,32.3331938 134.666667,32.6668062 135,33" id="Fill-217" fill="#C4314F"></path>
                    <path d="M138,35 C137.666938,34.6665263 137.333062,34.3334737 137,34 C137.333062,34.3334737 137.666938,34.6665263 138,35" id="Fill-219" fill="#C4314F"></path>
                    <path d="M134,32 C133.666667,31.6668102 133.333333,31.3331898 133,31 C133.333333,31.3331898 133.666667,31.6668102 134,32" id="Fill-221" fill="#C4314F"></path>
                    <path d="M33.0609227,133.22655 C34.3001448,131.894825 35.505444,130.529772 36.7903581,129.241575 C37.912581,128.115934 39.124111,127.077351 40.2961797,126 C41.5305557,129.667347 42.765624,133.333333 44,137 C40.9282522,136.39399 37.8578891,135.78934 34.7861414,135.18333 C34.1907609,135.143882 33.5946881,135.102393 33,135.056143 C33.0138461,134.446052 33.0339228,133.835961 33.0609227,133.22655" id="Fill-223" fill="#BF284B"></path>
                    <path d="M127.024301,21.4240039 C127.683124,22.6155927 128.341176,23.8077964 129,25 C127.666152,24.4632317 126.333076,23.9264634 125,23.389695 C125.607907,22.2595917 126.215815,21.1294884 126.823722,20 C126.927869,20.4715937 126.994986,20.9462617 127.024301,21.4240039" id="Fill-225" fill="#8E5839"></path>
                    <path d="M117,27.2072882 C110.666667,27.8050668 104.332696,28.4022214 98,29 C99.1054661,27.3788843 100.210932,25.7583926 101.316398,24.1372769 C104.897217,24.0917259 108.477398,24.045551 112.058216,24 C113.705265,25.0688881 115.352314,26.1384001 117,27.2072882" id="Fill-227" fill="#E1587D"></path>
                    <path d="M100,23.1787019 C98.8211372,24.9418711 97.6409147,26.7043616 96.4613721,28.4668521 L96.3437577,28.4702454 C94.005068,30.313497 91.6650185,32.1567485 89.3256489,34 C89.2175525,32.2619414 89.1080964,30.5232041 89,28.7844669 C89.0169963,28.0637257 89.0333127,27.3429845 89.050309,26.6215646 L89.0639061,26.6113846 C92.1150803,25.4081133 95.1676143,24.204842 98.2187886,23.0015706 C98.8197775,22.9893547 99.4139679,23.0483984 100,23.1787019" id="Fill-229" fill="#E7898E"></path>
                    <path d="M100,23.1773254 C97.3337294,24.4515502 94.6662706,25.7257751 92,27 C92.9885638,20.5821612 97.1964949,24.0318394 100,23.1773254" id="Fill-231" fill="#DF9B7F"></path>
                    <path d="M91,28 C90.9894999,28.3332287 90.9785622,28.6667713 90.9680621,29 C90.6534951,28.908064 90.3314906,28.834327 90.0007359,28.7791026 C89.9924233,28.5114528 90.0545492,28.2522749 90.1862385,28.0015689 C90.4574924,28.0031377 90.7287462,28.0025102 91,28" id="Fill-233" fill="#DF9B7F"></path>
                    <path d="M6.60163654,29 C7.66478665,29.5936692 8.72793676,30.1873383 9.79108687,30.7816234 C12.5267903,34.0856017 15.2636956,37.38958 18,40.6935583 C15.858675,41.7842099 13.7185521,42.8748614 11.5772271,43.965513 L11.4780639,44 C10.3716426,41.8150018 9.26522121,39.6300037 8.15879987,37.4443897 L5,29.0702057 C5.5348805,29.0708215 6.06855901,29.0480355 6.60163654,29" id="Fill-235" fill="#90A93E"></path>
                    <path d="M10,43.979672 C12.4484913,42.986261 14.8956082,41.99285 17.3440995,41 C18.5515087,41.5177404 19.7596052,42.0360418 20.9677016,42.5537823 L21,45.5547696 C16.5414506,48.7195492 12.6134191,49.4128615 10,43.979672" id="Fill-237" fill="#A6B949"></path>
                    <path d="M2,27 C2.33320769,27.3332011 2.66679231,27.6664022 3,28 C2.66679231,27.6664022 2.33320769,27.3332011 2,27" id="Fill-239" fill="#90A93E"></path>
                    <path d="M81.0816284,18.8302061 C82.8498459,22.0932021 84.6174327,25.3555829 86.3862808,28.6185789 C86.9241872,31.4121809 87.461463,34.206398 88,37 C85.1717349,34.7539219 82.3441003,32.5078437 79.5170964,30.2623808 C78.9445067,29.737004 78.3725476,29.2116272 77.8005886,28.6862504 L77.827074,28.7139342 C75.5512192,27.0492156 73.2753643,25.3838819 71.0001401,23.7191633 C67.6667601,21.5235312 64.33338,19.3285143 61,17.1328822 C64.357343,17.0885881 67.7159473,17.0442941 71.0732904,17 C72.1724355,17.0627499 73.2709501,17.1254998 74.3694647,17.188865 C76.6068526,17.7357736 78.8442405,18.2832974 81.0816284,18.8302061" id="Fill-241" fill="#DB5275"></path>
                    <path d="M59.1802081,17 C62.4536785,19.1326561 65.7265296,21.2647147 69,23.3973708 L67.3564528,25 C66.8003468,24.9928294 66.2436215,24.9922318 65.6875155,24.9976098 C65.1567996,24.9551837 64.6254645,24.9330744 64.0928908,24.9312817 C62.9577657,24.4126083 61.8220213,23.8945324 60.6868962,23.375859 C58.4835274,22.3158052 56.2807778,21.2557514 54.0786475,20.1956976 C54.0520188,19.6393785 54.0260094,19.0830595 54,18.5267404 C55.7265296,18.0176277 57.4536785,17.5091126 59.1802081,17" id="Fill-243" fill="#BE405D"></path>
                    <path d="M103,17 C103.333333,17.3334775 103.666667,17.6665225 104,18 C103.666667,17.6665225 103.333333,17.3334775 103,17" id="Fill-245" fill="#B7BB61"></path>
                    <path d="M100.682628,14 C100.895316,14.3192324 101.001997,14.6524204 100.999972,15 C100.667098,14.7583951 100.333549,14.5167902 100,14.2751853 C100.227543,14.1831662 100.455085,14.0915831 100.682628,14" id="Fill-247" fill="#AAA254"></path>
                    <path d="M141.378535,156.997009 C140.140116,156.304848 136.179342,155.380086 134.805092,153.0058 C132.994016,149.876657 134.321713,146.45159 137.951519,143.714295 C142.308306,140.429039 146.15238,136.832813 146.728226,130.177036 C147.320652,123.318125 154.038215,126.949461 157.865709,127.046639 C161.807989,127.147579 163.072554,131.323114 161.044021,133.972635 C157.731791,138.301774 155.873525,141.98452 157.918638,147.631523 C159.072881,150.818973 148.727425,157.15751 141.378535,156.997009" id="Fill-249" fill="#BA284F"></path>
                    <path d="M96.0095225,148.548349 C96.0063484,147.562062 96.0031742,146.575223 96,145.588936 C103.90943,145.908142 112.09057,148.065404 119.203915,143 L120,145.516163 C114.319482,148.531259 108.760852,151.803263 101.551012,148.826208 C100.68319,148.467858 99.019918,149.56551 97.725486,149.98781 C97.1541331,149.51093 96.5821452,149.03405 96.0114271,148.557721 L96.0095225,148.548349 Z" id="Fill-251" fill="#CE4067"></path>
                    <path d="M97,149 C97.332963,149.332948 97.6666667,149.666281 98,150 C97.6666667,149.666281 97.332963,149.332948 97,149" id="Fill-253" fill="#C7395E"></path>
                    <path d="M106.574682,114.528196 C112.242333,113.352541 117.908738,112.176271 123.575767,111 C124.050511,111.531139 124.525256,112.061047 125,112.590954 C121.571498,118.498186 117.982878,124.323467 114.832245,130.372418 C114.079009,131.819188 114.789879,134.013373 114.826638,135.863735 C110.231834,144.502453 106.48559,144.630617 98,132.316438 L98.2286499,127.599649 C101.010453,123.242703 103.792879,118.885141 106.574682,114.528196" id="Fill-255" fill="#E67093"></path>
                    <path d="M114.348795,136 C114.310351,134.091819 113.579905,131.829706 114.354562,130.337093 C117.594151,124.099126 121.285462,118.091819 124.811462,112 C133.607561,114.595075 133.809395,114.762828 128.242633,121.36108 C123.913784,126.491501 119.00186,131.138364 114.348795,136" id="Fill-257" fill="#E55F89"></path>
                    <path d="M98,128.115493 L97.8797635,133 C97.5863995,132.925345 97.293364,132.850051 97,132.775396 C97.0482917,131.184022 97.0962549,129.592011 97.1445466,128 C97.4296978,128.035094 97.7151774,128.073379 98,128.115493" id="Fill-259" fill="#BF9A6C"></path>
                    <path d="M93.8297308,96.4947961 C92.7480924,99.1287843 91.0227383,101.688505 90.7275233,104.413125 C90.2173281,109.109617 90.5964527,113.908699 90.601965,118.665612 C86.1976266,125.095439 81.8722981,131.585686 77.2964655,137.8846 C76.6772489,138.73742 74.5403088,139.274917 73.5536047,138.853228 C68.1227511,136.532675 62.7237463,134.077433 57.5280847,131.252111 C53.5218579,129.073799 49.8310578,126.282464 46,123.763025 C47.7578155,122.733975 49.4378461,121.091273 51.2948832,120.842036 C53.2756412,120.577063 55.4242185,121.6294 57.4992982,122.106476 C60.8679342,126.67772 64.0289396,131.593868 70.7778487,130.537755 C72.8198545,129.275203 75.1331887,128.315387 76.8511931,126.690937 C81.1587597,122.620686 81.9537578,116.267015 79.0622432,111.869482 C79.0352941,111.313104 79.024882,110.756725 79.0328442,110.199087 C77.929769,109.63012 76.8260814,109.059895 75.7236187,108.490299 L75.7266811,108.495964 L75.7285186,105.101046 C79.0646931,102.533773 82.2122241,99.6304064 85.8013526,97.5175514 C88.210846,96.0989112 91.2450683,95.799952 94,95 C93.9356897,95.4978458 93.8787291,95.9956916 93.8297308,96.4947961" id="Fill-261" fill="#E35780"></path>
                    <path d="M106.363351,40.5953609 C106.929162,40.5191596 107.493044,40.3995918 108.061428,40.3754305 C111.305842,40.237277 114.551542,40.1226654 117.797242,40 C117.124055,42.5443778 116.726058,45.194694 115.719171,47.6095917 C113.890571,51.992092 113.69961,55.5834624 119.123684,57.5876168 C119.892673,57.871358 120.530497,58.5193783 121.186967,59.0478308 C129.634917,65.8483264 128.977804,69.5487327 118.541155,74 C115.6388,71.7759152 112.735802,69.5518303 109.832803,67.3277455 C106.412859,63.9860425 102.993558,60.6449591 99.5729705,57.3038757 C98.3821947,54.5228403 97.1907759,51.7424245 96,48.9613892 C105.62651,51.3818626 105.62651,51.3818626 106.394213,43.9122829 C106.383925,42.8064357 106.373638,41.7012081 106.363351,40.5953609" id="Fill-263" fill="#E95E89"></path>
                    <path d="M52,67.3428713 C52.0049161,65.1264358 52.0098322,62.9093828 52.0135193,60.6929474 C52.5708843,60.6904772 53.1276347,60.6873894 53.6843852,60.6849191 C54.775149,60.1328173 55.8652983,59.5813331 56.9548332,59.0292313 C58.1531371,58.588291 61.896147,63.5016263 60.3782953,57.6347729 C59.307196,53.4915394 57.0414798,49.660793 55.3091624,45.6904772 C55.2987157,44.5621886 55.2894979,43.4339001 55.2790512,42.3056116 L53.6641062,37.360163 C54.2079518,36.2571946 54.752412,35.1536086 55.2956431,34.0506402 L55.3613962,34 C55.915074,34.0154391 56.4693664,34.0302606 57.0242733,34.0456997 C57.4599644,34.0858413 57.8956554,34.1272181 58.3313464,34.1704475 L60.2541633,35.9558236 C60.8637621,38.502038 61.4739753,41.0476347 62.083574,43.5938491 C64.8906778,49.812096 67.6965526,56.030343 70.5024273,62.2485899 C71.0007989,63.3719379 71.4985559,64.4952859 71.9969274,65.6186339 C71.9975419,70.0854708 71.998771,74.5516901 72,79.0185269 C71.9637436,84.0109103 71.9281018,89.0032937 71.8918454,93.9956771 C70.7869477,93.9975297 69.68205,93.9987649 68.5771523,94 C67.5865544,88.1634073 66.9978492,82.2205937 65.5015056,76.5180123 C63.7482947,69.839063 59.8233884,65.4475689 52,67.3428713" id="Fill-265" fill="#E76B8C"></path>
                    <path d="M72,96 C72.0378439,90.8208319 72.0750464,85.6416637 72.1128903,80.4624956 C72.6523265,82.0039452 73.1821414,83.5492388 73.734406,85.0862037 C74.3456815,86.7897426 74.978124,88.4855934 75.6009451,90.1846475 C79.9908396,87.7424173 88.152939,85.2277915 88.1067566,82.871411 C87.9233098,73.3645238 91.416496,77.8613795 95.315061,79.7295702 C97.9711909,81.0032202 101.757507,81.3421341 100.886456,76.633217 C99.9313776,71.4655809 97.8461136,66.5068029 96.2528205,61.4570499 C96.2252393,60.3333165 96.1976581,59.2089424 96.170077,58.085209 L99.7607593,58 C103.173126,61.4551279 106.58421,64.9102558 109.995936,68.3660243 C110.097922,82.5145584 108.353253,84.9663986 96.4728283,87.5931415 C94.8115445,87.9602448 93.2079886,88.6021951 91.5941699,89.1627805 C85.0587176,91.4320301 78.5309624,93.7192184 72,96" id="Fill-267" fill="#EE789D"></path>
                    <path d="M48.0609461,93.4078646 C48.9851934,93.9460413 49.9100528,94.484218 50.8330759,95.0217775 C51.8883092,96.6825957 52.9447667,98.344031 54,100.005466 C53.5678685,101.675542 53.135737,103.345618 52.7036055,105.015694 C51.0852546,106.677129 49.4675158,108.338565 47.8491649,110 C45.6046518,109.408746 43.3601387,108.81811 41.1150136,108.226856 C40.036521,107.152354 38.9580285,106.077852 37.8789239,105.00335 C36.9767117,106.032181 36.0744994,107.061012 35.1716751,108.089843 L34.8650208,108.11885 C34.2437553,103.220332 33.6212656,98.3218127 33,93.423294 C33.3225684,89.9097161 33.6457489,86.3955211 34.0491125,82 C36.3799295,84.4822783 38.3214608,87.0059072 40.7153225,88.9660554 C42.9096447,90.7626521 45.5930222,91.9513313 48.0609461,93.4078646" id="Fill-269" fill="#D1D683"></path>
                    <path d="M78.9693785,110.260637 C78.9610852,110.831829 78.9719303,111.402376 79,111.971634 L65.2139476,112 C64.0988148,111.42494 62.983044,110.84988 61.8672733,110.274176 C61.3594668,109.709431 60.8503844,109.144686 60.3413021,108.579296 C60.2271094,107.433045 60.1135547,106.287438 60,105.141831 L60.1007958,105 C61.2408085,105.013538 62.3801833,105.027721 63.5201961,105.041905 C64.0732968,105.0303 64.6270356,105.026432 65.1807743,105.0303 C67.48249,105.616964 69.7854817,106.203629 72.0878353,106.789648 C73.2342276,107.365353 74.3806198,107.940413 75.5263741,108.516117 L75.5225464,108.510315 C76.6708525,109.093756 77.8204345,109.677841 78.9693785,110.260637" id="Fill-271" fill="#EB6F96"></path>
                    <path d="M59.6508868,105.744232 C59.7575272,106.857559 59.862976,107.971512 59.9696164,109.084838 C59.9797443,111.263876 59.9898721,113.442913 60,115.62195 C59.9594886,116.829255 59.9189771,118.037186 59.8784657,119.245743 C59.3065396,119.82966 58.7346134,120.41483 58.1632831,121 C57.5842079,120.978698 57.0063242,120.958023 56.4278447,120.937348 C53.2846341,119.246996 50.1420192,117.556645 47,115.865667 C49.0821686,115.8074 51.1649329,115.74976 53.2476972,115.691494 C53.79341,114.032468 54.3391229,112.372816 54.8854315,110.713791 C55.4603364,108.475861 56.035837,106.23793 56.6101462,104 C57.6241236,104.581411 58.6375052,105.162822 59.6508868,105.744232" id="Fill-273" fill="#E7A890"></path>
                    <path d="M57,103.693938 C56.3112063,106.129292 55.6216988,108.565328 54.9329051,111 C54.2883655,109.178257 53.6445396,107.356514 53,105.53409 C53.5039258,103.689166 54.0078515,101.844242 54.5117773,100 C55.3411849,101.231313 56.1705924,102.461944 57,103.693938" id="Fill-275" fill="#D5BE85"></path>
                    <path d="M72,106 C69.6666667,105.666911 67.3326868,105.333455 65,105 C67.3320403,105.001466 69.6647271,105.003664 71.9967673,105.005497 C71.9980604,105.336753 71.9993535,105.668743 72,106" id="Fill-277" fill="#DB5D7E"></path>
                    <path d="M72.0037051,107.01409 C72.0029641,106.343715 72.001482,105.671858 72,105.001483 C73.3338273,105.000742 74.6669137,105.000742 76,105 L75.997777,109 C74.6669137,108.337783 73.3353094,107.676307 72.0037051,107.01409" id="Fill-279" fill="#E05B7F"></path>
                    <path d="M64,104.5325 C62.6664179,104.5105 61.3335821,104.4885 60,104.4675 C61.3335821,104.4885 62.6664179,104.5105 64,104.5325" id="Fill-281" fill="#DB5D7E"></path>
                    <path d="M106,43.6673404 C105.258761,50.9595808 105.258761,50.9595808 95.9556789,48.5965731 C95.3902742,48.0467974 94.8254908,47.4964168 94.2594648,46.9460362 C93.7002734,45.8440654 93.1404606,44.7420946 92.5806478,43.6395189 C92.0543865,41.9980542 91.5275039,40.3559846 91,38.7145199 C91.0565405,37.119021 91.1124596,35.5235221 91.1683788,33.9280231 C93.3063541,32.2853488 95.4449507,30.6426744 97.5823047,29 C93.9407257,33.6250114 100.347196,34.2292204 101.013255,37.1299076 C96.3576754,38.0328947 97.2225582,40.8694716 98.7491509,43.6860896 C101.084707,47.9941786 103.579944,45.0445015 106,43.6673404" id="Fill-283" fill="#ED7596"></path>
                    <path d="M106,43.6793693 C103.713624,45.0864304 101.356221,48.100149 99.1496772,43.6985256 C97.7074113,40.8207549 96.8903034,37.9225921 101.288715,37 C102.849556,38.1240423 104.410396,39.2474666 105.971824,40.3708909 C105.981216,41.473923 105.990608,42.5763372 106,43.6793693" id="Fill-285" fill="#F2879F"></path>
                    <path d="M97.0984656,128 C96.5223511,127.958139 95.9449076,127.920083 95.3681285,127.885199 C95.2451975,123.425729 95.1222665,118.966258 95,114.506153 C95.0544883,112.547564 95.0910354,110.587705 95.1667875,108.62975 C95.4332488,101.72331 95.4379002,101.723945 102.33134,105.650638 C96.7117313,106.686382 99.2753413,110.792571 98.9690105,113.821789 C101.284765,113.400007 103.599191,112.978225 105.914945,112.556443 L106,114.544843 C103.033708,119.029684 100.066087,123.515159 97.0984656,128" id="Fill-287" fill="#B8AE6F"></path>
                    <path d="M106.54936,110.761254 C104.46341,111.17417 102.377459,111.587085 100.291509,112 C100.56752,109.034461 98.2570488,105.014592 103.320448,104 C106.16019,104.468178 108.998735,104.936355 113,105.596399 C110.147684,107.880161 108.348522,109.320708 106.54936,110.761254" id="Fill-289" fill="#AEB860"></path>
                    <path d="M91,33.2888515 C90.9462558,34.9519807 90.8925116,36.6151098 90.8381703,38.2782389 C90.3102831,38.8519491 89.7812015,39.4256593 89.2521199,40 C88.6776544,38.8891457 88.1025917,37.7782915 87.5281261,36.6668068 C87.0181536,33.8039298 86.5087782,30.9404224 86,28.0775454 L89.3942434,28 C89.8450973,28.1109593 90.2852024,28.2584848 90.7139615,28.4438373 C90.8095067,30.0584218 90.905052,31.6736367 91,33.2888515" id="Fill-291" fill="#D14F6A"></path>
                    <path d="M44.2321712,123.174363 C48.1633702,125.731835 51.9506451,128.565308 56.0615919,130.776504 C61.3930644,133.645115 66.9331953,136.136783 72.5053791,138.493006 C73.5185035,138.920422 75.7113017,138.374811 76.3467041,137.509117 C81.0415172,131.115754 85.4805353,124.526891 90,118 C89.9905727,121.444251 89.9811453,124.888502 89.9710895,128.332753 C86.3315095,131.76167 82.7554069,135.265338 79.0378942,138.60545 C72.3928796,144.576507 65.7371807,144.022591 57.8842101,139.584228 C54.253429,137.532117 48.7283818,138.947895 44.0624792,138.791367 C43.4962106,138.195283 42.9293135,137.5992 42.3617879,137.003116 C41.2411919,133.558865 40.120596,130.114614 39,126.670364 C39.0854745,126.097919 39.170949,125.526113 39.2564235,124.953669 C40.9150061,124.36078 42.5735887,123.76789 44.2321712,123.174363" id="Fill-293" fill="#DE5078"></path>
                    <path d="M48,93.983656 C45.3943202,92.4407802 42.5611604,91.1816366 40.2443543,89.2785385 C37.7168707,87.2021937 35.6669659,84.5289652 33.206046,81.8995387 C32.7801673,86.5556242 32.4389473,90.278139 32.0983736,94 C31.4204574,92.7120909 30.7425412,91.4241819 30.0652712,90.1362728 C30.0432987,87.9860531 30.0219725,85.8358334 30,83.6856136 C31.2834524,81.1235245 32.5662586,78.5620891 33.849711,76 L33.849711,76.2033197 C34.4209959,77.3813969 34.9935734,78.5594741 35.5661509,79.7375513 L35.5215596,79.6793666 C35.9584246,80.2958631 36.3946433,80.9136672 36.830862,81.5308176 C40.553908,85.6815458 44.2763078,89.8329278 48,93.983656" id="Fill-295" fill="#B0AC65"></path>
                    <path d="M33,67.987049 C34.524824,66.6580327 36.050962,65.3290163 37.576443,64 C38.3838573,65.3333333 39.1925856,66.6666667 40,68 C37.6671046,67.995683 35.3335523,67.991366 33,67.987049" id="Fill-297" fill="#F49BAE"></path>
                    <path d="M35,81 C34.6664157,79.6666667 34.3332078,78.3333333 34,77 C34.3332078,78.3333333 34.6664157,79.6666667 35,81" id="Fill-299" fill="#A9A060"></path>
                    <path d="M38,82 C37.6666667,81.6666667 37.3333333,81.3333333 37,81 C37.3333333,81.3333333 37.6666667,81.6666667 38,82" id="Fill-301" fill="#A9A060"></path>
                    <path d="M53,60.9915655 C52.4627928,60.9941607 51.9255855,60.996756 51.3877854,61 C46.5920546,60.4141255 41.7957308,59.8288998 37,59.2430253 C37.8823006,54.2712022 41.4209902,54.1330058 44.9620516,54 L48.163949,55.7504866 C49.7761637,57.4970804 51.3877854,59.2443229 53,60.9915655" id="Fill-303" fill="#F0789D"></path>
                    <path d="M47.3595685,57 L44.2322062,55.2374242 C43.1548041,54.1235651 42.0774021,53.009706 41,51.8958469 C41.5537615,51.2641157 42.1081022,50.6317312 42.662443,50 C43.191876,50.0032664 43.7207299,50.0058796 44.2501629,50.0084928 C45.8332489,52.3315912 47.4169141,54.6540364 49,56.9764816 C48.4531895,56.984321 47.906379,56.9921605 47.3595685,57" id="Fill-305" fill="#D05E7C"></path>
                    <path d="M53,115.337139 C50.9351028,115.391917 48.8702056,115.446695 46.8058991,115.500884 C41.7795046,114.806443 40.9242497,118.356984 40.1593636,122 C39.1062424,120.391419 38.0531212,118.782837 37,117.173667 C37.0685149,116.084591 37.1376204,114.995514 37.2055447,113.905849 C38.2273617,113.397535 39.4872088,113.105976 40.2072059,112.321417 C41.0081214,111.447918 41.3182103,110.126184 41.8409317,109 C44.00742,109.56427 46.1733176,110.127951 48.3392152,110.692221 C49.8926132,112.240723 51.4466019,113.788637 53,115.337139" id="Fill-307" fill="#D5A577"></path>
                    <path d="M40,122.560049 C40.7641566,118.378427 41.6185958,114.30295 46.6401964,115.100738 C49.7522906,116.924831 52.8655649,118.748925 55.9782492,120.573694 C56.0095235,121.161893 56.0071632,121.750092 55.9705781,122.337615 C53.9719693,121.825138 51.9019605,120.694714 49.9936342,120.979349 C48.2045046,121.247081 46.5859088,123.011678 44.8923726,124.117087 C43.3351453,124.744499 41.777918,125.372588 40.2206908,126 C40.1469305,124.854026 40.0731702,123.706699 40,122.560049" id="Fill-309" fill="#E25E7C"></path>
                    <path d="M32,90 C32.6768933,91.1851208 33.3544324,92.3702416 34.0319716,93.555964 C34.6875505,98.330136 35.3444211,103.105511 36,107.879683 C35.4186985,107.919989 34.8373971,107.960295 34.2548038,108 C34.0616825,106.890077 33.8685613,105.780154 33.6747941,104.66963 C33.3124495,103.657765 32.950105,102.645299 32.5871145,101.632833 C32.3914097,97.7550216 32.1957048,93.8778116 32,90" id="Fill-311" fill="#A9A060"></path>
                    <path d="M34,108.157671 C34.7116904,108.11554 35.4233807,108.072133 36.1342812,108.030002 L36.5300158,108 C36.9849921,109.210299 37.4391785,110.420597 37.8949447,111.630257 C37.9304897,112.240514 37.9652449,112.849493 38,113.458472 C37.9091627,114.638769 37.8175355,115.819065 37.7259084,117 L34,108.157671 Z" id="Fill-313" fill="#C07B62"></path>
                    <path d="M32,102 C32.3337292,103.333597 32.6668646,104.666403 33,106 C32.6668646,104.666403 32.3337292,103.333597 32,102" id="Fill-315" fill="#C07B62"></path>
                    <path d="M53.3740978,37.1832988 L55,41.9259698 C54.4567952,41.9538052 53.9135904,41.9751259 53.369767,41.9899319 C52.2660342,41.9934853 51.1623015,41.9964466 50.0585688,42 C48.541555,35.8152206 48.5335121,35.8134439 41.6964323,40.37252 C41.1340483,40.3808114 40.5722829,40.389695 40.0092803,40.3985786 L40,40.3968019 C40.5580532,38.264732 41.1167251,36.1326621 41.6747783,34 L51.6999381,35.5937222 L51.7085997,35.5919455 C52.2635595,36.1220018 52.819138,36.6526503 53.3740978,37.1832988" id="Fill-317" fill="#F17E9C"></path>
                    <path d="M52,36 L41,34.3423306 C45.9365589,27.9500469 48.9655641,31.9891916 52,36" id="Fill-319" fill="#EF6795"></path>
                    <path d="M55.7273259,34 C55.1515506,33.9838203 54.575137,33.9682877 54,33.952108 C54.0006383,32.2292899 54.0012767,30.5071191 54.001915,28.7836538 C58.0010639,28.189534 62.0002128,27.594767 66,27.0006472 L65.9987233,27 C65.990425,27.5915311 65.9821267,28.1830621 65.9744667,28.7745932 C63.580084,28.7804179 61.185063,28.7862426 58.790042,28.7914201 C58.1134103,29.4767936 57.4374169,30.1621672 56.7607851,30.8475407 C56.416086,31.897929 56.0720251,32.9489645 55.7273259,34" id="Fill-321" fill="#DC5A79"></path>
                    <path d="M54.0138395,38 C53.3428091,37.3312185 52.6710305,36.662437 52,35.9944019 C53.333084,35.3293525 54.666916,34.6650494 56,34 C55.3386946,35.3330845 54.675893,36.6669155 54.0138395,38" id="Fill-323" fill="#EB6B8F"></path>
                    <path d="M50.3022566,41.7096147 C51.433843,41.7058819 52.5654294,41.7027712 53.69765,41.6990384 L55.3994697,45.0417457 C57.1875537,49.0420449 59.5262078,52.9011205 60.631788,57.0749941 C62.1985023,62.985234 58.3349975,58.0355636 57.0987521,58.4791427 L57.1076323,58.4778984 C56.5393019,57.9161146 55.9716058,57.3537086 55.4026411,56.7919247 L55.4039097,56.793169 C54.830505,56.2351179 54.2558316,55.6770669 53.6824269,55.1190158 C52.5698694,55.1127945 51.4579463,55.105951 50.3453888,55.0997297 C48.6118543,52.8880558 46.8783198,50.6757596 45.144151,48.4640857 C43.4296455,45.6520557 41.7145056,42.8394037 40,40.0273737 C40.5765762,40.0180418 41.1525182,40.009332 41.7290944,40 L41.7329002,40.009332 C42.3018649,40.5648945 42.8701952,41.1204571 43.4391599,41.6760196 L43.4448686,41.6791303 C45.7061384,45.8828662 47.9800942,47.574439 50.2914736,41.7121032 L50.3022566,41.7096147 Z" id="Fill-325" fill="#EB6B8F"></path>
                    <path d="M61,24 C62.3330909,24.3334614 63.6669091,24.6665386 65,25 C63.6669091,24.6665386 62.3330909,24.3334614 61,24" id="Fill-327" fill="#DC5A79"></path>
                    <path d="M67,25.0019452 C67.3273788,24.9989803 67.6551221,24.9993509 67.9825009,25.0034276 C67.9876048,25.3295651 67.9938024,25.6560732 68,25.9825813 L67.0003646,25.9996294 L67.0010937,26 C67.0007291,25.6671915 67.0007291,25.3347537 67,25.0019452" id="Fill-329" fill="#DC5A79"></path>
                    <path d="M66.0237858,27.0289846 L67.7401182,27 C68.8417758,27.0333015 69.9434334,27.0666029 71.0444651,27.0999044 C71.6272169,27.6240942 72.2099687,28.1476674 72.7920946,28.6718572 L76.1483946,28.7242762 L76.122105,28.6965249 C76.6898342,29.2231815 77.2575635,29.7492214 77.8252927,30.275878 C80.6320158,32.5274275 83.4387388,34.7789769 86.2460879,37.0305263 C86.8488698,38.117141 87.4510258,39.2037557 88.0531819,40.2903703 C89.138565,41.4035028 90.2233221,42.5160186 91.3087052,43.6285344 C91.8720529,44.7521507 92.4360264,45.8763837 93,47 C90.9700707,46.389473 88.4781964,46.3142364 86.9934624,45.0709815 C82.0622928,40.9422158 77.4935435,36.3928649 72.7858352,32.0050877 C70.5249333,30.908606 68.2646575,29.8121242 66.0037557,28.7156424 L66,28.720576 C66.0081372,28.1569178 66.0156485,27.5926428 66.0237858,27.0289846" id="Fill-331" fill="#E56084"></path>
                    <path d="M76,29 L72.8183976,28.9476601 C72.2658754,28.4242611 71.7133531,27.9014778 71.1608309,27.3780788 C70.1169139,27.3448276 69.0724036,27.3115764 68.0278932,27.2783251 C68.0178042,26.7364532 68.0077151,26.1939655 68,25.6520936 L69.5750742,24 C71.7163205,25.6668719 73.8587537,27.3331281 76,29" id="Fill-333" fill="#CF4F70"></path>
                    <path d="M79,29 C78.6667891,28.6666667 78.3335783,28.3333333 78,28 C78.3335783,28.3333333 78.6667891,28.6666667 79,29" id="Fill-335" fill="#CF4F70"></path>
                    <path d="M65.0073648,112.026702 L78.2828584,112 C81.18382,116.239506 80.3857791,122.36634 76.0656685,126.290887 C74.3418018,127.857186 72.0220154,128.782644 69.9737719,130 C69.6223635,123.657126 61.1418733,119.508041 65.0073648,112.026702" id="Fill-337" fill="#EA608C"></path>
                    <path d="M65.1528066,112.646169 C61.3801024,120.227032 69.6570269,124.431312 70,130.858566 C63.3923712,131.890419 60.2978184,127.086582 57,122.620957 C57.0371754,122.086582 57.0395738,121.550978 57.0077948,121.015988 C57.5900097,121.036896 58.1716249,121.057188 58.7544394,121.077481 C59.5447166,121.317304 60.3349938,121.556512 61.125271,121.796335 C60.910613,120.983397 60.6953554,120.169229 60.4806974,119.355676 C60.5214704,118.169475 60.5622434,116.984504 60.6030165,115.798918 C61.0707071,114.198868 61.5395969,112.599434 62.0072875,111 C63.0559937,111.549133 64.1047,112.097036 65.1528066,112.646169" id="Fill-339" fill="#E9688F"></path>
                    <path d="M79,110 C77.6666667,109.667035 76.332593,109.333333 75,109 C76.332593,109.333333 77.6666667,109.667035 79,110" id="Fill-341" fill="#E05B7F"></path>
                    <path d="M74.7456092,32 C79.4260821,36.3765224 83.9683999,40.9142042 88.8710413,45.0323795 C90.3471857,46.2730606 92.8246439,46.3474891 94.8428295,46.9564501 C95.4091412,47.5162021 95.9748306,48.0753389 96.5411423,48.6350909 C97.6943023,51.3957139 98.8474623,54.156952 100,56.917575 L96.5156272,57 L96.5815931,56.7963979 C96.0159037,56.2932362 95.449592,55.7906897 94.8832803,55.287528 C92.6920896,54.1366533 90.5008989,52.9863937 88.3097082,51.835519 L88.2263172,51.8016879 C87.703568,51.3458898 87.1801964,50.8907069 86.6574471,50.4349088 C86.5068455,49.9698841 86.4085189,49.4950176 86.3618448,49.0090791 C81.9078966,43.3635804 77.4545706,37.7174667 73,32.0719681 C73.5818697,32.0479787 74.1637395,32.0239894 74.7456092,32" id="Fill-343" fill="#D45A71"></path>
                    <path d="M95.3875192,62.1635771 C96.9309464,67.056788 98.950947,71.8618442 99.8767548,76.868663 C100.719923,81.4322248 97.0527305,81.1031964 94.4791092,79.8696503 C90.7025592,78.0587525 87.3193222,73.7012991 87.4970276,82.9134734 C87.5411432,85.1968063 79.6344965,87.6340996 75.3826157,90 C74.7786659,88.3542372 74.1666387,86.7109577 73.5744945,85.0602284 C73.038893,83.5702885 72.52566,82.0728989 72.0031067,80.5792342 C72.001864,76.0895486 72.0006213,71.5992423 72,67.1095567 C78.8801807,61.1317937 87.195674,61.9407069 95.3875192,62.1635771" id="Fill-345" fill="#F183A6"></path>
                    <path d="M96,60.2108111 C87.8044608,59.995006 79.4852177,59.2117359 72.6019345,65 C72.0984161,63.9059465 71.5942761,62.8130953 71.0907576,61.719643 C71.0609195,60.6802922 71.0304598,59.6409415 71,58.6021918 C76.3087003,57.145658 81.6323197,55.7360122 86.8999925,54.1532415 C87.3606186,54.014982 87.4575926,52.7447979 87.7230276,52 C89.9117786,53.1241099 92.1005296,54.2488209 94.2892807,55.3735319 C94.8543402,55.8652548 95.4200214,56.3563766 95.9857026,56.8480995 L95.91981,57.0464718 C95.94654,58.101452 95.97327,59.1564321 96,60.2108111" id="Fill-347" fill="#EAA5A0"></path>
                    <path d="M61.0104128,43.8598223 C60.3407252,41.30716 59.6703626,38.7544978 59,36.2024547 L59.4766123,36 C62.9742444,39.8813096 66.4725517,43.7626193 69.9701838,47.6433098 C70.0086638,48.1769976 70.010014,48.7100663 69.9735592,49.243135 C69.3416767,50.4956297 68.7084439,51.7475053 68.0765613,53 C65.7211785,49.9532741 63.3657956,46.9065482 61.0104128,43.8598223" id="Fill-349" fill="#C2BB7B"></path>
                    <path d="M63,44 C65.0373723,46.9323667 67.0747445,49.8647333 69.1121168,52.7971 C69.7129927,54.8344423 70.3138686,56.8723806 70.9153285,58.9097229 C70.9439416,59.9400139 70.9719708,60.969709 71,62 C68.3337226,56 65.6668613,50 63,44" id="Fill-351" fill="#C76C6F"></path>
                    <path d="M59,31.9961404 C59.6456853,31.3307603 60.2907614,30.6653801 60.9364467,30 C62.2905584,31.0323131 63.6452792,32.0639978 65,33.0956826 L61.6448731,36.795171 L61.2154315,37 L59.3094416,35.1835562 C59.2064975,34.1210843 59.1029442,33.0586123 59,31.9961404" id="Fill-353" fill="#A59A5F"></path>
                    <path d="M49.6790929,55 C50.7190395,55.0061622 51.7583932,55.0129406 52.7983399,55.0191028 C53.3343215,55.5718511 53.870896,56.1245995 54.4074705,56.6773478 L54.4062847,56.6761154 C54.9375232,57.2331772 55.4687616,57.7896229 56,58.3460685 L55.9911065,58.347301 C54.9398948,58.8982006 53.8880901,59.4491003 52.8356926,60 C51.2235974,58.3405226 49.6120952,56.6810451 48,55.0221839 C48.5596976,55.014173 49.1193952,55.0073946 49.6790929,55" id="Fill-355" fill="#D76886"></path>
                    <path d="M54,45 L53,41.0788177 C53.3274963,41.0605729 53.65462,41.0343003 53.9817437,41 C53.9880775,42.3333333 53.9936662,43.6666667 54,45" id="Fill-357" fill="#EC698E"></path>
                    <path d="M57.761166,31 C57.8406206,32.3333333 57.9205454,33.6666667 58,35 C57.6666667,34.9448058 57.3333333,34.8919771 57,34.8407254 C57.2538787,33.5610093 57.5072873,32.2805046 57.761166,31" id="Fill-359" fill="#D7707E"></path>
                    <path d="M53.1914474,116 C51.4611842,114.18826 49.7302632,112.377208 48,110.565468 C49.7394737,108.711001 51.4782895,106.855156 53.2177632,105 C53.8118421,106.842062 54.4059211,108.683436 55,110.524809 C54.3967105,112.349643 53.7940789,114.175166 53.1914474,116" id="Fill-361" fill="#E2C88F"></path>
                    <path d="M36.0839283,113 C36.0557435,112.436836 36.0281849,111.873672 36,111.309917 C36.5630715,109.206612 37.1255167,107.103896 37.6885883,105 C38.7921834,106.027745 39.8957785,107.05549 41,108.083235 C40.4450708,109.211924 40.116247,110.5366 39.2669423,111.412043 C38.5034448,112.198347 37.1674809,112.490555 36.0839283,113" id="Fill-363" fill="#D5BE85"></path>
                    <path d="M38,105 C37.5939408,107.333552 37.1874293,109.667103 36.7813701,112 C36.5209134,110.758888 36.2604567,109.517122 36,108.275356 C36.6669681,107.18357 37.3330319,106.091785 38,105" id="Fill-365" fill="#D5CC90"></path>
                    <path d="M62,110.764424 C61.6740493,112.509392 61.3472628,114.254361 61.0213122,116 C61.014626,113.666667 61.0071041,111.333333 61,109 C61.3334726,109.588365 61.6669453,110.176059 62,110.764424" id="Fill-367" fill="#DD5E7B"></path>
                    <path d="M60.4562468,118 C60.6373293,118.666667 60.8189176,119.333333 61,120 C60.3333333,119.803477 59.6666667,119.606954 59,119.410935 C59.4850784,118.940287 59.9706626,118.470144 60.4562468,118" id="Fill-369" fill="#EB6F96"></path>
                    <path d="M93,44 C91.6669231,42.8924361 90.3330769,41.7848723 89,40.6773084 C89.6815385,40.118001 90.3623077,39.5593075 91.0430769,39 C91.6961538,40.6668713 92.3476923,42.3337426 93,44" id="Fill-371" fill="#D45A71"></path>
                    <path d="M41,41.3260617 C47.5409885,36.6436574 47.548683,36.6454821 49,42.997567 L48.9899379,43 C46.8597218,42.9890513 44.7306896,42.9781026 42.6010654,42.9677621 L42.5951465,42.9647208 C42.0648121,42.4215424 41.5338858,41.878364 41.0035513,41.3351857 L41,41.3260617 Z" id="Fill-373" fill="#F38AA4"></path>
                    <path d="M64.0914332,32.157799 C62.7274177,31.1117781 61.3640155,30.0663938 60,29.0210095 C62.3011628,29.0152797 64.6023257,29.0101864 66.9028752,29.0044566 L66.9065551,29 L71.8314852,32.469759 C76.2209901,38.3129604 80.6104951,44.1567985 85,50 C84.0260537,49.7224193 83.051494,49.4448386 82.0775477,49.1672578 C80.3792748,47.5737153 78.6797753,45.9801728 76.9815024,44.3866303 L76.899318,44.3070487 C76.3896521,43.7525239 75.8793729,43.1986357 75.3697071,42.644111 C72.5527452,39.8135516 69.7363966,36.9836289 66.9194348,34.1530696 C66.3048918,33.6450205 65.6897355,33.137608 65.0751926,32.6301955 C64.7740543,32.4124602 64.44593,32.2552069 64.0914332,32.157799" id="Fill-375" fill="#C2525C"></path>
                    <path d="M42,42 C44.3333333,42.0117296 46.6660182,42.0228076 49,42.0345372 C46.6361868,48.1756422 44.311284,46.4031671 42,42" id="Fill-377" fill="#F17E9C"></path>
                    <path d="M41,40 C41.3332094,40.333209 41.6667906,40.666791 42,41 C41.6667906,40.666791 41.3332094,40.333209 41,40" id="Fill-379" fill="#F17E9C"></path>
                    <path d="M54,57 C53.6669123,56.6666667 53.3330877,56.3333333 53,56 C53.3330877,56.3333333 53.6669123,56.6666667 54,57" id="Fill-381" fill="#E76B8C"></path>
                    <path d="M56,59 C55.6666667,58.6667897 55.3333333,58.3332103 55,58 C55.3333333,58.3332103 55.6666667,58.6667897 56,59" id="Fill-383" fill="#E76B8C"></path>
                    <path d="M71.1878173,32 L66,28 C68.3335487,29.3047147 70.6664513,30.6094295 73,31.9141442 C72.3959391,31.9427628 71.7918782,31.9713814 71.1878173,32" id="Fill-385" fill="#DC5A79"></path>
                    <path d="M72,27 C72.3336914,27.3334641 72.6666667,27.6669282 73,28 C72.6666667,27.6669282 72.3336914,27.3334641 72,27" id="Fill-387" fill="#DC5A79"></path>
                    <path d="M81.9981661,48 C83.0042347,48.2840223 84.010937,48.5680445 85.0170057,48.8520668 C85.0645215,49.3666943 85.1646215,49.8702475 85.3173058,50.3620751 C85.8501167,50.8447827 86.3829276,51.3268388 86.915105,51.8095464 L87,51.8453749 C86.7294765,52.6524932 86.6306435,54.0296103 86.1611871,54.1794386 C80.7925308,55.893995 75.3668556,57.4222433 69.9563855,59 C69.3044682,56.7727703 68.6525509,54.5448893 68,52.3176596 C68.5936312,50.9998223 69.1872624,49.6826365 69.7808936,48.3654507 L69.8189063,48.4260334 C70.3681894,49.0077579 70.9168389,49.5894824 71.4654885,50.1712069 L71.4857619,50.1887955 C75.6411804,52.7671444 79.5672558,54.1839986 81.9981661,48" id="Fill-389" fill="#DBBD99"></path>
                    <path d="M87,52 C86.6667989,51.6665167 86.3332011,51.3334833 86,51 C86.3332011,51.3334833 86.6667989,51.6665167 87,52" id="Fill-391" fill="#EAA5A0"></path>
                    <path d="M97,57 C96.666911,56.6665308 96.3334555,56.3334692 96,56 C96.3334555,56.3334692 96.666911,56.6665308 97,57" id="Fill-393" fill="#DC5C7D"></path>
                    <path d="M66.7617088,34 C69.7652457,36.7927055 72.7681287,39.5847829 75.7710116,42.3774883 C76.3144341,42.9245973 76.8585104,43.4710782 77.4019328,44.0181871 L77.4895605,44.0967045 C78.8007061,48.6557365 77.7877562,51.5125122 72.0729926,50.9233179 L72.0520666,50.9069863 C71.4857564,50.3460583 70.9187922,49.7851303 70.352482,49.2235741 L70.3132457,49.1651572 C70.3479044,48.6243296 70.3465965,48.0828739 70.309976,47.5420463 C68.539766,43.0395467 66.77021,38.536419 65,34.0339195 C65.5872363,34.0402009 66.1751265,34.0288944 66.7617088,34" id="Fill-395" fill="#ADBC67"></path>
                    <path d="M66.254101,33.9365812 C68.1696365,38.2908517 70.0844645,42.6457296 72,47 C68.3330975,43.1924432 64.6669025,39.3842789 61,35.5761147 L64.8975876,32 C65.3065938,32.0929413 65.6851721,32.2429838 66.0333226,32.450735 C66.118945,32.9445997 66.1918302,33.4402867 66.254101,33.9365812" id="Fill-397" fill="#BCC178"></path>
                    <path d="M72,50.8679955 C77.7933466,51.460075 78.8202254,48.5868782 77.4910504,44 C79.327367,45.5816168 81.1636835,47.1632336 83,48.7448503 C80.456337,54.7433674 76.3481589,53.36901 72,50.8679955" id="Fill-399" fill="#C2BB7B"></path>
                    <path d="M65.1037924,33.9988733 C65.0745176,33.6652349 65.0402528,33.3320049 65,33 C65.3330007,33.325471 65.6666667,33.650942 66,33.9768213 C65.7015968,33.9960147 65.4025283,34.002957 65.1037924,33.9988733" id="Fill-401" fill="#A59A5F"></path>
                    <path d="M76,44 C75.6668003,43.6665391 75.3331997,43.3334609 75,43 C75.3331997,43.3334609 75.6668003,43.6665391 76,44" id="Fill-403" fill="#C2BB7B"></path>
                    <path d="M71,49 C71.3332051,49.3335821 71.6664102,49.666791 72,50 C71.6664102,49.666791 71.3332051,49.3335821 71,49" id="Fill-405" fill="#C2BB7B"></path>
                </g>
            </g>
        </g>
    </g>
</svg>