<?xml version="1.0" encoding="UTF-8"?>
<svg width="146px" height="85px" viewBox="0 0 146 85" version="1.1" xmlns="http://www.w3.org/2000/svg" xmlns:xlink="http://www.w3.org/1999/xlink">
    <title>Drone Icon Copy</title>
    <g id="Page-1" stroke="none" stroke-width="1" fill="none" fill-rule="evenodd" fill-opacity="0.199573864">
        <g id="2020-copy-5" transform="translate(-428.000000, -23461.000000)" fill="#1F2937">
            <g id="Group-28" transform="translate(90.000000, 23459.000000)">
                <path d="M467.404853,30.8390606 C465.137675,30.8390606 462.568206,29.5890606 460.450662,28.3390606 C462.41555,27.0890606 465.137675,25.8390606 467.404853,25.8390606 C471.334629,25.8390606 473.450662,26.6203106 473.450662,28.1828106 C473.450662,30.0578106 471.484263,30.8390606 467.404853,30.8390606 M442.146404,30.9151417 C438.215715,30.9151417 436.099189,30.1086901 436.099189,28.4957868 C436.099189,26.7215933 438.063022,25.9151417 442.146404,25.9151417 C444.41411,25.9151417 446.984176,27.2054643 449.099189,28.4957868 C446.984176,29.6248191 444.41411,30.9151417 442.146404,30.9151417 M467.612142,20.0105747 C462.412142,20.0105747 457.537142,22.9034319 454.612142,24.8320033 C451.849642,22.9034319 446.810517,19.8498604 441.612142,19.8498604 C429.912142,19.8498604 428.612142,26.1177176 428.612142,28.8498604 C428.612142,32.2248604 430.237142,37.6891462 441.612142,37.6891462 C446.810517,37.6891462 451.685517,34.796289 454.612142,32.8677176 C457.373017,34.796289 462.412142,37.8498604 467.612142,37.8498604 C479.310517,37.8498604 480.612142,31.5820033 480.612142,28.8498604 C480.612142,25.6355747 478.987142,20.0105747 467.612142,20.0105747 M343.468724,31.8394163 C339.538492,31.8394163 337.422213,31.0329647 337.422213,29.4200615 C337.422213,27.6458679 339.387329,26.8394163 343.468724,26.8394163 C345.736166,26.8394163 348.304422,28.1297389 350.422213,29.4200615 C348.304422,30.5490937 345.736166,31.8394163 343.468724,31.8394163 M369.99826,26.1433848 C373.928493,26.1433848 376.044772,26.9498364 376.044772,28.5627397 C376.044772,30.3369332 374.078144,31.1433848 369.99826,31.1433848 C367.730819,31.1433848 365.161051,29.8530623 363.044772,28.5627397 C365.161051,27.4337074 367.730819,26.1433848 369.99826,26.1433848 M369.260733,37.8286165 L369.260733,37.8286165 C380.959108,37.8286165 382.260733,31.5607594 382.260733,28.8286165 C382.260733,25.4536165 380.635733,19.9893308 369.260733,19.9893308 C364.060733,19.9893308 359.185733,22.8821879 356.260733,24.8107594 C353.498233,22.8821879 348.459108,19.8286165 343.260733,19.8286165 C331.560733,19.8286165 330.260733,26.0964736 330.260733,28.8286165 C330.260733,32.2036165 331.885733,37.6679022 343.260733,37.6679022 C348.459108,37.6679022 353.334108,34.7750451 356.260733,32.8464736 C359.021608,34.9357594 363.896608,37.8286165 369.260733,37.8286165 M405.564519,67.7853852 C397.566152,67.7853852 397.566152,65.742832 397.566152,64.0407044 C397.566152,62.3385767 397.566152,59.7853852 405.564519,59.7853852 C413.566152,59.7853852 413.566152,62.3385767 413.566152,64.0407044 C413.566152,65.742832 413.566152,67.7853852 405.564519,67.7853852 M447.977235,40.7120086 C446.216041,40.7120086 444.775064,42.1545173 444.775064,43.9175835 L444.775064,45.5203709 L431.486054,45.5203709 C427.641848,34.4611375 413.874114,34.4611375 405.226651,34.4611375 C396.582391,34.4611375 382.811455,34.4611375 378.97045,45.5203709 L365.681441,45.5203709 L365.681441,43.9175835 C365.681441,42.1545173 364.240464,40.7120086 362.47927,40.7120086 L349.830695,40.7120086 C348.069501,40.7120086 346.628524,42.1545173 346.628524,43.9175835 C346.628524,46.0012072 346.628524,56.5796044 351.111563,61.0674093 C352.55254,62.509918 354.313734,63.3113117 356.235037,63.3113117 C358.156339,63.3113117 359.917533,62.509918 361.35851,61.0674093 C363.439921,58.9837856 364.560681,55.2973744 365.199514,52.0917995 L378.169908,52.0917995 L378.169908,52.5726357 C378.169908,58.1823918 379.770993,62.8304755 382.973164,66.5168866 L377.369365,75.3322176 C376.407113,76.7747263 376.889039,78.85835 378.330016,79.8200225 C378.808741,80.14058 379.450776,80.3008587 380.09121,80.3008587 C381.210369,80.3008587 382.172621,79.8200225 382.811455,78.85835 L387.936529,71.0046915 C392.417967,73.8897089 398.503693,75.4924964 405.708578,75.4924964 C412.753354,75.4924964 418.67737,73.8897089 423.16041,71.1649702 L428.122174,79.0186288 C428.764209,79.9803012 429.723259,80.4611375 430.844019,80.4611375 C431.486054,80.4611375 431.96638,80.3008587 432.606814,79.9803012 C434.04619,79.0186288 434.526516,77.0952838 433.567465,75.4924964 L428.122174,66.9977228 C431.324345,63.3113117 433.08714,58.5029493 433.08714,52.8931932 L433.08714,52.412357 L446.054331,52.412357 C446.696366,55.7782106 447.817126,59.304343 449.898537,61.3879667 C451.337913,62.8304755 453.100708,63.6318692 455.022011,63.6318692 C456.941712,63.6318692 458.704507,62.8304755 460.143883,61.3879667 C464.628524,56.9001619 464.628524,46.3217647 464.628524,44.238141 C463.827981,42.1545173 462.387004,40.7120086 460.62581,40.7120086 L447.977235,40.7120086 Z" id="Drone-Icon-Copy" transform="translate(405.436437, 50.144877) rotate(-344.000000) translate(-405.436437, -50.144877) "></path>
            </g>
        </g>
    </g>
</svg>