<?xml version="1.0" encoding="UTF-8"?>
<svg width="427px" height="396px" viewBox="0 0 427 396" version="1.1" xmlns="http://www.w3.org/2000/svg" xmlns:xlink="http://www.w3.org/1999/xlink">
    <title>spread copy 5</title>
    <g id="Page-1" stroke="none" stroke-width="1" fill="none" fill-rule="evenodd">
        <g id="2020-copy-5" transform="translate(-126.000000, -18681.000000)" fill-rule="nonzero">
            <g id="Duolingo-Copy-3" transform="translate(90.000000, 18595.000000)">
                <g id="Group-54" transform="translate(36.000000, 86.000000)">
                    <g id="spread-copy-5" transform="translate(213.500000, 198.000000) rotate(-30.000000) translate(-213.500000, -198.000000) translate(43.000000, 68.000000)">
                        <g id="feet" transform="translate(51.000000, 218.000000)" fill="#F49000">
                            <path d="M3.69044944,4.34903226 L3.69044944,4.34903226 C6.0875483,1.76571592 9.42403508,0.248170888 12.9529816,0.136124901 C16.4819281,0.0240789136 19.9085867,1.32689038 22.4658427,3.75290323 L37.8831461,18.1277419 C43.2330164,23.1335797 43.4977971,31.5135091 38.4745502,36.8448384 C33.4513033,42.1761676 25.0422303,42.4400309 19.6923596,37.4341935 L4.28865169,23.0322581 C-1.01731461,18.0104638 -1.28396965,9.67013762 3.69044944,4.32193548" id="left_foot"></path>
                            <path d="M236.309551,4.34903226 C241.28397,9.6972344 241.017315,18.0375606 235.711348,23.0593548 L220.30764,37.4341935 C214.95777,42.4400309 206.548697,42.1761675 201.52545,36.8448383 C196.502203,31.5135091 196.766984,23.1335797 202.116854,18.1277419 L217.534157,3.75290323 C220.091413,1.32689038 223.518072,0.0240789136 227.047018,0.136124901 C230.575965,0.248170888 233.912452,1.76571592 236.309551,4.34903226 L236.309551,4.34903226" id="right_foot"></path>
                        </g>
                        <g id="wings" transform="translate(0.000000, 65.000000)" fill="#58CC02">
                            <path d="M15.6191667,0.737027027 L165.9675,38.2162162 C169.795242,39.1418909 172.936571,41.8733855 174.392381,45.5419433 C175.848192,49.2105012 175.437258,53.3594425 173.290278,56.6691892 C152.111389,90.5860811 110.978611,107.251081 71.2069444,97.3285135 C31.9525263,87.7176047 3.34430866,53.8387005 0.361111111,13.4302703 C0.110836064,9.51117883 1.74433547,5.70832637 4.75624106,3.1982306 C7.76814665,0.688134832 11.7953575,-0.226599117 15.5919444,0.737027027" id="left_wing"></path>
                            <path d="M325.380833,0.737027027 C329.181251,-0.237029858 333.217008,0.672821854 336.23594,3.18428472 C339.254872,5.69574758 340.891819,9.50504299 340.638889,13.4302703 C337.670173,53.824391 309.093213,87.7043297 269.861111,97.3421622 C230.089444,107.26473 188.956667,90.5997297 167.777778,56.6828378 C165.624416,53.3818019 165.201493,49.2385086 166.643288,45.568473 C168.085083,41.8984373 171.212474,39.1576099 175.0325,38.2162162 L325.380833,0.737027027" id="right_wing"></path>
                        </g>
                        <path d="M238.19616,0 C233.526761,0.114460095 228.912522,1.03746187 224.558292,2.72802883 C197.991725,14.0629886 180.303409,19.6145273 170.115922,19.778209 L170.115922,19.778209 C159.928434,19.6145273 142.240119,14.0629886 115.673552,2.72802883 C111.250688,1.01255563 106.560436,0.0891236072 101.817478,0 C82.586637,0.060070142 67.0224337,15.6573582 67,34.8914888 L67,142.525866 C67.036796,199.482302 113.060589,245.714892 170.006819,246 L170.006819,246 C226.947719,245.707416 272.963245,199.477008 273,142.525866 L273,34.8914888 C272.977597,15.6626624 257.421673,0.0675619377 238.19616,0 Z" id="torso" fill="#58CC02"></path>
                        <path d="M205.945481,172.014837 L180.199401,172.014837 C179.566676,172.014158 178.969726,172.312624 178.584589,172.822219 C178.199452,173.331814 178.070059,173.994411 178.234568,174.614611 C180.501287,180.841084 186.413046,184.919199 192.950486,184.76611 C199.847725,184.76611 205.945481,180.570707 207.923864,174.573345 C208.098088,173.954324 207.969403,173.288039 207.577816,172.781626 C207.186229,172.275214 206.579214,171.990068 205.945481,172.014837 L205.945481,172.014837 Z M162.814021,174.614611 C163.010114,173.992112 162.893337,173.311585 162.501448,172.793055 C162.109558,172.274525 161.49228,171.983785 160.849188,172.014837 L135.103108,172.014837 C134.444104,171.930788 133.790634,172.207889 133.386348,172.742822 C132.982061,173.277755 132.887635,173.990235 133.138275,174.614611 C135.397755,180.876891 141.340765,184.978124 147.908395,184.807376 C154.737882,184.76611 160.849188,180.639484 162.814021,174.614611 Z M183.356683,194.202326 L157.610602,194.202326 C156.967511,194.171274 156.350233,194.462013 155.958343,194.980543 C155.566453,195.499073 155.449677,196.179601 155.64577,196.8021 C157.90525,203.064379 163.84826,207.165612 170.41589,206.994865 C177.299579,206.994865 183.410885,202.868239 185.321515,196.8021 C185.517608,196.179601 185.400832,195.499073 185.008942,194.980543 C184.617053,194.462013 183.999774,194.171274 183.356683,194.202326 Z" id="belly" fill="#89E219"></path>
                        <g id="face" transform="translate(81.000000, 19.000000)">
                            <g id="mask" fill="#89E219">
                                <path d="M44.7681818,2.10473684 L75.8727273,35.8484211 C76.6232884,36.7164823 76.9269034,37.8821944 76.6946348,39.004087 C76.4623662,40.1259796 75.720505,41.0770627 74.6863636,41.5787368 C63.7766878,46.2295472 51.1040447,43.445909 43.1716727,34.6563058 C35.2393007,25.8667026 33.8085481,13.0228272 39.6136364,2.71578947 C40.9772727,0.543157895 43.1727273,0.339473684 44.7681818,2.11831579" id="Path"></path>
                                <path d="M29.3045455,10.1977895 L59.8227273,43.9414737 C60.5732884,44.8095349 60.8769034,45.9752471 60.6446348,47.0971396 C60.4123662,48.2190322 59.670505,49.1701153 58.6363636,49.6717895 C47.7406064,54.2965033 35.0976626,51.5136042 27.1746034,42.7465903 C19.2515442,33.9795765 17.800473,21.1671832 23.5636364,10.8631579 C24.1198831,9.86038714 25.1333322,9.19177337 26.2775267,9.07269361 C27.4217212,8.95361385 28.552102,9.39911279 29.3045455,10.2656842" id="Path"></path>
                                <path d="M38.7409091,17.5031764 L41.7136364,17.5031764 C51.9697105,17.481572 61.8119944,21.5290256 69.0641503,28.7506461 C76.3163062,35.9722666 80.3808738,45.7731094 80.359178,55.986 L80.359178,80.8490526 C80.3808738,91.0619433 76.3163062,100.862786 69.0641503,108.084407 C61.8119944,115.306027 51.9697105,119.353481 41.7136364,119.331876 L38.7409091,119.331876 C28.4859468,119.349854 18.6457805,115.301236 11.3944158,108.080403 C4.14305102,100.85957 0.0773137593,91.0608362 0.0953940989,80.8490526 L0.0953940989,55.986 C0.118002335,34.7418785 17.4069605,17.525716 38.7409091,17.5031764" id="Path"></path>
                                <path d="M135.231818,2.10473684 C136.827273,0.325894737 139.009091,0.529578947 140.386364,2.70221053 C146.201982,13.0099868 144.776337,25.8617672 136.841621,34.6570396 C128.906905,43.452312 116.226796,46.2361207 105.313636,41.5787368 C104.279495,41.0770627 103.537634,40.1259796 103.305365,39.004087 C103.073097,37.8821944 103.376712,36.7164823 104.127273,35.8484211 L135.231818,2.10473684" id="Path"></path>
                                <path d="M150.695455,10.1977895 C151.447898,9.33121805 152.578279,8.88571911 153.722473,9.00479887 C154.866668,9.12387864 155.880117,9.79249241 156.436364,10.7952632 C162.251982,21.1030395 160.826337,33.9548198 152.891621,42.7500922 C144.956905,51.5453646 132.276796,54.3291734 121.363636,49.6717895 C120.329495,49.1701153 119.587634,48.2190322 119.355365,47.0971396 C119.123097,45.9752471 119.426712,44.8095349 120.177273,43.9414737 L150.695455,10.1977895" id="Path"></path>
                                <path d="M141.259091,17.5031764 C162.59304,17.525716 179.881998,34.7418785 179.904606,55.986 L179.904606,80.8490526 C179.922686,91.0608362 175.856949,100.85957 168.605584,108.080403 C161.354219,115.301236 151.514053,119.349854 141.259091,119.331876 L138.286364,119.331876 C128.03029,119.353481 118.188006,115.306027 110.93585,108.084407 C103.683694,100.862786 99.6191262,91.0619433 99.640822,80.8490526 L99.640822,55.986 C99.6191262,45.7731094 103.683694,35.9722666 110.93585,28.7506461 C118.188006,21.5290256 128.03029,17.481572 138.286364,17.5031764 L141.259091,17.5031764" id="Path"></path>
                                <path d="M109.936364,29.5342105 C104.764072,35.0106402 97.5497051,38.116204 90,38.116204 C82.4502949,38.116204 75.2359281,35.0106402 70.0636364,29.5342105 C69.8590909,54.2071579 69.8590909,76.3136842 70.0636364,95.6501053 L90,95.5278947 L109.936364,95.6501053 C110.140909,76.3136842 110.140909,54.2071579 109.936364,29.5342105 Z" id="Path"></path>
                            </g>
                            <g id="left_eye" transform="translate(10.545455, 31.231579)">
                                <path d="M28.6181818,0.678680392 L28.6181818,0.678680392 C44.2679233,0.678680392 56.9545455,13.3121521 56.9545455,28.896 L56.9545455,45.8696842 C56.6164882,61.2160888 44.0263652,73.4812066 28.6113636,73.4812066 C13.1963621,73.4812066 0.606239036,61.2160888 0.267969673,45.8696842 L0.267969673,28.896 C0.239022144,21.4011525 3.21696251,14.2050883 8.54034879,8.90666602 C13.8637351,3.60824377 21.0916585,0.646304582 28.6181818,0.678680392" id="eye_ball" fill="#FFFFFF"></path>
                                <path d="M32.5727273,16.8514737 L32.5727273,16.8514737 C40.0125987,16.8664367 46.0379547,22.8724957 46.0454545,30.2810526 L46.0454545,44.8784211 C45.8139494,52.125476 39.8472882,57.8810182 32.5659091,57.8810182 C25.28453,57.8810182 19.3178688,52.125476 19.0863636,44.8784211 L19.0863636,30.2810526 C19.1674837,22.8978194 25.1582753,16.9322522 32.5727273,16.8514737" id="pupil" fill="#122431"></path>
                                <path d="M21.3363636,16.0638947 C26.0433359,16.0638947 29.8590909,19.8635834 29.8590909,24.5507368 C29.8590909,29.2378903 26.0433359,33.0375789 21.3363636,33.0375789 C16.6293913,33.0375789 12.8136364,29.2378903 12.8136364,24.5507368 C12.7952877,22.2943347 13.687322,20.1250409 15.2896382,18.5294713 C16.8919544,16.9339017 19.0704207,16.0456234 21.3363636,16.0638947" id="glare" fill="#FFFFFF"></path>
                            </g>
                            <g id="right_eye" transform="translate(111.818182, 31.231579)">
                                <path d="M29.0181818,0.678680018 L29.0181818,0.678680018 C36.5358151,0.675344875 43.7467838,3.64661395 49.0638325,8.93872832 C54.3808811,14.2308427 57.3681818,21.4100191 57.3681818,28.896 L57.3681818,45.8696842 C57.0301246,61.2160888 44.4400015,73.4812066 29.025,73.4812066 C13.6099985,73.4812066 1.0198754,61.2160888 0.681549701,45.8696842 L0.681549701,28.896 C0.649011939,21.4024053 3.62390571,14.2062911 8.94513285,8.90746914 C14.26636,3.60864716 21.4929017,0.646279257 29.0181818,0.678680018" id="eye_ball-2" fill="#FFFFFF"></path>
                                <path d="M25.0636364,16.8514737 L25.0636364,16.8514737 C32.5088336,16.8589586 38.5424834,22.8672036 38.55,30.2810526 L38.55,44.8784211 C38.3184949,52.125476 32.3518337,57.8810182 25.0704545,57.8810182 C17.7890754,57.8810182 11.8224142,52.125476 11.5909091,44.8784211 L11.5909091,30.2810526 C11.6718871,22.9030374 17.6545101,16.9395745 25.0636364,16.8514737" id="pupil-2" fill="#122431"></path>
                                <path d="M12.1909091,16.0638947 C16.8978814,16.0638947 20.7136364,19.8635834 20.7136364,24.5507368 C20.7136364,29.2378903 16.8978814,33.0375789 12.1909091,33.0375789 C7.48393679,33.0375789 3.66818182,29.2378903 3.66818182,24.5507368 C3.65354599,22.2954501 4.54677298,20.1283103 6.14827804,18.5335484 C7.74978309,16.9387866 9.92608621,16.0493205 12.1909091,16.0638947" id="glare-2" fill="#FFFFFF"></path>
                            </g>
                            <path d="M113.454545,91.1147368 C134.659091,82.0304211 154.281818,75.7162105 171.327273,72.5523158 C171.327273,72.5523158 174.790909,102.059368 152.318182,108.984632 C123.613636,117.838105 113.454545,91.1147368 113.454545,91.1147368 Z M27.7772727,108.984632 C5.31818182,102.059368 8.76818182,72.5523158 8.76818182,72.5523158 C25.8136364,75.7162105 45.4363636,82.0575789 66.6409091,91.1147368 C66.6409091,91.1147368 56.4818182,117.838105 27.7772727,108.984632 Z" id="eye_puffs" fill="#89E219"></path>
                            <g id="mouth" transform="translate(69.545455, 70.610526)">
                                <g id="lower_beak" transform="translate(5.454545, 4.073684)">
                                    <path d="M15,-2.54534513e-05 L15,-2.54534513e-05 C18.8924216,-0.00723984565 22.627314,1.53023374 25.3783967,4.27228128 C28.1294794,7.01432882 29.6699805,10.7349233 29.6591483,14.6109474 L29.6591483,38.9172632 C29.6591483,46.9791671 23.0959924,53.5146316 15,53.5146316 C6.90400764,53.5146316 0.340909091,46.9791671 0.340909091,38.9172632 L0.340909091,14.6516842 C0.43596181,6.62039953 6.93516505,0.124480097 15,-2.54534513e-05" id="outside" fill="#F49000"></path>
                                    <path d="M15,5.7710444 L15,5.7710444 C21.2357969,5.7710444 26.2909174,10.8048801 26.2909174,17.0144211 L26.2909174,33.2005263 C26.2945336,36.183558 25.106123,39.0454503 22.9878806,41.1547738 C20.8696382,43.2640973 17.9956449,44.447504 15,44.443903 C8.79191585,44.377772 3.77549321,39.3824712 3.70908264,33.2005263 L3.70908264,17.0144211 C3.70546641,14.0313894 4.89387696,11.1694971 7.01211936,9.0601736 C9.13036177,6.95085011 12.0043551,5.76744339 15,5.7710444" id="inside" fill="#B66E28"></path>
                                </g>
                                <g id="upper_beak">
                                    <path d="M20.4545455,21.1152632 L40.0772727,17.8155789 C40.4692354,17.74636 40.7349915,17.3794768 40.6772727,16.9872632 C38.9427715,7.21812138 30.4171457,0.0977207753 20.4545455,0.0977207753 C10.4919453,0.0977207753 1.96631939,7.21812138 0.231818182,16.9872632 C0.174099424,17.3794768 0.439855469,17.74636 0.831818182,17.8155789 L20.4545455,21.1152632 Z" id="beak" fill="#FFC200"></path>
                                    <path d="M24.9545455,9.34231579 C24.6772857,9.34161905 24.4016266,9.30044429 24.1363636,9.22010526 C21.7310865,8.52752987 19.1780044,8.52752987 16.7727273,9.22010526 C15.2402682,9.56090225 13.7059146,8.65610977 13.2693052,7.1541734 C12.8326958,5.65223703 13.6444178,4.07117689 15.1227273,3.54410526 C18.6056497,2.53922123 22.3034412,2.53922123 25.7863636,3.54410526 C27.1997967,3.96152651 28.0924662,5.34745196 27.8839711,6.80077243 C27.675476,8.25409291 26.4288133,9.33568628 24.9545455,9.34231579 L24.9545455,9.34231579 Z" id="glare-3" fill="#FFDE00"></path>
                                </g>
                            </g>
                        </g>
                    </g>
                </g>
            </g>
        </g>
    </g>
</svg>