<?xml version="1.0" encoding="UTF-8"?>
<svg width="321px" height="376px" viewBox="0 0 321 376" version="1.1" xmlns="http://www.w3.org/2000/svg" xmlns:xlink="http://www.w3.org/1999/xlink">
    <title>Group 49</title>
    <g id="Page-1" stroke="none" stroke-width="1" fill="none" fill-rule="evenodd">
        <g id="2020-copy-5" transform="translate(-1006.000000, -18611.000000)">
            <g id="Duolingo-Copy-3" transform="translate(90.000000, 18595.000000)">
                <g id="Group-49" transform="translate(916.239140, 16.000000)">
                    <g id="firework_purple-copy-4" transform="translate(164.000000, 225.000000)" fill="#CE82FF">
                        <path d="M49.2244405,15.5901708 C47.9848559,16.2980638 46.4007492,15.8775899 45.6845668,14.6505918 L44.9495201,13.3913176 C44.9490237,13.3903833 44.9483618,13.3894325 44.9478654,13.3884982 C44.2344961,12.1626147 44.6592743,10.5959328 45.8968732,9.88919712 C47.1362923,9.18130904 48.7203991,9.60177961 49.4365814,10.8287728 L50.1716281,12.0880634 C50.1721246,12.0890142 50.1727865,12.0899485 50.1732829,12.0908829 C50.8868176,13.3167663 50.4618739,14.883458 49.2244405,15.5901708 Z M81.3366484,33.3609979 C79.9059384,33.3609979 78.745948,32.2120754 78.745948,30.7946502 L78.745948,18.3411428 C78.745948,16.923816 79.9059384,15.7748442 81.3366484,15.7748442 C82.7673584,15.7748442 83.9273488,16.923816 83.9273488,18.3411428 L83.9273488,30.7946502 C83.9273488,32.2120754 82.7673584,33.3609979 81.3366484,33.3609979 Z M109.407754,23.8537089 C108.170321,23.1469798 107.745377,21.5803045 108.458746,20.354421 C108.459408,20.3534866 108.459905,20.3525359 108.460401,20.3516016 L109.195448,19.0922782 C109.91163,17.8652964 111.495737,17.444839 112.735322,18.152732 C113.972755,18.8594611 114.397699,20.4261364 113.684329,21.6520199 C113.683667,21.6529543 113.683171,21.653905 113.682675,21.6548394 L112.947628,22.9141299 C112.231446,24.1411281 110.647339,24.5616019 109.407754,23.8537089 Z M62.875095,39.6621226 C61.6355104,40.3699336 60.0514037,39.9494762 59.3352213,38.7225272 L50.5796932,23.7219656 C50.5791968,23.7210149 50.5787004,23.7200805 50.5780385,23.7191462 C49.8646692,22.4932627 50.2894474,20.9265874 51.5270463,20.2198582 C52.7666309,19.5119652 54.3507376,19.9324391 55.06692,21.1594372 L63.8224481,36.1599496 C63.8229446,36.1609332 63.823441,36.1619167 63.8241029,36.1627363 C64.5374722,37.3887017 64.1126939,38.9552951 62.875095,39.6621226 Z M99.7143052,39.6621226 C98.4767063,38.9552951 98.0519281,37.3887017 98.7652974,36.1627363 C98.7657938,36.1619167 98.7664557,36.1609332 98.7669521,36.1599496 L103.192787,28.5772903 C103.908969,27.3503414 105.493076,26.9298839 106.732661,27.6376949 C107.970094,28.3445224 108.395038,29.9111158 107.681503,31.1370812 L107.679848,31.1398679 L103.254013,38.7225272 C102.537831,39.9494762 100.953724,40.3699336 99.7143052,39.6621226 Z M48.844341,53.5559058 C48.128655,54.7820351 46.5457066,55.2023287 45.3071149,54.4948455 L26.7686977,43.9078414 C26.7677545,43.9073496 26.7668112,43.9066939 26.765868,43.9062022 C25.5301721,43.1983911 25.1076113,41.6322895 25.8220892,40.4082912 C26.5377421,39.1821618 28.120707,38.7620322 29.3593319,39.4693515 L47.8976498,50.0563555 C47.8986427,50.0570112 47.8996355,50.057503 47.9006284,50.0579948 C49.1362415,50.7658058 49.5588686,52.3319074 48.844341,53.5559058 Z M113.745059,53.5559058 C113.030532,52.3319074 113.453159,50.7658058 114.688772,50.0579948 C114.689765,50.057503 114.690758,50.0570112 114.691585,50.0563555 L127.393232,42.8026857 C128.631823,42.0953665 130.214772,42.5154961 130.930458,43.7416254 C131.64482,44.9657877 131.222358,46.5318893 129.98658,47.2395365 C129.985752,47.2401921 129.984759,47.2406839 129.983767,47.2411757 L117.282285,54.4948455 C116.043694,55.2023287 114.460745,54.7820351 113.745059,53.5559058 Z M17.7057804,73.8949002 C16.2771091,73.8949002 15.1189427,72.7476168 15.1189427,71.3323226 C15.1189427,69.9170284 16.2771091,68.769745 17.7057804,68.769745 L19.1805402,68.769745 C20.6092314,68.769745 21.7674015,69.9170284 21.7674015,71.3323226 C21.7674015,72.7476168 20.6092314,73.8949002 19.1805402,73.8949002 L17.7057804,73.8949002 Z M136.819436,73.9716152 C135.390712,73.9716152 134.232542,72.8243319 134.232542,71.4092016 L134.234362,71.3713358 L134.232542,71.3323226 C134.232542,69.9586643 135.323694,68.8376084 136.69417,68.7728595 L136.819436,68.769745 L138.294163,68.769745 C139.722887,68.769745 140.881057,69.9170284 140.881057,71.3323226 C140.881057,71.3451085 140.880892,71.3578943 140.880726,71.3705162 C140.880892,71.3833021 140.881057,71.3962518 140.881057,71.4092016 C140.881057,72.8243319 139.722887,73.9716152 138.294163,73.9716152 L136.819436,73.9716152 Z M27.9013679,73.9716152 C26.4726933,73.9716152 25.3145231,72.8243319 25.3145231,71.4092016 C25.3145231,69.9939073 26.4726933,68.846624 27.9013679,68.846624 L44.9736797,68.846624 C46.402404,68.846624 47.5605741,69.9939073 47.5605741,71.4092016 C47.5605741,72.8243319 46.402404,73.9716152 44.9736797,73.9716152 L27.9013679,73.9716152 Z M117.615555,73.9716152 C116.186996,73.9716152 115.028826,72.8243319 115.028826,71.4092016 C115.028826,69.9939073 116.186996,68.846624 117.615555,68.846624 L126.478643,68.846624 C127.907367,68.846624 129.065537,69.9939073 129.065537,71.4092016 C129.065537,72.8243319 127.907367,73.9716152 126.478643,73.9716152 L117.615555,73.9716152 Z M23.0627021,103.909006 C22.3482241,102.685008 22.7707684,101.118906 24.0064809,100.411095 C24.0074241,100.410603 24.0083673,100.410111 24.0093105,100.409456 L45.3071149,88.2466787 C46.5457066,87.5391955 48.128655,87.9594891 48.844341,89.1854545 C49.5588686,90.4096168 49.1362415,91.9757184 47.9006284,92.6833655 C47.8996355,92.6840212 47.8986427,92.684513 47.8976498,92.6850047 L26.5999282,104.847946 C25.3613033,105.555265 23.7783384,105.135135 23.0627021,103.909006 Z M130.930458,98.9998987 C130.214772,100.226028 128.631823,100.646158 127.393232,99.9386745 L114.691585,92.6850047 C114.690758,92.684513 114.689765,92.6840212 114.688772,92.6833655 C113.453159,91.9757184 113.030532,90.4096168 113.745059,89.1854545 C114.460745,87.9594891 116.043694,87.5391955 117.282285,88.2466787 L129.983767,95.5003485 C129.984759,95.5008403 129.985752,95.5013321 129.98658,95.5019877 C131.222358,96.2096349 131.64482,97.7757364 130.930458,98.9998987 Z M111.062354,122.521584 C109.822769,123.229559 108.238663,122.809102 107.52248,121.581989 L98.7669521,106.581575 C98.0519281,105.352822 98.4767063,103.786065 99.7143052,103.079402 C100.953724,102.371427 102.537831,102.792048 103.254013,104.018997 L112.009542,119.019575 C112.010203,119.020395 112.0107,119.021378 112.011196,119.022362 C112.724731,120.248163 112.299787,121.81492 111.062354,122.521584 Z M50.8571973,123.669195 C49.6197639,122.962532 49.1948202,121.395774 49.908355,120.169973 C49.9088514,120.168989 49.9093478,120.168006 49.9100098,120.167022 L58.925336,104.721399 C59.6415184,103.494286 61.2256251,103.073828 62.4652097,103.781803 C63.7026431,104.488467 64.1275868,106.055224 63.4140521,107.281026 C63.4135556,107.282009 63.4130592,107.282993 63.4123973,107.283812 L54.3970711,122.7296 C53.6808887,123.956549 52.096782,124.377006 50.8571973,123.669195 Z M81.3366484,140.454545 C79.9059384,140.454545 78.745948,139.305623 78.745948,137.888198 L78.745948,111.94671 C78.745948,110.529449 79.9059384,109.380526 81.3366484,109.380526 C82.7673584,109.380526 83.9273488,110.529449 83.9273488,111.94671 L83.9273488,137.888198 C83.9273488,139.305623 82.7673584,140.454545 81.3366484,140.454545 Z M114.969586,130.785171 C113.730166,131.492982 112.14606,131.072525 111.429877,129.845576 L110.694831,128.586335 C110.694169,128.585351 110.693672,128.584367 110.693176,128.583548 C109.979807,127.357582 110.404585,125.790989 111.642018,125.084162 C112.881603,124.376351 114.46571,124.796808 115.181892,126.023757 L115.916939,127.282998 C115.917435,127.283982 115.918097,127.284965 115.918593,127.285785 C116.631963,128.51175 116.207184,130.078508 114.969586,130.785171 Z M44.5685932,132.852216 C43.3309943,132.145552 42.9062161,130.578795 43.6195853,129.352993 L43.6212401,129.350207 L44.3562868,128.090801 C45.0724692,126.863852 46.6565759,126.443395 47.8961605,127.15137 C49.1335939,127.858033 49.5583721,129.424791 48.8450029,130.650592 C48.8445064,130.651576 48.8438445,130.652395 48.8433481,130.653379 L48.1083014,131.912784 C47.392119,133.139733 45.8080123,133.560191 44.5685932,132.852216 Z" id="Shape" transform="translate(78.000000, 75.000000) rotate(-78.000000) translate(-78.000000, -75.000000) "></path>
                    </g>
                    <g id="firework_blue-copy-4">
                        <path d="M225.424652,56.8651587 C227.328883,58.8237713 230.462265,58.8696066 232.423015,56.9674437 L234.484241,54.9680619 C236.459482,53.0521485 236.514551,49.9025432 234.607422,47.9190831 C234.601142,47.9123284 234.594621,47.9055737 234.588099,47.8988191 C232.683868,45.9404478 229.550486,45.8946125 227.589736,47.7965341 L225.52851,49.7961572 C223.553269,51.7120706 223.4982,54.8614346 225.405088,56.845136 C225.411609,56.8518906 225.418131,56.8586453 225.424652,56.8651587 Z M110.594212,38.7235672 C110.603269,38.721396 110.612327,38.7189836 110.621384,38.7168125 C113.291051,38.0439993 114.915396,35.3438206 114.256837,32.6735555 L113.569561,29.8870136 C112.915808,27.2362888 110.234379,25.6166158 107.580387,26.2696475 C107.57133,26.2718187 107.562272,26.2742311 107.553239,26.2764022 C104.883548,26.9492154 103.259203,29.649394 103.917762,32.3196592 L104.605038,35.1062011 C105.25879,37.7569259 107.94022,39.3765989 110.594212,38.7235672 Z M187.931301,92.9321925 C189.835532,94.8905638 192.968914,94.9363991 194.929664,93.0344775 L221.681887,67.0854543 C223.656886,65.1695409 223.711955,62.0199356 221.805067,60.0362343 C221.798546,60.0294796 221.792025,60.0229662 221.785503,60.0162115 C219.881272,58.0578402 216.748131,58.0120049 214.787141,59.9139265 L188.035159,85.8631909 C186.059918,87.7788631 186.004849,90.9284684 187.911978,92.9121698 C187.918258,92.9189244 187.92478,92.9254378 187.931301,92.9321925 Z M155.940269,75.9635008 C158.578272,76.7190587 161.330035,75.1953986 162.08651,72.5605955 L166.811824,56.1011575 C167.5683,53.4663544 166.043031,50.7181694 163.405028,49.9626115 C160.767026,49.2070536 158.015263,50.7304725 157.258787,53.3652756 L152.533473,69.8247136 C151.776998,72.4595167 153.302267,75.2079429 155.940269,75.9635008 Z M119.962043,73.4659622 C119.970979,73.4637911 119.980157,73.4613787 119.989094,73.4592076 C122.658737,72.7863944 124.283275,70.0862157 123.62462,67.4159506 L119.534291,50.8310688 C118.880466,48.180344 116.198989,46.560671 113.545093,47.2137027 C113.536036,47.2158739 113.526979,47.218045 113.517921,47.2204574 C110.84823,47.8932706 109.223909,50.5934492 109.882468,53.2634731 L113.972821,69.8485961 C114.626573,72.499321 117.308099,74.1189939 119.962043,73.4659622 Z M206.313506,126.384446 C206.984238,129.040237 209.683831,130.649778 212.342605,129.979618 L239.624988,123.103607 C242.303568,122.428381 243.933178,119.719518 243.272349,117.040569 C243.270175,117.031402 243.268001,117.022476 243.265586,117.013309 C242.594613,114.357759 239.895261,112.747977 237.236487,113.418136 L209.953862,120.294389 C207.275524,120.969373 205.645914,123.678236 206.306502,126.357186 C206.308917,126.366353 206.311091,126.375279 206.313506,126.384446 Z M86.6246684,92.1059518 C86.6314071,92.0994384 86.6381458,92.092925 86.6448604,92.0864116 C88.6265262,90.164226 88.6817644,87.0044886 86.7685001,85.0142739 L67.2797687,64.7430319 C65.3806099,62.7675326 62.2373246,62.7038458 60.2594267,64.6007014 C60.2526638,64.6072148 60.2459009,64.6137282 60.239138,64.6202417 C58.2573756,66.5424273 58.2023065,69.7024058 60.1154741,71.6923793 L79.6041089,91.9636213 C81.503461,93.9391206 84.6466497,94.0028074 86.6246684,92.1059518 Z M33.0792108,118.148334 C35.7346034,118.908958 38.5042401,117.375407 39.2657876,114.723476 L39.284627,114.651105 L39.3070894,114.579457 C40.0517297,111.985182 38.5986788,109.281385 36.0493183,108.452973 L35.8778313,108.400624 L33.2352399,107.64386 C30.5800888,106.883236 27.8102105,108.416787 27.0489046,111.068718 C27.0419002,111.092842 27.0351373,111.116966 27.028616,111.140848 C27.0216115,111.16449 27.0143656,111.188613 27.0076027,111.212737 C26.2460553,113.864668 27.7814683,116.631187 30.4366193,117.39157 L33.0792108,118.148334 Z M234.820694,175.926802 C237.476086,176.687184 240.245723,175.153633 241.00727,172.501702 C241.768576,169.84953 240.233163,167.083252 237.578012,166.322628 L205.255117,157.065597 C202.599724,156.304973 199.830088,157.838524 199.06854,160.490696 C198.307234,163.142627 199.842647,165.909146 202.497798,166.669529 L234.820694,175.926802 Z M252.806063,181.077719 C255.461214,181.838101 258.231093,180.304792 258.992399,177.652619 C259.753946,175.000447 258.218533,172.234169 255.56314,171.473545 L252.92079,170.716781 C250.265398,169.956399 247.49552,171.489708 246.734214,174.141881 C245.972908,176.794053 247.508079,179.560331 250.163472,180.320955 L252.806063,181.077719 Z M68.4866512,128.289021 C71.1419471,129.049404 73.9117047,127.516094 74.6731072,124.863922 C75.4345098,122.211991 73.8991934,119.445472 71.2438974,118.685089 L54.9790744,114.02678 C52.3236818,113.266398 49.554045,114.799707 48.7924976,117.45188 C48.0311917,120.104052 49.5666047,122.87033 52.2217557,123.630712 L68.4866512,128.289021 Z M218.531114,225.81847 C218.537877,225.811957 218.544639,225.805443 218.551402,225.79893 C220.532923,223.876744 220.588234,220.717007 218.675066,218.726792 L189.048382,187.910548 C187.149223,185.935049 184.005938,185.871362 182.027799,187.768218 C182.021036,187.774731 182.014514,187.781245 182.007751,187.787758 C180.025989,189.709944 179.97092,192.869681 181.884088,194.859896 L211.510772,225.67614 C213.40993,227.65188 216.553216,227.715567 218.531114,225.81847 Z M40.0123601,165.804208 C40.6833334,168.459998 43.3829262,170.069539 46.0417002,169.39938 L63.8290143,164.916451 C66.5075939,164.241467 68.1371799,161.532362 67.4764716,158.853413 C67.4742254,158.844487 67.471955,158.83532 67.4696605,158.826153 C66.7986388,156.170603 64.0992876,154.561062 61.4405136,155.230981 L43.652958,159.71415 C40.9746199,160.389135 39.3450098,163.097998 40.0055973,165.776948 C40.0080126,165.786115 40.0101864,165.795282 40.0123601,165.804208 Z M60.5499885,216.89869 C62.4542195,218.857302 65.5873605,218.902896 67.5482305,217.000975 L85.7479348,199.347649 C87.7231275,197.431736 87.7781725,194.28213 85.8711398,192.29867 C85.8646909,192.291916 85.8581937,192.285161 85.8516965,192.278406 C83.9474414,190.320035 80.8141796,190.2742 78.8533579,192.176121 L60.6536054,209.829688 C58.6783643,211.745601 58.6232952,214.894965 60.5304245,216.878667 C60.5369459,216.885421 60.5434672,216.892176 60.5499885,216.89869 Z M160.238073,237.996655 C160.24701,237.994242 160.256188,237.99183 160.265125,237.989418 C162.934767,237.316363 164.559064,234.617391 163.90065,231.947126 L160.188318,216.894589 C159.534493,214.243864 156.853015,212.624432 154.199072,213.277464 C154.189894,213.279635 154.180957,213.281806 154.171779,213.284218 C151.502136,213.957032 149.877839,216.656969 150.536495,219.327234 L154.248827,234.379771 C154.902652,237.030496 157.583888,238.65041 160.238073,237.996655 Z M103.195801,259.681552 C105.833803,260.436628 108.585543,258.914415 109.341994,256.280094 L121.217038,214.916194 C121.973513,212.281391 120.448245,209.532965 117.810242,208.777407 C115.172216,208.021849 112.420501,209.545268 111.664049,212.180071 L99.7889329,253.544454 C99.0324817,256.178774 100.557799,258.926477 103.195801,259.681552 Z M166.202683,258.940951 L166.229734,258.933714 C168.899619,258.26066 170.523915,255.561205 169.86526,252.890698 L169.178104,250.104398 C168.524279,247.45319 165.842802,245.834482 163.188858,246.488238 C163.17968,246.488238 163.170743,246.49065 163.161807,246.493062 C160.491922,247.166117 158.867626,249.867984 159.526281,252.536078 L160.213437,255.324791 C160.867262,257.973586 163.548739,259.594707 166.202683,258.940951 Z M45.5335189,229.797211 C47.4377498,231.755582 50.5708909,231.801418 52.5316401,229.899496 L54.5931078,227.900114 C56.5683488,225.984201 56.6234179,222.834596 54.7162886,220.850894 C54.7097673,220.844381 54.7032459,220.837626 54.6967246,220.830871 C52.7924936,218.8725 49.6593526,218.826665 47.6986034,220.728587 L45.6371357,222.727968 C43.6618946,224.643882 43.6068255,227.793487 45.5139548,229.777188 C45.5204762,229.783943 45.5269975,229.790456 45.5335189,229.797211 Z" id="Shape" fill="#1C8EF6" transform="translate(143.000000, 143.000000) rotate(-105.000000) translate(-143.000000, -143.000000) "></path>
                        <path d="M146.406897,113.631476 C148.622266,113.670342 150.449565,111.903044 150.48813,109.684326 L150.640948,100.921946 C150.679514,98.7032283 148.915125,96.8731661 146.699757,96.8345419 C144.484389,96.7956763 142.65709,98.5629742 142.618524,100.781692 L142.465707,109.544072 C142.427141,111.76279 144.191529,113.592852 146.406897,113.631476 Z M164.265546,119.220879 C166.161058,120.358844 168.618909,119.745202 169.759254,117.848996 L174.291708,110.311727 C174.293154,110.309313 174.2946,110.306899 174.296046,110.304727 C175.429401,108.411176 174.81548,105.956126 172.924789,104.821058 C171.029276,103.683093 168.571425,104.296735 167.431081,106.192941 L162.898627,113.730209 C162.897181,113.732623 162.895734,113.734796 162.894288,113.73721 C161.760934,115.63076 162.374854,118.08581 164.265546,119.220879 Z M128.254907,118.591304 C130.183924,117.523104 130.88293,115.090987 129.816343,113.159054 C129.814897,113.15664 129.813692,113.154226 129.812245,113.151812 L125.545149,105.46053 C124.471668,103.525699 122.036764,102.826602 120.102637,103.897698 C118.173645,104.965899 117.47459,107.398015 118.54125,109.329949 L118.545251,109.337191 L122.812444,117.028232 C123.885925,118.963062 126.320829,119.662401 128.254907,118.591304 Z M175.554981,134.487812 C176.630486,136.426505 179.070501,137.127292 181.008436,136.054023 L188.700157,131.794258 C188.702567,131.793051 188.704978,131.791603 188.707388,131.790396 C190.638092,130.715919 191.333483,128.277285 190.260629,126.343661 C189.184882,124.404968 186.745109,123.704422 184.807174,124.777692 L177.115452,129.037215 C177.113042,129.038664 177.110632,129.039871 177.108221,129.041319 C175.177517,130.115554 174.482127,132.554189 175.554981,134.487812 Z M116.44035,133.454374 C117.579899,131.559375 116.969835,129.098048 115.077745,127.956945 C115.075407,127.955497 115.073045,127.954048 115.070683,127.9526 L107.532189,123.426811 C105.632723,122.286432 103.169979,122.901281 102.02741,124.801349 C100.887878,126.696348 101.497942,129.157675 103.390019,130.298778 C103.392372,130.300226 103.394722,130.301675 103.397079,130.303123 L110.935578,134.828912 C112.835044,135.969291 115.297788,135.354442 116.44035,133.454374 Z M192.174701,155.270038 C194.381874,155.308662 196.202424,153.547882 196.24099,151.337372 C196.279555,149.126861 194.521434,147.303558 192.314261,147.264934 L183.495693,147.110679 C181.28852,147.072055 179.46797,148.832835 179.429404,151.043345 C179.390839,153.253856 181.14896,155.077159 183.356133,155.115783 L192.174701,155.270038 Z M107.925127,153.79725 C110.132348,153.835874 111.95285,152.075094 111.991391,149.864583 C112.029909,147.654073 110.27186,145.83077 108.064663,145.792146 L99.2459744,145.63789 C97.0387774,145.599266 95.2182515,147.360046 95.1797339,149.570557 C95.1411921,151.781067 96.8992654,153.60437 99.1064624,153.642994 L107.925127,153.79725 Z M189.393138,176.114546 C190.532759,174.219788 189.922695,171.758462 188.030557,170.617117 C188.028147,170.615668 188.025977,170.61422 188.023567,170.612772 L180.485145,166.086983 C178.585535,164.946604 176.122863,165.561452 174.980349,167.461521 C173.840728,169.35652 174.450792,171.817846 176.34293,172.959191 C176.345099,172.960398 176.347509,172.961846 176.34992,172.963295 L183.888342,177.489084 C185.787952,178.629463 188.250624,178.014614 189.393138,176.114546 Z M101.15997,174.572234 C102.235637,176.510926 104.675446,177.211714 106.613502,176.138203 L114.305127,171.878679 C114.307513,171.877472 114.309923,171.876024 114.312334,171.874576 C116.243013,170.80034 116.938476,168.361706 115.86567,166.428083 C114.789996,164.48939 112.350199,163.788602 110.412143,164.862113 L102.720523,169.121637 L102.713321,169.125741 C100.782624,170.199976 100.087166,172.63861 101.15997,174.572234 Z M171.318038,197.018196 C173.247055,195.949996 173.946061,193.517879 172.879474,191.585946 C172.878027,191.583532 172.876822,191.581118 172.875376,191.578704 L168.608063,183.887663 C167.534726,181.952833 165.099774,181.253493 163.165696,182.32459 C161.236679,183.393032 160.537673,185.825149 161.60426,187.757082 C161.605706,187.759255 161.606911,187.761669 161.608358,187.764083 L165.87543,195.455365 C166.949007,197.390195 169.38396,198.089535 171.318038,197.018196 Z M118.495766,196.094837 C120.391399,197.233043 122.849154,196.61916 123.989426,194.723195 L128.521976,187.185686 C128.523422,187.183513 128.524868,187.181099 128.526315,187.178685 C129.659669,185.285376 129.045749,182.830084 127.155057,181.695016 C125.259496,180.557051 122.801742,181.170693 121.66147,183.066899 L117.128871,190.604167 C117.127449,190.606581 117.126051,190.608995 117.124629,190.611409 C115.991299,192.504719 116.605171,194.959769 118.495766,196.094837 Z M144.830518,204.083284 C147.045886,204.12215 148.873185,202.354852 148.911751,200.136134 L149.064568,191.373754 C149.103134,189.155036 147.338504,187.324974 145.123377,187.28635 C142.908009,187.247484 141.08071,189.014782 141.041903,191.2335 L140.889327,199.99588 C140.85052,202.214598 142.615149,204.04466 144.830518,204.083284 Z" id="Shape" fill="#7AF0F2" transform="translate(145.710362, 150.458913) rotate(-105.000000) translate(-145.710362, -150.458913) "></path>
                    </g>
                </g>
            </g>
        </g>
    </g>
</svg>