<?xml version="1.0" encoding="utf-8"?>
<!-- Generator: Adobe Illustrator 25.0.1, SVG Export Plug-In . SVG Version: 6.00 Build 0)  -->
<svg version="1.1" id="Layer_1" xmlns="http://www.w3.org/2000/svg" xmlns:xlink="http://www.w3.org/1999/xlink" x="0px" y="0px"
	 viewBox="0 0 321 376" style="enable-background:new 0 0 321 376;" xml:space="preserve">
<style type="text/css">
	.st0{fill-rule:evenodd;clip-rule:evenodd;fill:#A668C9;}
	.st1{fill-rule:evenodd;clip-rule:evenodd;fill:#0D75C2;}
	.st2{fill-rule:evenodd;clip-rule:evenodd;fill:#5FC2C1;}
</style>
<path id="Shape" class="st0" d="M178.1,315.8c0.4,1.4-0.3,2.8-1.7,3.3l-1.4,0.5c0,0,0,0,0,0c-1.3,0.4-2.8-0.3-3.2-1.7
	c-0.4-1.4,0.3-2.8,1.7-3.3l1.4-0.5c0,0,0,0,0,0C176.3,313.7,177.7,314.4,178.1,315.8z M202.2,288.1c-0.3,1.4-1.7,2.3-3,2l-12.2-2.6
	c-1.4-0.3-2.3-1.7-2-3.1s1.7-2.3,3-2l12.2,2.6C201.6,285.3,202.5,286.7,202.2,288.1z M198.7,258.6c-0.9,1.1-2.6,1.2-3.6,0.2
	c0,0,0,0,0,0l-1.1-1c-1.1-1-1.1-2.6-0.2-3.7c0.9-1.1,2.6-1.2,3.6-0.2c0,0,0,0,0,0l1.1,1C199.6,255.9,199.7,257.6,198.7,258.6z
	 M204.5,307.4c0.4,1.4-0.3,2.8-1.7,3.3l-16.5,5.4c0,0,0,0,0,0c-1.3,0.4-2.8-0.3-3.2-1.7c-0.4-1.4,0.3-2.8,1.7-3.3l16.5-5.4
	c0,0,0,0,0,0C202.7,305.3,204.1,306.1,204.5,307.4z M212.2,271.4c-0.9,1.1-2.6,1.2-3.6,0.2c0,0,0,0,0,0l-6.5-5.9
	c-1.1-1-1.1-2.6-0.2-3.7c0.9-1.1,2.6-1.2,3.6-0.2l0,0l6.5,5.9C213.1,268.7,213.1,270.3,212.2,271.4z M215.2,324.1
	c1.1,1,1.1,2.6,0.2,3.7l-14.2,15.9c0,0,0,0,0,0c-0.9,1.1-2.6,1.1-3.6,0.2c-1.1-1-1.1-2.6-0.2-3.7l14.2-15.9c0,0,0,0,0,0
	C212.5,323.2,214.2,323.1,215.2,324.1z M228.7,260.6c-1.3,0.4-2.8-0.3-3.2-1.7c0,0,0,0,0,0L221,245c-0.4-1.4,0.3-2.8,1.7-3.3
	c1.3-0.4,2.8,0.3,3.2,1.7c0,0,0,0,0,0l4.5,13.9C230.8,258.7,230,260.1,228.7,260.6z M228.6,358.7c-0.3,1.4-1.7,2.3-3,2
	c-1.4-0.3-2.3-1.7-2-3.1l0.3-1.4c0.3-1.4,1.7-2.3,3-2c1.4,0.3,2.3,1.7,2,3.1L228.6,358.7z M253.5,242.3c-0.3,1.4-1.7,2.3-3,2l0,0
	l0,0c-1.3-0.3-2.2-1.6-2-2.9l0-0.1l0.3-1.4c0.3-1.4,1.7-2.3,3-2c0,0,0,0,0,0c0,0,0,0,0,0c1.4,0.3,2.3,1.7,2,3.1L253.5,242.3z
	 M230.8,348.8c-0.3,1.4-1.7,2.3-3,2c-1.4-0.3-2.3-1.7-2-3.1l3.5-16.7c0.3-1.4,1.7-2.3,3-2c1.4,0.3,2.3,1.7,2,3.1L230.8,348.8z
	 M249.5,261c-0.3,1.4-1.7,2.3-3,2c-1.4-0.3-2.3-1.7-2-3.1l1.8-8.7c0.3-1.4,1.7-2.3,3-2c1.4,0.3,2.3,1.7,2,3.1L249.5,261z
	 M259.1,359.7c-1.3,0.4-2.8-0.3-3.2-1.7c0,0,0,0,0,0l-7.5-23.4c-0.4-1.4,0.3-2.8,1.7-3.3c1.3-0.4,2.8,0.3,3.2,1.7c0,0,0,0,0,0
	l7.5,23.4C261.2,357.8,260.4,359.3,259.1,359.7z M276.7,253.2c1.1,1,1.1,2.6,0.2,3.7l-9.7,10.9c0,0,0,0,0,0
	c-0.9,1.1-2.6,1.1-3.6,0.2c-1.1-1-1.1-2.6-0.2-3.7l9.7-10.9c0,0,0,0,0,0C274.1,252.4,275.7,252.3,276.7,253.2z M295.6,277.5
	c0.4,1.4-0.3,2.8-1.7,3.3l-16.5,5.4c-1.4,0.4-2.8-0.3-3.2-1.7c-0.4-1.4,0.3-2.8,1.7-3.3l16.5-5.4c0,0,0,0,0,0
	C293.7,275.4,295.2,276.2,295.6,277.5z M284.2,336.7c-0.9,1.1-2.6,1.2-3.6,0.2c0,0,0,0,0,0l-13.2-12c-1.1-1-1.1-2.6-0.2-3.7
	c0.9-1.1,2.6-1.2,3.6-0.2c0,0,0,0,0,0l13.2,12C285.1,334,285.2,335.6,284.2,336.7z M307,310.3c-0.3,1.4-1.7,2.3-3,2l-25.4-5.4
	c-1.4-0.3-2.3-1.7-2-3.1s1.7-2.3,3-2l25.4,5.4C306.4,307.6,307.3,308.9,307,310.3z M304.5,275.4c0.4,1.4-0.3,2.8-1.7,3.3l-1.4,0.5
	c0,0,0,0,0,0c-1.3,0.4-2.8-0.3-3.2-1.7c-0.4-1.4,0.3-2.8,1.7-3.3l1.4-0.5c0,0,0,0,0,0C302.6,273.3,304.1,274.1,304.5,275.4z
	 M291.9,344.7c-0.9,1.1-2.6,1.2-3.6,0.2l0,0l-1.1-1c-1.1-1-1.1-2.6-0.2-3.7c0.9-1.1,2.6-1.2,3.6-0.2c0,0,0,0,0,0l1.1,1
	C292.7,342,292.8,343.7,291.9,344.7z"/>
<path id="Shape_1_" class="st1" d="M38.7,85.7c1.4-2.3,0.6-5.4-1.7-6.8l-2.5-1.5c-2.4-1.4-5.4-0.7-6.8,1.7c0,0,0,0,0,0
	c-1.4,2.3-0.6,5.4,1.7,6.8l2.5,1.5C34.2,88.8,37.3,88.1,38.7,85.7C38.7,85.7,38.7,85.7,38.7,85.7z M50.9,201.3
	C50.9,201.3,50.9,201.3,50.9,201.3c-1.4-2.4-4.4-3.3-6.8-2l-2.5,1.4c-2.4,1.3-3.3,4.3-1.9,6.7c0,0,0,0,0,0c1.3,2.4,4.4,3.3,6.8,1.9
	L49,208C51.4,206.7,52.2,203.7,50.9,201.3z M83.2,112.6c1.4-2.3,0.6-5.4-1.7-6.8l-32-19.1c-2.4-1.4-5.4-0.6-6.8,1.7c0,0,0,0,0,0
	c-1.4,2.3-0.6,5.4,1.7,6.8l32,19.1C78.8,115.7,81.8,114.9,83.2,112.6C83.2,112.6,83.2,112.6,83.2,112.6z M75.1,147.9
	c0-2.7-2.1-5-4.9-5.1l-17.1-0.3c-2.7,0-5,2.1-5,4.9c0,2.7,2.1,5,4.9,5.1l17.1,0.3C72.8,152.8,75.1,150.6,75.1,147.9z M82,183.2
	C82,183.2,82,183.2,82,183.2c-1.4-2.4-4.4-3.3-6.8-2l-15,8.2c-2.4,1.3-3.3,4.3-1.9,6.7c0,0,0,0,0,0c1.3,2.4,4.4,3.3,6.8,1.9l15-8.2
	C82.5,188.7,83.4,185.6,82,183.2z M110.8,86.1c2.4-1.3,3.2-4.4,1.9-6.8L99,54.8c-1.3-2.4-4.4-3.3-6.8-2c0,0,0,0,0,0
	c-2.4,1.3-3.2,4.4-1.9,6.8L104,84.2C105.3,86.6,108.4,87.5,110.8,86.1C110.8,86.2,110.8,86.1,110.8,86.1z M108.7,210.6
	C108.7,210.6,108.7,210.6,108.7,210.6c-2.4-1.4-5.5-0.7-6.9,1.7l-14.5,24.1c-1.4,2.3-0.7,5.4,1.7,6.8c0,0,0,0,0,0
	c2.4,1.4,5.4,0.7,6.9-1.7l14.5-24.1C111.8,215.1,111,212,108.7,210.6z M147.7,255.6c0-2.8-2.2-5-4.9-5.1l-0.1,0l-0.1,0
	c-2.7,0-4.9,2.1-5.1,4.7l0,0.2l0,2.7c0,2.8,2.2,5,4.9,5.1c0,0,0.1,0,0.1,0c0,0,0,0,0.1,0c2.8,0,5-2.1,5.1-4.9L147.7,255.6z
	 M151.3,45.8c0-2.8-2.2-5-4.9-5.1c-2.8,0-5,2.2-5.1,4.9l-0.6,33.6c0,2.8,2.2,5,4.9,5.1c2.8,0,5-2.2,5.1-4.9L151.3,45.8z M151.6,27.1
	c0-2.8-2.2-5-4.9-5.1c-2.8,0-5,2.1-5.1,4.9l0,2.7c0,2.8,2.2,5,4.9,5.1c2.8,0,5-2.1,5.1-4.9L151.6,27.1z M148.3,218.8
	c0-2.8-2.2-5-4.9-5.1c-2.8,0-5,2.1-5.1,4.9l-0.3,16.9c0,2.8,2.2,5,4.9,5.1c2.8,0,5-2.2,5.1-4.9L148.3,218.8z M203.7,48.6
	C203.7,48.6,203.7,48.6,203.7,48.6c-2.4-1.4-5.5-0.7-6.9,1.7l-22.1,36.6c-1.4,2.3-0.7,5.4,1.7,6.8c0,0,0,0,0,0
	c2.4,1.4,5.4,0.7,6.9-1.7l22.1-36.6C206.8,53.1,206,50,203.7,48.6z M191.9,236.6c2.4-1.3,3.2-4.4,1.9-6.8l-8.9-16
	c-1.3-2.4-4.4-3.3-6.8-2c0,0,0,0,0,0c-2.4,1.3-3.2,4.4-1.9,6.8l8.9,16C186.4,237,189.5,237.9,191.9,236.6
	C191.9,236.6,191.9,236.6,191.9,236.6z M236,203.5c1.4-2.3,0.6-5.4-1.7-6.8l-21.8-13c-2.4-1.4-5.4-0.7-6.8,1.7c0,0,0,0,0,0
	c-1.4,2.3-0.6,5.4,1.7,6.8l21.8,13C231.5,206.7,234.5,205.9,236,203.5C235.9,203.5,236,203.5,236,203.5z M230.5,101.8
	C230.5,101.8,230.5,101.7,230.5,101.8c-1.4-2.4-4.4-3.3-6.8-2l-13.6,7.5c-2.4,1.3-3.3,4.3-1.9,6.7c0,0,0,0,0,0
	c1.3,2.4,4.4,3.3,6.8,1.9l13.6-7.5C231,107.2,231.9,104.2,230.5,101.8z M266.2,151.2c0-2.7-2.1-5-4.9-5.1l-43-0.8
	c-2.7,0-5,2.1-5,4.9c0,2.7,2.1,5,4.9,5.1l43,0.8C263.9,156.2,266.2,154,266.2,151.2z M249.2,90.6L249.2,90.6c-1.4-2.4-4.4-3.3-6.8-2
	l-2.5,1.4c-2.4,1.3-3.3,4.3-1.9,6.7c0,0,0,0,0,0c1.3,2.4,4.4,3.3,6.8,1.9l2.5-1.4C249.7,96,250.5,93,249.2,90.6z M252.3,214.7
	c1.4-2.3,0.6-5.4-1.7-6.8l-2.5-1.5c-2.4-1.4-5.4-0.7-6.8,1.7c0,0,0,0,0,0c-1.4,2.3-0.6,5.4,1.7,6.8l2.5,1.5
	C247.8,217.8,250.9,217.1,252.3,214.7C252.3,214.7,252.3,214.7,252.3,214.7z"/>
<path id="Shape_2_" class="st2" d="M110.2,159.3c-0.5-2.1-2.7-3.5-4.9-2.9l-8.5,2.1c-2.2,0.5-3.5,2.7-2.9,4.9
	c0.5,2.1,2.7,3.5,4.9,2.9l8.5-2.1C109.4,163.6,110.7,161.5,110.2,159.3z M111,140.6c0.6-2.1-0.6-4.3-2.7-5l-8.5-2.4c0,0,0,0,0,0
	c-2.1-0.6-4.3,0.6-4.9,2.7c-0.6,2.1,0.6,4.3,2.7,5l8.5,2.4c0,0,0,0,0,0C108.2,144,110.4,142.7,111,140.6z M119.7,175.6
	c-1.5-1.6-4.1-1.6-5.7-0.1c0,0,0,0,0,0l-6.3,6.1c-1.6,1.5-1.6,4.1-0.1,5.7c1.5,1.6,4.1,1.6,5.7,0.1l0,0l6.3-6.1
	C121.2,179.7,121.2,177.2,119.7,175.6z M122.8,125.8c1.6-1.5,1.6-4.1,0.1-5.7l-6.1-6.3c0,0,0,0,0,0c-1.5-1.6-4.1-1.6-5.7-0.1
	c-1.6,1.5-1.6,4.1-0.1,5.7l6.1,6.3c0,0,0,0,0,0C118.7,127.3,121.2,127.3,122.8,125.8z M137.1,183.1c-2.1-0.6-4.3,0.6-5,2.7
	c0,0,0,0,0,0l-2.4,8.5c-0.6,2.1,0.6,4.3,2.8,5c2.1,0.6,4.3-0.6,5-2.7c0,0,0,0,0,0l2.4-8.5C140.5,186,139.2,183.7,137.1,183.1z
	 M138.6,104.3c-0.5-2.1-2.7-3.4-4.9-2.9c-2.1,0.5-3.5,2.7-2.9,4.8l2.1,8.6c0.5,2.1,2.7,3.4,4.9,2.9c2.1-0.5,3.5-2.7,2.9-4.8
	L138.6,104.3z M159,186.1c-0.5-2.1-2.7-3.4-4.9-2.9c-2.1,0.5-3.5,2.7-2.9,4.8l2.1,8.6c0.5,2.1,2.7,3.4,4.9,2.9
	c2.1-0.5,3.5-2.7,2.9-4.8L159,186.1z M159.4,101.6c-2.1-0.6-4.3,0.6-5,2.7c0,0,0,0,0,0l-2.4,8.5c-0.6,2.1,0.6,4.3,2.8,5
	c2.1,0.6,4.3-0.6,5-2.7c0,0,0,0,0,0l2.4-8.5C162.8,104.5,161.6,102.2,159.4,101.6z M180.8,187.3c1.6-1.5,1.6-4.1,0.1-5.7l-6.1-6.3
	c0,0,0,0,0,0c-1.5-1.6-4.1-1.6-5.7-0.1c-1.6,1.5-1.6,4.1-0.1,5.7l6.1,6.3l0,0C176.6,188.7,179.2,188.8,180.8,187.3z M184.3,113.7
	c-1.5-1.6-4.1-1.6-5.7-0.1c0,0,0,0,0,0l-6.3,6.1c-1.6,1.5-1.6,4.1-0.1,5.7c1.5,1.6,4.1,1.6,5.7,0.1c0,0,0,0,0,0l6.3-6.1
	C185.8,117.8,185.8,115.3,184.3,113.7z M197.1,164.9c0.6-2.1-0.6-4.3-2.7-5l-8.5-2.4c0,0,0,0,0,0c-2.1-0.6-4.3,0.6-4.9,2.7
	c-0.6,2.1,0.6,4.3,2.7,5l8.5,2.4c0,0,0,0,0,0C194.3,168.3,196.5,167.1,197.1,164.9z M198,137.4c-0.5-2.1-2.7-3.5-4.9-2.9l-8.5,2.1
	c-2.2,0.5-3.5,2.7-2.9,4.9c0.5,2.1,2.7,3.5,4.9,2.9l8.5-2.1C197.2,141.8,198.5,139.6,198,137.4z"/>
</svg>
