<?xml version="1.0" encoding="UTF-8"?>
<svg width="145px" height="142px" viewBox="0 0 145 142" version="1.1" xmlns="http://www.w3.org/2000/svg" xmlns:xlink="http://www.w3.org/1999/xlink">
    <title>Path</title>
    <defs>
        <linearGradient x1="100%" y1="2.04756243%" x2="0%" y2="97.9524376%" id="linearGradient-1">
            <stop stop-color="#00DAD1" offset="0%"></stop>
            <stop stop-color="#00F19F" offset="100%"></stop>
        </linearGradient>
    </defs>
    <g id="Page-1" stroke="none" stroke-width="1" fill="none" fill-rule="evenodd">
        <g id="2020-copy-2" transform="translate(-798.000000, -5473.000000)" fill="url(#linearGradient-1)" fill-rule="nonzero">
            <g id="Group-18" transform="translate(-18.000000, 4738.000000)">
                <g id="Group-15" transform="translate(136.000000, 624.000000)">
                    <g id="Group-14" transform="translate(630.000000, 0.000000)">
                        <path d="M177.365536,244.926877 C166.326135,248.010991 131.734499,245.380423 127.835572,245.062941 C119.969715,244.700103 110.358409,246.899803 101.064457,249.03147 C92.7525482,251.259147 84.225998,252.589581 75.6307634,253 C68.0595927,253 61.3044763,251.185815 56.2494731,245.74326 C43.4872901,231.887422 53.0985967,213.745571 60.1257312,200.411311 C61.9072184,197.210207 63.5188924,193.917434 64.9540526,190.54668 C68.4902881,181.611819 60.8511128,145.033314 55.1840689,124.056799 C54.5346435,121.639808 55.9650296,119.153384 58.3802816,118.500857 L101.449816,111.062699 C103.907861,110.651867 106.236524,112.302846 106.663496,114.759101 C106.980851,116.641318 114.506685,161.17956 114.914712,175.262172 C115.753435,202.474947 156.216128,209.595623 177.954909,213.405412 C189.651688,215.44637 193.59595,216.149367 194.434673,220.412701 C198.152254,239.098807 182.511212,243.475529 177.365536,244.926877 Z" id="Path"></path>
                    </g>
                </g>
            </g>
        </g>
    </g>
</svg>