<?xml version="1.0" encoding="UTF-8"?>
<svg width="168px" height="150px" viewBox="0 0 168 150" version="1.1" xmlns="http://www.w3.org/2000/svg" xmlns:xlink="http://www.w3.org/1999/xlink">
    <title>intersection-logo</title>
    <g id="intersection-logo" stroke="none" stroke-width="1" fill="none" fill-rule="evenodd">
        <path d="M64.8060369,0.257904031 C65.1559422,0.392582186 65.4562933,1.1238543 65.4691547,1.58879659 C65.546323,4.35953482 65.5432968,7.13292121 65.5474578,9.90517268 C65.5637237,20.5526914 65.5701544,31.2005885 65.5864203,41.8481073 C65.5883117,43.1650024 65.618952,44.4818975 65.6461879,45.7987926 C65.67645,47.2511225 65.8054421,47.3744514 67.3045498,47.4111474 C67.6824475,47.4202268 68.0611018,47.3956367 68.4389995,47.4054727 C69.9479424,47.443682 70.1454025,47.6767206 69.9982532,49.2240062 C69.838999,50.8972687 69.8393772,50.9176974 68.1401615,50.9366129 C65.487312,50.9661211 65.8338128,50.9324515 65.6877982,53.3018034 C65.6688844,53.6116389 65.6930941,53.9245008 65.6639669,54.2328229 C65.601173,54.8929729 66.1924184,55.7210922 64.981557,56.0547611 C63.340974,56.5064626 62.1838277,56.4069672 61.5744251,55.4589238 C60.9010939,54.4117633 60.2618074,53.3411476 59.6459741,52.2588044 C59.1330319,51.3588062 58.4457044,50.9400177 57.3638351,50.9604464 C53.7721045,51.0289204 50.1788609,51.0050869 46.5863738,51.0414046 C44.9979929,51.0572936 44.8285253,51.1946199 44.8145291,52.7642258 C44.7808625,56.536349 44.8012894,60.3084723 44.8050722,64.0805956 C44.8073418,66.2191788 44.8133942,68.3581403 44.828147,70.4967234 C44.8394953,72.1518272 44.9794574,72.3235796 46.6813211,72.3247146 C53.4225775,72.3303892 60.1645905,72.3088256 66.9062252,72.2963414 C67.2213291,72.2955847 67.536433,72.2823439 67.8515369,72.2785608 C70.1976046,72.2520792 70.353076,72.5028983 69.9770697,74.7492997 C69.8246245,75.6595122 69.3699367,75.6375702 68.6966055,75.6394618 C61.5850168,75.6587555 54.4730499,75.6992346 47.3614613,75.7325259 C46.9835636,75.7344174 46.6052876,75.7310126 46.2270116,75.7211766 C45.2820782,75.6973431 44.8447911,76.1448831 44.8633267,77.0978446 C44.8901843,78.483592 44.8750532,79.8700961 44.8852667,81.2562218 C44.9264988,86.9145959 44.9575174,92.5729699 45.0210678,98.231344 C45.0396033,99.90385 45.0827267,99.9235221 46.7081787,99.9469772 C48.4709448,99.9719457 50.2348457,99.9727023 51.9976119,99.9500037 C53.5614048,99.9307099 53.6510562,99.8236484 53.6726179,98.178759 C53.6866142,97.1073867 53.6646741,96.0360144 53.6726179,94.9650204 C53.6835879,93.5304711 53.7694566,93.3693113 55.088505,93.3696896 C58.1623757,93.3712028 61.2362464,93.4548092 64.3101171,93.4858306 C64.9293549,93.4918835 65.548971,93.3829304 66.168587,93.3757425 C71.0839053,93.3205094 75.9992235,93.2804086 80.9145417,93.2282019 C82.3580429,93.2126912 82.3830091,93.2020985 82.3765784,91.7815466 C82.3285374,81.1340278 82.2789832,70.4868874 82.2090021,59.8397469 C82.185549,56.2972575 82.0845493,52.7555246 82.0523959,49.2134135 C82.0376431,47.5927359 82.2948708,47.3078689 83.8911955,47.311652 C88.9623634,47.3237579 94.0437448,47.2038338 99.1016731,47.4826479 C102.598456,47.6755857 106.004453,48.4666307 108.949332,50.7380005 C111.198561,52.4733058 112.69086,54.6183202 113.46746,57.2585417 C114.443412,60.5755588 114.522472,63.9334332 113.649033,67.3238423 C112.512313,71.7353085 109.735768,74.6993628 105.744199,76.6597623 C105.293673,76.8810733 104.807588,77.0289923 104.34193,77.2219301 C102.909777,77.8158759 102.891998,77.8400877 103.694322,79.2443723 C105.6606,82.6866097 107.611748,86.1383049 109.624176,89.5533041 C111.282106,92.3666909 110.853074,92.4359557 112.799804,92.4319311 L113.110189,92.4311116 C113.494395,92.4302932 113.958192,92.4313201 114.525498,92.4485061 C118.214824,92.5604857 121.762296,93.3806606 125.172454,94.7694345 C125.643408,94.9612373 126.402608,95.5162173 126.348514,95.7397981 C126.120792,96.6885982 125.668752,97.5935143 125.198555,98.4598429 C125.149001,98.5510155 124.412876,98.3391622 124.037248,98.1723277 C121.132845,96.8860757 118.137656,95.9705669 114.934415,95.9043627 C114.531929,95.8960399 114.126417,96.0469854 113.72204,96.1237822 C113.851032,96.5191155 113.921013,96.9473618 114.119608,97.3037293 C115.039575,98.953915 115.989048,100.586698 116.939656,102.219104 C117.374295,102.965508 117.119715,103.247349 116.319661,103.212923 C116.068108,103.201952 115.80861,103.17774 115.564244,103.222759 C113.807909,103.547726 112.760084,102.799052 112.057626,101.191237 C111.506478,99.929575 110.707559,98.7745963 110.000183,97.5833 C109.054871,95.9898607 109.046171,95.9883474 107.32615,96.4014613 C101.305509,97.8466033 96.9742489,101.413683 94.2215345,106.916572 C90.102109,115.153125 90.2920035,128.692062 94.7870571,136.72395 C98.2524435,142.916118 103.649685,146.174497 110.761274,146.543349 C115.18332,146.772605 119.561865,146.504005 123.829196,145.252557 C124.852433,144.952558 125.020009,145.315735 125.053297,146.199844 C125.125926,148.142085 125.072211,148.324808 123.158135,148.782941 C118.473187,149.90425 113.757976,150.240945 108.920205,149.833506 C103.213155,149.352297 98.5338808,147.043474 94.6225071,142.986862 C92.0290469,140.297082 90.3082694,137.054592 89.2861677,133.524209 C86.9798189,125.55739 86.686655,117.514532 89.1431793,109.509883 C91.6556885,101.322889 96.9890017,95.8896087 105.238066,93.4010893 C105.47865,93.3284539 105.724907,93.2713291 105.9636,93.1918842 C107.088214,92.8162229 107.158573,92.667169 106.552197,91.6033629 C104.369923,87.7737366 102.136581,83.9728618 100.005374,80.1156189 C99.4334211,79.080186 98.7366367,78.7170089 97.5942432,78.7514351 C94.3380435,78.8494172 91.0791958,78.8550919 87.821483,78.9095684 C86.0517737,78.9392962 85.922371,78.9511462 85.9139691,80.4713723 L85.9134589,80.8079251 L85.9134589,80.8079251 C85.9183765,87.6133334 85.9471255,94.4187416 85.9319944,101.224528 C85.9308596,101.865763 85.8476389,102.936 85.5185388,103.06122 C84.7468558,103.354789 83.7947351,103.267399 82.9341572,103.170174 C82.7223227,103.14634 82.4495857,102.500944 82.4314284,102.129823 C82.3701477,100.8727 82.4333198,99.6099035 82.4068405,98.3497549 C82.3754436,96.8577025 82.2808746,96.7487494 80.7704185,96.7358868 C78.2495873,96.7139449 75.7283779,96.7411832 73.2071684,96.7449663 C68.4806099,96.7517758 63.7540514,96.7476144 59.0274929,96.7680431 C57.3744268,96.7756093 56.6443541,97.8257963 57.3358426,99.3250366 C57.4969882,99.6745945 58.2274392,99.9273052 58.7029321,99.9386544 C59.899419,99.967406 61.0966625,99.9727969 62.2940952,99.9702906 L65.8863931,99.9545434 L65.8863931,99.9545434 C66.7057389,99.9526519 67.525463,99.9337364 68.3448088,99.9401677 C69.98577,99.9522736 70.8455914,101.364503 70.025489,102.799052 C69.8605607,103.087324 69.3116822,103.290854 68.9337845,103.301447 C66.0377035,103.380135 63.1397312,103.404347 60.2425154,103.436882 C59.8653742,103.441421 59.4878548,103.386188 59.1103353,103.379379 C57.3468126,103.345331 57.249974,103.419858 57.2435433,105.118467 C57.2295471,108.771423 57.2257643,112.424757 57.2412736,116.077713 C57.2503523,118.114909 57.2912061,118.127015 59.4186302,118.126258 C66.5408106,118.123988 73.662991,118.124367 80.7855496,118.128907 C82.4677429,118.130041 83.2912498,119.4685 82.5017878,120.955635 C82.381496,121.181864 82.0395345,121.381611 81.774363,121.420955 C81.217919,121.503805 80.6436961,121.486024 80.0770387,121.485268 C73.2113294,121.476945 66.3452419,121.458408 59.4795327,121.45576 C57.4608406,121.454725 57.2547332,121.512815 57.240959,123.139168 L57.2408954,123.656764 L57.2408954,123.656764 C57.2681312,130.271882 57.2779664,136.887001 57.2972585,143.50212 C57.3036892,145.682695 57.3131461,145.711068 59.5177386,145.719013 C66.6402972,145.743603 73.7628558,145.747764 80.8857927,145.766302 C82.6636899,145.77122 83.4690395,146.911444 82.7037871,148.491264 C82.5358326,148.837417 81.785333,149.05608 81.2977353,149.065916 C78.8408327,149.115475 76.3820388,149.072726 73.9240014,149.069699 C67.8727204,149.06289 61.8218176,149.064781 55.7709149,149.053054 C53.9434636,149.050027 53.9241715,149.035273 53.9124449,147.108543 C53.8772653,141.124445 53.8655387,135.140725 53.830359,129.157005 C53.793288,122.985643 53.7380597,116.81466 53.6941797,110.643298 C53.6813183,108.837249 53.7142283,107.029686 53.6612697,105.224772 C53.6086893,103.414561 53.5735096,103.400564 51.6828862,103.368408 C48.9732953,103.322254 46.2625696,103.330198 43.5537352,103.259833 C41.5484942,103.208004 41.56476,103.168282 41.5212583,101.204478 C41.4974269,100.122513 41.4490076,99.1082652 40.1352551,98.6085185 C35.1665999,96.7173497 30.1113196,95.6981841 24.7972985,96.7729612 C24.4281011,96.8474881 24.0641996,96.9560629 23.7052157,97.0718256 C20.5908694,98.0758588 20.5322367,98.1575737 20.5095401,101.402712 C20.497057,103.189467 20.497057,103.189467 18.5886546,103.223137 C16.8814951,103.253023 16.5958967,103.439152 16.4264291,105.110144 C15.7818468,111.478605 17.7870878,113.923619 22.9376937,116.580864 C26.2109158,118.270016 29.7648188,119.408349 33.1420668,120.908346 C34.9744357,121.722089 36.7852429,122.646299 38.4579793,123.745667 C43.663057,127.16634 45.0989926,131.792686 44.1234188,137.683342 C43.0528978,144.148272 38.6149639,147.477017 32.558387,148.894164 C28.3969728,149.868311 24.1629296,149.60879 19.9602834,149.129851 C18.10257,148.918376 16.2717142,148.466674 14.4336711,148.100092 C14.0054627,148.014594 13.579524,147.868189 13.1827124,147.685844 C12.1916293,147.230737 11.6321592,145.909681 12.0807945,144.778536 C12.5294298,143.647769 13.4565843,144.226204 14.1711476,144.446002 C15.1773617,144.75508 16.1419655,145.199216 17.1292659,145.573364 C17.3607708,145.661132 17.6085415,145.745873 17.851773,145.755331 C21.4306421,145.888117 25.0155637,146.19417 28.5868673,146.076894 C31.9149395,145.967562 34.9127767,144.774753 37.5266638,142.513975 C41.2572216,139.287753 42.154114,131.164693 37.2467396,127.399757 C35.1805961,125.814641 32.7437422,124.67139 30.3776259,123.53003 C28.1745465,122.467359 25.8636585,121.61465 23.5610925,120.777451 C20.9256437,119.819571 18.6340477,118.324114 16.508515,116.546438 C15.0230251,115.30407 13.994871,113.711387 13.387738,111.890962 C12.4696622,109.138005 12.477606,106.300306 13.0257279,103.490602 C13.4172436,101.483292 14.3315366,99.6579488 15.8344271,98.2298308 C16.6810088,97.4255449 16.9945996,96.5580814 16.9885472,95.3955366 C16.9310492,84.6227974 16.9231054,73.8496799 16.9034351,63.0765624 C16.8973827,59.8662286 16.9087309,56.6562731 16.8954913,53.4463176 C16.8876736,51.4881651 16.849145,51.3431156 15.1430041,51.3339808 L14.7915202,51.3334595 L14.7915202,51.3334595 C14.4136225,51.3338378 14.0353465,51.336486 13.6570705,51.3436739 C12.9712562,51.3565364 12.6175681,51.6936101 12.6194595,52.3949958 C12.6217291,53.2772133 12.5657443,54.1617008 12.6164333,55.0405136 C12.6720399,56.0150386 12.2725804,56.4500945 11.3026808,56.3937264 C10.9255396,56.3717844 10.5461288,56.3782157 10.1682311,56.3899433 C9.38217356,56.4149117 9.00843688,56.0536262 9.02735068,55.2569066 C9.04626448,54.438245 8.99179274,53.6165569 9.04134689,52.8005435 C9.10489726,51.7560311 8.6899285,51.3175705 7.62129882,51.3383775 C5.54229398,51.3796133 3.4606412,51.3781 1.38277118,51.3069778 C0.912195849,51.2907105 0.0924717765,50.9683909 0.0554007294,50.7013045 C-0.0690520716,49.8024413 0.033460722,48.8551545 0.191958362,47.9513732 C0.217681129,47.8057241 0.972720007,47.7293056 1.39260636,47.7217394 C3.46934155,47.6827736 5.54796812,47.6351066 7.62432503,47.6782338 C8.72662127,47.7009324 9.00843688,47.2439346 9.00389757,46.2066102 C8.9781748,40.0950214 9.01978516,33.982676 9.01940688,27.8710873 C9.01902861,19.5516847 8.99822343,11.2330388 8.99444067,2.9140145 C8.99368412,0.98879784 10.1784445,0.0706408656 11.9465065,0.730790812 C12.284307,0.85714616 12.5509915,1.61452163 12.5657443,2.08967827 C12.6364819,4.35650834 12.6145419,6.62636489 12.6149202,8.89508651 C12.6171898,20.992287 12.6164333,33.0894875 12.6164333,45.1863097 C12.6164333,45.5646191 12.6149202,45.9425502 12.6096243,46.3208596 C12.5978978,47.2299372 12.9754172,47.7346019 13.9536389,47.7308189 C18.0503679,47.7134166 22.1470969,47.7088769 26.2442041,47.7149299 C27.2485269,47.7164431 27.5273163,47.1784871 27.5186159,46.272436 C27.4959194,44.0037144 27.5280728,41.7349928 27.5212639,39.4662712 C27.4838145,27.3051364 27.4410694,15.1443799 27.4005938,2.98324513 C27.3990807,2.60531401 27.4119421,2.22624797 27.3922718,1.84907347 C27.3423393,0.900651744 27.7622257,0.561686499 28.7264512,0.478458426 C30.2637648,0.346050127 31.24123,0.776187943 32.1112647,2.1793376 C39.1460633,13.5259722 46.2655958,24.8196435 53.3737799,36.1205026 C55.481912,39.4723241 57.6369503,42.7950158 59.7704269,46.1309483 C59.8721832,46.2902166 59.9796135,46.44608 60.0719129,46.6106446 C60.4638068,47.3074906 61.1064977,47.6907181 61.7855031,47.295763 C62.129356,47.0960156 62.3177374,46.36777 62.3166026,45.8789942 C62.3079023,42.0365054 62.2178726,38.1943949 62.1898802,34.351906 C62.1727316,32.0051266 62.1760941,29.6580108 62.1802411,27.3108951 L62.1845843,23.7902635 L62.1845843,23.7902635 C62.1845843,16.8611481 61.9591318,9.93165434 61.9587535,3.00291722 C61.9587535,2.75096314 61.9519446,2.49863076 61.9534577,2.24667668 C61.9617797,0.313137207 62.9782073,-0.44537319 64.8060369,0.257904031 Z M168.243081,94.7002501 L168.243115,95.0484681 L168.243115,95.0484681 C168.241841,96.1501937 167.813225,96.4496002 166.787109,96.4382734 C163.646937,96.4046704 160.506012,96.442049 157.365463,96.4563963 L154.821519,96.4640892 C153.973475,96.4684783 153.125478,96.4779174 152.277858,96.5020813 C150.905682,96.5413478 150.790706,96.7116282 150.800884,98.0519728 C150.871755,107.670362 150.910583,117.289506 151.013119,126.907895 C151.087382,133.892034 151.241187,140.875419 151.367849,147.859181 C151.384059,148.739655 151.146567,149.33356 150.115927,149.283722 C149.680148,149.262956 149.240977,149.304488 148.80369,149.322233 C148.024113,149.354326 147.693886,149.018673 147.68597,148.20314 C147.667498,146.332698 147.524626,144.463389 147.511055,142.592948 C147.444708,133.429143 147.411158,124.265339 147.351596,115.101535 C147.316161,109.629908 147.258107,104.158281 147.202316,98.6866544 C147.180451,96.5379497 147.142,96.5069896 144.941241,96.5409702 C140.482801,96.610064 136.025115,96.6991686 131.566675,96.7376799 C130.982369,96.7429658 129.955122,96.6119518 129.89066,96.3540771 C129.670509,95.4739803 129.695012,94.4923194 129.850324,93.5884363 C129.885005,93.3849305 130.827811,93.2369262 131.353686,93.2346608 C135.289518,93.2185515 139.225518,93.2170413 143.161574,93.2178244 L149.065685,93.2191808 L149.065685,93.2191808 C150.949537,93.2191808 152.833472,93.1839836 154.717449,93.1371652 L160.369464,92.9854217 C162.253484,92.9389364 164.137503,92.9044057 166.02148,92.9054054 C168.126488,92.9064917 168.238624,92.9517062 168.243081,94.7002501 Z M30.8432836,7.41287019 C30.6794901,7.5460351 30.4805169,7.77264245 30.4877042,7.95574421 C30.5232621,8.8984913 30.6783553,9.83821191 30.6851643,10.7798241 C30.7702764,22.5562182 30.8387443,34.3326123 30.9064557,46.108628 C30.9140212,47.4240099 31.0668447,47.6264055 32.4233424,47.671046 C33.745417,47.7145515 35.0701395,47.7024456 36.3937272,47.6948795 C37.1506575,47.6907181 37.5989145,47.9536431 37.5380121,48.7965165 C37.5107762,49.1721778 37.5198549,49.5546486 37.5565476,49.9299315 C37.6514949,50.8949989 37.2395524,51.3281632 36.263222,51.3100043 C34.8768405,51.2846576 33.4893242,51.3258933 32.1033209,51.3043297 C31.3161286,51.2922238 30.9212085,51.631189 30.9291523,52.4180726 C30.9382309,53.2995336 30.913643,54.1847776 30.983624,55.0616989 C31.0528485,55.9280275 30.7816246,56.3986444 29.8529571,56.357787 C29.4758159,56.3411414 29.0952703,56.3373583 28.7188857,56.3638399 C27.8182105,56.4266393 27.4690618,56.0055809 27.5080242,55.1267681 C27.5469866,54.2460638 27.4857059,53.3608197 27.526938,52.4804937 C27.5693049,51.5778474 27.1532013,51.2195884 26.2895972,51.2434219 C24.9679009,51.2804962 23.6450698,51.288819 22.3233735,51.3236235 C20.5821691,51.3690206 20.5072704,51.4287935 20.5050008,53.150858 C20.4959222,59.7648417 20.501218,66.3788253 20.5023529,72.992809 C20.5023529,74.6940665 20.501218,76.3957023 20.5027311,78.0973381 C20.5057573,83.0130908 20.5042442,87.9288434 20.5178622,92.8445961 C20.5227798,94.6007085 20.5439632,94.5923856 22.1663889,94.1092845 C22.9497985,93.8762459 23.7437998,93.6609878 24.547258,93.5160953 C29.4962428,92.6221502 34.3283403,93.2819218 39.1018051,94.6578332 C41.470191,95.3406817 41.472839,95.3403034 41.4554383,92.7746089 C41.3945358,83.7886251 41.327581,74.8030196 41.2719744,65.8170358 C41.2383079,60.3758114 41.2186375,54.9349652 41.1966975,49.4937408 C41.189132,47.6087281 41.1928209,47.4529959 42.7762882,47.44566 L43.1145101,47.445703 C43.174546,47.4458838 43.2364533,47.4461124 43.3002903,47.4463302 C47.1450874,47.4584361 50.9902629,47.4591927 54.8350601,47.4364941 C56.0875319,47.4289279 56.1711309,47.2435563 55.565511,46.1600781 C55.4425713,45.939902 55.3060137,45.7276704 55.172104,45.5143039 L31.7042398,8.27882046 L31.7042398,8.27882046 L31.5089548,7.95423097 C31.4426619,7.84698025 31.3721135,7.74351262 31.2881362,7.65234005 C31.1746534,7.52901118 30.8962423,7.36974291 30.8432836,7.41287019 Z M91.10314,50.5885369 L89.2133527,50.6281005 C88.58368,50.6402288 87.9544034,50.6501454 87.3259415,50.6543941 C85.831373,50.6646084 85.7443696,50.7406486 85.7057854,52.301175 C85.6507084,54.5077782 85.6714077,56.7163184 85.6818905,58.9246649 L85.6864933,60.5808551 L85.6864933,60.5808551 L85.6988503,62.7852501 L85.6988503,62.7852501 L85.754583,67.1937038 L85.754583,67.1937038 C85.7784144,69.390925 85.8480172,71.5870112 85.8915189,73.7834757 C85.925942,75.5081884 85.980792,75.6107102 87.7204833,75.5951996 C91.1204279,75.5653131 94.5211291,75.5093233 97.9199389,75.4022617 C98.9825161,75.3689705 100.061359,75.2286177 101.094431,74.9785552 C105.362897,73.9465271 108.623636,71.6675911 109.700966,67.1910557 C110.14998,65.3267468 110.308099,63.3285164 110.208234,61.4116226 C110.054654,58.4577826 109.073406,55.7449257 106.785972,53.6687636 C104.739498,51.8112643 102.080218,51.077344 99.5692222,50.8023131 C96.7730934,50.4958824 93.9383468,50.5296079 91.10314,50.5885369 Z" id="Combined-Shape-Copy-4" fill="#1F2937"></path>
    </g>
</svg>