<?xml version="1.0" encoding="UTF-8"?>
<svg width="230px" height="230px" viewBox="0 0 230 230" version="1.1" xmlns="http://www.w3.org/2000/svg" xmlns:xlink="http://www.w3.org/1999/xlink">
    <title>Combined Shape</title>
    <defs>
        <linearGradient x1="100%" y1="0%" x2="0%" y2="100%" id="linearGradient-1">
            <stop stop-color="#00DAD1" offset="0%"></stop>
            <stop stop-color="#00F19F" offset="100%"></stop>
        </linearGradient>
    </defs>
    <g id="Page-1" stroke="none" stroke-width="1" fill="none" fill-rule="evenodd">
        <g id="2020-copy-5" transform="translate(-133.000000, -19771.000000)" fill="url(#linearGradient-1)">
            <g id="leveledup" transform="translate(133.000000, 19771.000000)">
                <path d="M115,0 C178.512746,0 230,51.4872538 230,115 C230,178.512746 178.512746,230 115,230 C51.4872538,230 0,178.512746 0,115 C0,51.4872538 51.4872538,0 115,0 Z M122.277571,47.2310473 C118.182841,43.1363176 111.543973,43.1363176 107.449243,47.2310473 L107.449243,47.2310473 L48.1617369,106.518553 C44.0527544,110.627536 44.0527544,117.289513 48.1617369,121.398495 C52.2707194,125.507478 58.9326963,125.507478 63.0416788,121.398495 L63.0416788,121.398495 L104.567,79.872 L104.567986,174.694832 C104.567986,180.452099 109.235174,185.119287 114.992441,185.119287 C120.749709,185.119287 125.416896,180.452099 125.416896,174.694832 L125.416896,174.694832 L125.416,80.027 L167.020624,121.630757 C171.115354,125.725487 177.754223,125.725487 181.848953,121.630757 C185.943682,117.536027 185.943682,110.897159 181.848953,106.802429 L181.848953,106.802429 Z" id="Combined-Shape"></path>
            </g>
        </g>
    </g>
</svg>