<?xml version="1.0" encoding="UTF-8"?>
<svg width="469px" height="100px" viewBox="0 0 469 100" version="1.1" xmlns="http://www.w3.org/2000/svg" xmlns:xlink="http://www.w3.org/1999/xlink">
    <title>productcamp-logo</title>
    <g id="productcamp-logo" stroke="none" stroke-width="1" fill="none" fill-rule="evenodd">
        <path d="M360.415172,80.1359438 C360.543665,80.2370454 360.695069,80.3082648 360.963511,80.4706251 C361.237062,80.3451196 361.337203,79.9778825 361.432523,79.5945088 L361.480562,79.4025217 C361.652755,78.7331711 361.896236,78.1295495 363.114536,78.800705 C363.179778,79.0432493 363.335664,79.3560169 363.33666,79.6692826 C363.349111,83.9867706 363.474617,88.309737 363.298809,92.6197544 C363.132465,96.6832432 360.919186,99.1385686 357.302437,99.793488 C352.87538,100.595827 349.343796,99.0439415 347.612617,95.422212 C348.791472,94.6617086 349.512133,95.2523812 350.122229,95.9630808 C352.154222,98.3277634 354.823206,98.2520617 357.472268,97.7445613 C360.294647,97.2036925 361.415231,95.2693145 361.158742,91.7691062 C360.616877,92.0514935 360.125314,92.2741163 359.668115,92.5520213 C355.881535,94.8584334 351.322001,94.1820984 348.673935,90.9099913 C346.187731,87.8375973 346.518927,83.4598468 349.460835,80.5149504 C352.63184,77.3409568 356.686862,77.2020043 360.415172,80.1359438 Z M260.576362,78.1823415 C262.484344,78.6340616 264.138327,79.5245529 265.379437,81.0878929 C267.893033,84.254914 267.7999,88.6301744 265.155818,91.6243764 C262.22138,94.9487774 258.42484,95.0568516 252.81594,91.7897249 L252.81594,99.4465551 C251.110992,99.747403 250.89601,98.9753849 250.867695,98.104734 L250.863881,97.9025071 L250.863881,97.9025071 L250.863135,97.6994391 L250.863135,97.6994391 C250.853672,93.2982808 250.860645,88.8971225 250.861641,84.4964623 L250.861641,78.9164489 L250.861641,78.9164489 C252.987763,77.9208718 252.610749,79.6301368 253.113767,80.572424 C255.315093,78.8601707 257.649395,77.4900692 260.576362,78.1823415 Z M336.198043,78.6649898 C336.312094,79.1371294 336.545674,79.6660453 336.549658,80.1979495 C336.571074,82.8480076 336.621375,85.5030461 336.491886,88.1486218 C336.311596,91.8246374 333.980282,94.071285 330.314227,94.3038686 C326.614306,94.5389423 323.70228,92.6588503 323.300862,89.1153128 C322.915381,85.7067434 323.217689,82.2204802 323.217689,78.7013465 C325.031542,78.3049086 325.007637,79.3233955 325.017099,80.2492474 C325.044491,82.734455 324.982735,85.2221528 325.067401,87.7048703 C325.160534,90.4580222 326.948489,92.2584281 329.541771,92.3714827 C332.348711,92.4944979 334.32841,90.8101348 334.475331,87.9753047 C334.608805,85.4133993 334.537088,82.840537 334.587888,80.2731532 L334.59336,79.9792831 C334.613804,79.1594858 334.728388,78.3546056 336.198043,78.6649898 Z M306.092517,73.9487729 C306.097746,74.5879543 306.100286,75.2271806 306.10128,75.8775052 L306.101544,77.1962271 C306.10061,78.3129519 306.097497,79.4809746 306.097497,80.7514685 C308.766481,78.8629099 311.155069,77.4634242 314.189612,78.2463393 C316.234057,78.7732631 317.751577,79.9795102 318.974758,81.5906619 C321.285154,84.6361618 320.868297,88.9327322 318.051894,91.7820053 C314.757873,95.1158691 311.126183,95.155214 306.450606,91.8577071 C305.814612,92.4189954 306.40379,94.3553656 304.594918,93.6486503 C304.268885,92.6893666 304.084863,87.4481436 304.077454,82.4022434 L304.077987,81.5147293 C304.088698,77.5382417 304.212069,73.8510152 304.465428,72.6952122 C305.698071,72.1867158 306.083552,72.8416353 306.092517,73.9487729 Z M299.402328,78.8535966 C300.006946,79.2136778 300.509466,79.7445859 301.058303,80.197302 C301.025433,80.3990073 300.992562,80.6017086 300.959692,80.8034138 C300.43974,80.885092 299.879946,81.1266402 299.410297,81.0086053 C298.788746,80.8517235 298.268794,80.3178271 297.649734,80.1161219 C296.491796,79.7376133 295.467333,80.0867377 294.875664,81.1595107 C294.330313,82.1476173 294.566881,83.1586336 295.45289,83.8349687 C296.302044,84.4839117 297.392746,84.8395106 298.176657,85.5457279 C299.248434,86.5124189 300.501995,87.5398704 301.009495,88.8093683 C301.797889,90.7830913 300.67581,92.7607986 298.746412,93.7767954 C296.933058,94.7320315 293.950808,94.2857898 292.787891,92.778728 C292.507993,92.4161566 292.611585,91.7577509 292.469645,90.7372719 C293.673401,91.3418895 294.298439,91.6880256 294.949872,91.9768875 C296.582439,92.69954 298.204548,92.3205334 298.91973,91.0764355 C299.682225,89.7516554 299.181199,88.4293656 297.490362,87.3795023 C296.575467,86.8112414 295.578893,86.3585252 294.720775,85.7180489 C292.612581,84.1467402 292.104583,81.9678257 293.306348,80.0708005 C294.639096,77.9675877 297.063045,77.4605854 299.402328,78.8535966 Z M271.210362,78.5058667 C271.766172,82.3248191 271.767852,86.068132 271.733535,89.7910642 L271.715774,91.6510878 C271.710454,92.2707001 271.706532,92.8900021 271.706407,93.5092496 L270.914527,93.9450325 L270.914527,93.9450325 C270.544485,93.4967986 269.861676,93.0540432 269.852711,92.5988368 C269.770037,88.310733 269.769539,84.0201391 269.850221,79.7325334 C269.858688,79.2733427 270.534525,78.826603 271.210362,78.5058667 Z M368.850335,73.7717703 C368.89217,75.0975464 368.878225,76.4248166 368.884202,77.7515888 L368.885063,78.0161235 L368.885063,78.0161235 L368.885251,79.7295063 C368.885157,79.8359598 368.885064,79.945042 368.884982,80.0571284 L368.8847,80.7687006 L368.8847,80.7687006 C369.92261,80.0540166 370.56458,79.5704221 371.244402,79.1500784 C375.525533,76.5050007 380.032773,78.7466679 380.361478,83.7320243 C380.54127,86.455792 380.633905,89.1925086 380.602528,91.9217547 C380.586093,93.3615814 380.412278,93.3745304 378.661178,93.6962627 C378.587468,92.8012891 378.470927,91.9327115 378.452998,91.0631379 C378.405684,88.6591104 378.426602,86.2535887 378.367336,83.8500592 C378.326995,82.2289468 377.617291,80.9584529 376.081841,80.3055256 C374.505054,79.634669 372.99849,79.8816956 371.622412,80.8837473 C369.902688,82.1353158 368.980821,83.833126 368.925041,85.9612407 C368.878723,87.701384 368.909601,89.4440176 368.877727,91.1851571 C368.862786,91.99148 368.777123,92.7968068 368.729312,93.5194593 C367.182905,94.124077 366.904004,93.3456442 366.896035,92.2788477 C366.880596,90.0396706 366.882588,87.8004935 366.881592,85.5613165 C366.879102,82.1607157 366.871134,78.760613 366.887569,75.3605102 C366.892051,74.4720112 366.978212,73.5840101 367.021541,72.7981068 C368.352795,72.217893 368.817465,72.721907 368.850335,73.7717703 Z M347.524116,78.8540448 C346.999184,79.2733925 346.649064,79.7480223 346.199834,79.8790062 C343.20364,80.750074 342.148298,81.9543289 342.003369,85.0909697 C341.896789,87.4003701 341.943106,89.7177391 341.899777,92.0311238 L341.898153,92.1260102 L341.898153,92.1260102 L341.894251,92.3164989 C341.87136,93.1409955 341.735219,93.9268953 340.101861,93.6527342 L340.101861,78.3206466 C341.081999,78.7604138 341.773276,79.0706912 342.656296,79.4671291 C343.936253,78.8739663 345.315319,77.1905992 347.524116,78.8540448 Z M278.630695,74.2958341 L278.632754,74.5056675 C278.633607,74.6102116 278.634758,74.7138084 278.638742,74.8147108 C278.680577,75.8710486 278.648205,76.9303746 278.648205,78.0031476 C279.820087,78.3378288 280.707092,78.5923261 281.655854,78.8637566 C281.234016,80.4490103 279.848973,79.704444 278.844929,80.6213313 C278.799608,81.1447688 278.667628,82.0153385 278.659161,82.8869043 C278.629777,85.9533219 278.657169,89.0207355 278.631271,92.087153 L278.629169,92.2731797 C278.614398,93.143099 278.493913,94.0073204 276.745203,93.571305 C276.681454,89.2757307 276.616709,84.868596 276.55296,80.5461276 C275.464748,80.1267799 274.670876,79.8209848 273.876008,79.5151897 C273.857083,79.3388844 273.838157,79.1625791 273.819232,78.9862738 C274.64697,78.6725101 275.474709,78.3592445 276.495188,77.9732653 C276.60376,76.2903963 276.717811,74.5188765 276.833356,72.7264392 C278.507592,72.5604266 278.617506,73.4205791 278.630695,74.2958341 Z M288.117003,74.104065 L288.117961,74.4968139 C288.118493,74.5613708 288.119647,74.6251391 288.122075,74.6876116 C288.16391,75.7554043 288.132036,76.8266832 288.132036,77.9696795 C289.21477,78.2874274 290.111735,78.5508893 291.065975,78.8312845 C290.809984,80.6033023 289.090758,79.5389959 288.133032,80.4020951 L288.133032,84.5522425 L288.133032,84.5522425 C288.129546,87.1251047 288.16142,89.698465 288.10315,92.2698332 C288.07526,93.5074566 287.997566,93.5059625 286.151838,93.5717035 L286.151838,80.6550982 C284.970991,80.1446097 284.143253,79.7865206 283.315016,79.4284316 C283.334938,79.2521263 283.354859,79.0753229 283.375279,78.8990176 C284.176621,78.6300773 284.978462,78.361137 285.984,78.0234675 C286.090082,76.3142025 286.200646,74.5372043 286.310214,72.7706649 C287.984274,72.4343961 288.108453,73.2501817 288.117003,74.104065 Z M312.143176,79.9600867 C308.621552,80.0118826 305.97249,82.8337637 306.066619,86.4320854 C306.159752,89.9865798 308.796363,92.4802541 312.354842,92.3786544 C315.761419,92.280541 318.545449,89.4123424 318.466759,86.0834591 C318.388567,82.7804737 315.42624,79.9112791 312.143176,79.9600867 Z M258.903454,79.9523672 C255.486916,79.9797592 252.823411,82.6925701 252.814924,86.1539314 C252.806478,89.6232613 255.417191,92.3081821 258.860125,92.3719309 C262.298078,92.4356797 265.254429,89.4907833 265.195163,86.0598023 C265.138387,82.7095033 262.26969,79.9249751 258.903454,79.9523672 Z M355.39047,79.9516699 C351.94654,79.9033603 348.968773,82.7889901 349.043977,86.204532 C349.122667,89.7480696 351.887274,92.2228184 355.132985,91.952882 C358.945961,91.9762898 361.331561,89.7779518 361.39282,86.1836144 C361.451588,82.7531314 358.79904,79.9999795 355.39047,79.9516699 Z M102.726083,19.2330668 C103.029886,21.0349668 103.339665,22.8737217 103.684307,24.9206562 C104.355662,25.1278399 105.117161,25.3629136 106.067417,25.6552617 C107.126245,23.7716835 108.127301,21.9921951 109.249877,19.9955624 L110.38712,20.4648612 L110.38712,20.4648612 L112.633613,21.3922949 C113.385243,21.702656 114.145687,22.0166986 114.932985,22.3418175 C114.452876,24.3942305 114.02556,26.2225265 113.572844,28.1569046 C114.326375,28.6385069 115.008686,29.0742898 115.816005,29.5902568 C117.398769,28.3302217 118.936211,27.1065433 120.748072,25.6637283 C122.1366,27.1463863 123.472835,28.572766 124.971929,30.1724628 C123.911606,31.6775324 122.880171,33.142261 121.884095,34.5566878 C123.169032,37.2550555 123.50471,37.4054629 126.064125,36.5264265 C126.993463,36.2066864 127.923797,35.8899344 129.154448,35.4695907 C130.033983,37.340718 130.865207,39.1097476 131.808491,41.1163411 C130.201323,42.1462828 128.697748,43.1099856 126.974538,44.214135 C127.146859,45.0164735 127.330137,45.8661257 127.53234,46.8054246 C129.441816,47.0863178 131.221304,47.3477876 133.343443,47.6595591 C133.499328,49.6651565 133.649736,51.5865856 133.810104,53.644477 C131.875228,54.0135229 130.26806,54.320314 128.240549,54.7072892 C128.072711,55.7297604 127.885449,56.8727567 127.686233,58.0839842 C129.622106,59.1114358 131.147097,59.9212449 132.820503,60.809744 C132.132215,62.7321692 131.498213,64.5021948 130.790004,66.4794041 C129.73765,66.3011066 128.869073,66.1651424 128.004978,66.0042762 C127.118471,65.8394258 126.235948,65.6501715 125.167657,65.4350192 C124.530169,66.4286043 123.920571,67.379358 123.244236,68.4332056 L123.694396,68.9902704 L123.694396,68.9902704 L124.586591,70.0944548 C125.330827,71.0155617 126.085665,71.9498491 126.916765,72.9782968 C125.59597,74.4674292 124.305554,75.9226951 122.859253,77.5542663 C121.891068,76.9232526 121.067314,76.4147562 120.274936,75.8624325 C119.534852,75.3454695 118.827639,74.7806949 117.983963,74.1456969 C116.938582,74.8793063 115.937526,75.5815393 114.777597,76.3953328 C115.289579,78.2749267 115.782637,80.0857914 116.353388,82.1830278 C114.50766,82.993335 112.728172,83.775254 110.758433,84.6398473 C109.645817,82.8489041 108.654224,81.2536896 107.536628,79.4542797 C106.456883,79.6599693 105.357714,79.8691451 104.187823,80.0922659 L103.972873,81.6297858 L103.972873,81.6297858 L103.550631,84.6512243 C103.479832,85.1577753 103.408394,85.668793 103.335681,86.1887442 L97.2217713,86.1887442 C96.9075095,84.1980879 96.5892635,82.1895023 96.2500999,80.0474425 C95.496071,79.8472314 94.8092771,79.6644516 93.9426917,79.4338602 C92.8734049,81.3154463 91.8658749,83.0894562 90.7188943,85.1075046 C88.7391948,84.3420208 86.9283301,83.642776 84.9018151,82.8598609 C85.312198,81.3811872 85.6568401,80.1271285 86.0084546,78.874564 C86.6265193,76.676226 86.6285114,76.676724 84.4202127,75.0859919 C83.0506093,76.2464195 81.6227355,77.4551568 79.867651,78.9417991 C78.4148753,77.5423134 76.9620996,76.1438238 75.3713675,74.6118601 C76.5935517,72.9474185 77.7061678,71.4323881 78.8770542,69.8371736 C78.29186,69.008439 77.7783832,68.2823002 77.1732675,67.4256755 C75.2911834,67.9839757 73.4932677,68.517872 71.3985215,69.1394229 C70.5189871,67.260327 69.7017074,65.5137092 68.7982672,63.5843115 C70.6225789,62.4552602 72.2207816,61.4666556 73.987321,60.372965 C73.7532433,59.5218188 73.5440675,58.7618134 73.2840919,57.817036 C71.3213257,57.6521856 69.4457161,57.4943077 67.2782564,57.3125239 L67.2782564,51.2364652 C69.0089371,50.8958075 70.849186,50.5342322 72.8393443,50.1427746 C73.0490181,49.2587579 73.2552057,48.3901803 73.523648,47.2576428 C71.6973441,46.267544 69.9113812,45.300355 67.8405409,44.1782763 C68.4745427,42.3494822 69.0846388,40.5864291 69.7958365,38.5340161 C71.9035316,38.9493794 73.8857213,39.3398409 75.9729969,39.75122 C76.4560934,39.0161165 76.8998449,38.3402795 77.4357333,37.5249919 C75.9655263,35.7758838 74.5406407,34.0805638 72.9484145,32.1865268 C74.3419237,30.6640259 75.6672018,29.2162306 77.1628087,27.5826672 C79.0035557,28.9019688 80.7252717,30.136106 82.6198068,31.4937565 C83.5327097,30.8199116 84.4336597,30.1550314 85.3864056,29.4513043 C84.7763096,27.3216955 84.2100408,25.3449843 83.5466547,23.0301055 C85.3844135,22.2118297 87.1599176,21.4219421 89.1560523,20.533443 C90.3488523,22.4339545 91.4714291,24.2224075 92.6697076,26.1313856 C93.735508,25.8544767 94.6713207,25.6119324 95.6678939,25.3529529 C95.9946066,23.2851007 96.3013978,21.341758 96.6345849,19.2330668 L102.726083,19.2330668 Z M457.573294,38.5575235 C460.767707,39.2871486 463.328118,40.9969116 465.448264,43.4582135 C469.891756,48.617385 469.74085,57.7832691 464.762965,62.8687311 C462.856477,64.8165561 460.653656,66.2070771 458.011567,66.8744475 C455.383422,67.5383316 452.677086,67.7245977 450.19138,66.6358875 C447.821219,65.5969811 445.657744,64.0844409 443.054502,62.5783751 L443.054502,76.7326038 L439.838673,76.7326038 L439.838673,39.1651293 L442.962863,39.1651293 C443.077411,40.55067 443.177517,41.756917 443.319956,43.4726566 C447.378962,39.1108432 451.990292,37.2820492 457.573294,38.5575235 Z M165.115353,41.7030792 C169.675385,45.9344066 171.008134,53.1992812 168.470632,58.932192 C166.695626,62.9418928 163.793063,65.7104838 159.500477,66.9212132 C155.234287,68.123476 151.548809,66.6975944 147.72637,64.0196462 L147.72637,76.7146247 L140.943596,76.7146247 L140.943596,39.1835069 L147.306026,39.1835069 L147.380607,39.4069342 L147.380607,39.4069342 L147.540623,39.8865425 C147.680846,40.3068541 147.839674,40.7828302 148.027683,41.3449901 C153.808405,37.3073993 159.625983,36.6091506 165.115353,41.7030792 Z M79.8492236,52.2439953 C79.7167456,62.0384028 87.1873096,73.2781154 100.502843,73.3060596 C113.011555,73.3328996 121.141521,63.3323045 121.279976,52.8665423 C121.434865,41.1766036 111.538858,31.6909794 100.736921,31.9947823 C89.1709934,31.5988425 79.9921604,41.618363 79.8492236,52.2439953 Z M34.9846017,40.5990792 C35.4696903,41.1361298 35.6636483,41.8249711 35.8231679,42.5104553 L35.8952817,42.8260293 C36.1814332,44.0828522 36.4848059,45.2468811 38.4205631,45.3418913 C39.372313,44.4862627 40.4072351,43.5549324 41.623941,42.4597477 C42.8212234,43.4010388 43.9622275,44.2975065 45.2461685,45.3065306 C44.670437,46.2772059 44.2017836,47.0392035 43.7610203,47.8156441 C42.7016944,49.682289 43.3112924,50.874093 45.4080307,50.993622 C46.3000161,51.0449199 47.1974798,51.0020887 48.3952603,51.0020887 C48.5685773,52.8104632 48.6995612,54.1780745 48.8395098,55.6343364 C47.6641411,55.9575628 46.709901,56.185166 45.7785707,56.4834906 C44.0961997,57.0238614 43.7191852,58.1603832 44.8945539,59.4134458 C45.5669047,60.131118 46.4623763,60.6386183 47.4579535,61.3926472 C46.2243143,62.9729205 45.3358153,64.1114345 44.2939206,65.4461753 C43.3476491,64.8789104 42.5398321,64.3415279 41.6856977,63.892796 C40.0177697,63.0172459 38.7417974,63.7169887 38.5669862,65.5831356 C38.5206687,66.0766909 38.5809312,66.5802069 38.5560293,67.0767504 C38.5356098,67.4841451 38.4619002,67.8895478 38.3642849,68.6834197 C36.9503561,68.8044428 35.5274627,68.9264621 33.9008719,69.0659126 C33.597567,68.038959 33.346058,67.1947853 33.1000274,66.3491174 C32.5223038,64.3614494 31.1761081,63.9779604 29.5943407,65.376948 C28.9204958,65.9735971 28.2919724,66.6230381 27.519516,67.3671063 C26.2569907,66.3580821 25.121465,65.4501596 23.876869,64.4555785 C24.6732311,63.0934456 25.3724759,61.8991515 26.0328738,60.7696022 C25.5648717,58.9165958 24.3411255,58.8987254 23.0706776,58.8792591 L22.752503,58.8732963 C22.0627947,58.855699 21.3767202,58.7927249 20.8069652,58.3924687 C20.631656,57.1752648 20.4349311,55.8076535 20.2655983,54.6287985 C21.5286217,52.8129534 24.7942543,54.4514971 24.9267323,51.1798881 C24.1089545,50.2714675 23.1806124,49.2385375 22.075467,48.0088827 C23.0013189,46.8185728 23.890316,45.6755765 24.8619874,44.4264982 C26.2161516,45.1740526 27.3611401,45.8065604 28.445866,46.4056996 C31.8031375,45.9430227 30.075445,43.0583889 31.068034,41.165846 C32.3335475,40.9825682 33.7559429,40.7768786 34.9846017,40.5990792 Z M106.554647,37.9486725 C111.736729,42.5007362 115.364933,50.2561778 112.895662,57.9090236 C111.664513,61.7229956 109.521457,64.920895 106.560126,67.583404 C105.174087,68.8294941 104.563991,68.8045922 102.660491,67.2995226 C103.419999,66.4319411 104.038561,65.6799043 104.70394,64.9721929 C111.585325,57.6555224 111.589808,47.8964756 104.712406,40.5793071 C104.101812,39.929368 103.525583,39.2470565 102.949353,38.5976155 C104.484305,36.9281934 105.208452,36.7658332 106.554647,37.9486725 Z M318.143085,1.70530257e-13 C319.781628,6.22048967 324.278908,9.95079133 329.264264,12.97886 C341.769989,20.568455 354.215948,19.5230741 366.363085,11.9529025 C371.05958,9.02444138 375.098665,5.37830809 377.6785,0.26395993 L377.6785,0.26395993 L379.864885,0.26395993 C380.029237,0.572743245 380.233433,0.781919038 380.243393,1.00055755 C380.347981,3.23226405 380.452569,5.4579941 380.502373,7.68970061 C380.616922,12.2517251 380.736451,16.8087691 380.781274,21.3707936 C380.836058,27.2675588 380.820619,33.1693044 380.841039,39.0660697 C380.841039,39.6487737 380.850999,40.2264973 380.85598,40.8092013 C380.870921,41.9148448 381.438684,42.6120974 382.58417,43.1948014 C382.71864,41.7798766 382.828209,40.5850844 382.957698,39.1851006 L382.957698,39.1851006 L386.060473,39.1851006 L386.060473,66.313707 L383.022443,66.313707 C382.85311,65.0830561 382.703699,63.9729302 382.504484,62.5136801 C375.790937,68.3656219 368.922999,69.3417756 361.980355,63.6287863 C357.054763,59.5752582 355.998923,52.5076066 358.304837,47.2239256 C361.746277,39.3245512 368.215785,37.0739192 376.552935,38.7468276 L376.552935,38.7468276 L376.552935,30.6044108 C375.50601,30.282036 362.746339,30.0950245 349.684444,30.060134 L348.084294,30.0566231 C347.550924,30.055707 347.017827,30.0550454 346.485778,30.0546396 L344.101253,30.0545433 C332.503772,30.0625482 321.976978,30.1951434 320.782684,30.4644622 L320.782684,30.4644622 L320.782684,38.6078751 C321.554144,38.7323845 322.18715,38.8419527 322.824638,38.9360818 C323.387421,39.0212463 323.950203,39.0959519 324.712201,39.2000418 L324.712201,39.2000418 L324.712201,44.3602094 C323.297276,44.5693852 322.097503,44.7432003 320.568528,44.9628349 L320.568528,44.9628349 L320.568528,66.35355 L313.735452,66.35355 C313.680668,59.1818085 313.625884,52.0947334 313.571099,44.9678153 C312.316045,44.7187965 311.369773,44.5245618 310.279071,44.3049272 L310.279071,44.3049272 L310.279071,39.2752455 C311.354832,39.0556109 312.296123,38.8568939 313.411727,38.6277966 L313.411727,38.6277966 L313.411727,30.2856667 L257.905436,30.2856667 C257.95524,33.3685195 256.954185,36.3363256 258.523003,39.2752455 C258.916453,40.0173215 258.846727,41.0432789 258.87661,41.9392486 C259.035982,46.7507899 258.971237,51.5712959 259.354726,56.3624176 C259.663509,60.2271894 263.718033,62.1252107 266.919917,60.1729033 C268.653088,59.1170636 269.275635,57.453618 269.290576,55.5157537 C269.315478,51.1131013 269.310498,46.7109469 269.335399,42.3082945 C269.34038,41.3321408 269.430027,40.3559871 269.494771,39.1706576 L269.494771,39.1706576 L275.904515,39.1706576 C276.038986,39.7184989 276.278044,40.2563795 276.278044,40.7987425 C276.283024,45.9484513 276.372671,51.1036385 276.173456,56.248367 C275.994162,60.804913 274.036874,64.5357127 269.629242,66.2937855 C263.099969,68.8980241 254.583526,67.1255083 252.551532,58.6638494 C252.143141,56.9804823 251.978789,55.2124488 251.938946,53.4837603 C251.849299,49.414793 251.85926,45.3413435 251.943926,41.2723762 C251.958867,40.4501162 252.496748,39.6437933 252.745767,38.8170509 C252.974864,38.0550533 253.288628,37.2781147 253.298589,36.501176 C253.373294,31.1871148 253.338432,25.8680732 253.408157,20.5540119 C253.492823,14.3285419 253.647215,8.10805219 253.781685,1.88756252 C253.786665,1.47867365 253.886273,1.07078085 253.98588,0.338167533 L253.98588,0.338167533 L256.356539,0.338167533 C259.419471,8.33714949 265.63,12.7348215 272.941192,15.6981453 C285.471818,20.7726504 296.866918,17.7002564 307.340649,10.0499008 C309.646563,8.36205137 311.58891,6.13084291 313.511335,3.98430083 C314.412783,2.97278646 314.875949,1.56881845 315.722622,1.70530257e-13 L315.722622,1.70530257e-13 Z M246.656211,28.2957077 L246.656211,66.3537492 L240.246965,66.3537492 C240.035797,65.7122768 239.820147,65.0578554 239.560171,64.2679677 C239.080561,64.5662922 238.718986,64.7540524 238.398748,64.9956007 C231.447637,70.2394386 221.326019,66.4189921 218.791505,57.5554169 C217.113617,51.6905261 217.949324,46.1772498 222.526289,41.6814643 C226.573343,37.7066262 232.587147,37.0223225 237.430563,39.9497876 C238.116858,40.3646529 238.797178,40.789479 239.882402,41.4563513 L239.882402,28.2957077 L246.656211,28.2957077 Z M200.898508,38.1732875 C209.324309,38.2320559 215.765429,44.1447583 215.812503,52.6621974 C215.857566,60.8708532 209.935401,67.0828763 201.114657,67.370742 C193.248651,67.4230359 186.66559,60.9176688 186.581421,53.0073375 C186.495261,44.9595478 192.942856,38.1175072 200.898508,38.1732875 Z M305.061679,41.0575726 C306.175789,41.8624014 307.110605,42.9157509 308.611193,44.3007935 C306.363549,45.5573424 304.651794,46.5145707 302.818517,47.5400301 C302.179535,47.062412 301.601313,46.6206527 301.012135,46.1928384 C297.920317,43.9451947 292.990741,44.0233866 290.040367,46.3631672 C287.236913,48.585411 286.165634,51.9272433 287.187109,55.2626012 C288.214561,58.6163864 290.882548,60.6603327 294.59492,60.9227985 C297.661836,61.140441 300.290478,60.094064 302.757259,57.8279929 C304.503877,59.034738 306.230573,60.2280361 308.088253,61.5124751 C304.514335,66.0899387 299.888064,67.4993851 294.702497,67.3400131 C287.035208,67.1039432 281.66188,62.7461142 280.140375,55.7785681 C278.435094,47.9683424 283.631619,40.0928738 291.518542,38.61171 C296.328091,37.7092658 300.955857,38.0922567 305.061679,41.0575726 Z M354.768421,44.6871711 C354.046765,45.1344088 353.303693,45.5955917 352.436609,46.1329742 C351.727404,45.5248703 351.102367,45.0098994 350.500239,44.4695286 C346.126473,40.541008 338.925347,40.7551642 335.004297,43.6412921 C330.759523,46.764984 329.684259,50.9425234 330.748068,55.7480882 C331.726214,60.1661798 336.07956,63.6061255 340.620169,63.9711871 C344.440616,64.2789743 347.849185,63.3620871 350.740791,60.7613347 C351.169104,60.3758536 351.640247,60.0371881 352.097446,59.6845774 C352.157708,59.6377619 352.251837,59.6342756 352.58104,59.5361622 C353.181674,59.9096904 353.929726,60.3753556 354.659849,60.8295659 C352.361904,65.8099419 345.194146,68.4156747 338.127491,66.8951659 C331.424403,65.4538451 326.658681,60.0800193 326.693846,53.0975321 C326.734881,45.2235576 331.837276,40.1460642 338.139444,38.6683866 C345.109978,37.0333292 352.442586,39.7162578 354.768421,44.6871711 Z M187.477341,39.0026197 C186.809971,40.7985433 186.159534,42.5496435 185.534995,44.2300224 C181.618427,44.2110969 180.376321,45.1568703 179.815531,48.9544071 C179.502265,51.0740551 179.594402,53.258448 179.57448,55.4149509 C179.541112,58.9684492 179.565516,62.5229436 179.565516,66.382735 L172.813122,66.382735 L172.813122,39.1908779 L178.259163,39.1908779 C178.365743,39.5066337 178.481288,39.8039622 178.56446,40.1097573 C178.648629,40.4175445 178.700923,40.7347945 178.821448,41.3080357 C181.298189,38.9991334 183.77742,37.0647554 187.477341,39.0026197 Z M408.478241,38.7459809 C411.208483,39.5986213 412.834078,41.660497 414.042317,44.5132563 C414.648927,43.7452824 415.062796,43.1805077 415.517504,42.6515918 C418.292072,39.4238101 421.686696,37.6273884 426.039545,38.3948644 C430.179731,39.1249875 433.262086,42.1859266 433.489689,46.5681595 C433.685418,50.344679 433.694144,54.1308804 433.672282,57.9184803 L433.646017,61.7062396 C433.637726,62.9687769 433.631829,64.2311627 433.63412,65.4930904 C433.63412,65.7172073 433.456321,65.9418223 433.284996,66.3462288 L430.314202,66.3462288 C430.256927,65.2958675 430.169273,64.4063724 430.165786,63.5173752 C430.150347,59.1983931 430.158814,54.8799091 430.153834,50.560927 C430.152837,49.7302002 430.172261,48.8964853 430.110006,48.0697429 C429.671733,42.2481813 424.156465,39.5503116 419.280178,42.8034933 C416.961813,44.3499 415.382536,46.508395 415.207227,49.3397388 C414.926832,53.8883162 414.854616,58.4503407 414.689766,63.0068867 C414.651915,64.0622284 414.596633,65.1175701 414.540853,66.3507112 L411.407698,66.3507112 C411.336977,65.4652003 411.210973,64.5951286 411.205993,63.7240608 C411.183581,59.5709253 411.21944,55.4182877 411.178103,51.2656502 C411.16947,50.3841236 411.094432,49.5023757 411.004933,48.6220297 L410.866331,47.302765 L410.866331,47.302765 C410.18402,40.7102412 403.052619,40.296372 399.557391,43.3329072 C396.904345,45.6383233 395.843525,48.5667844 395.787247,51.938499 C395.723498,55.7584474 395.760851,59.5798899 395.755372,63.4003364 L395.754922,63.7362083 L395.754922,63.7362083 L395.754874,66.3108682 L395.754874,66.3108682 L392.432963,66.3108682 L392.432963,39.1952108 C393.375749,39.1254855 394.307079,39.0557603 395.483444,38.9681057 C395.642816,40.2754544 395.77878,41.3895645 395.96156,42.8826812 C396.731028,42.1809462 397.313234,41.6599989 397.885977,41.1280948 C400.956379,38.2783236 404.511869,37.5073614 408.478241,38.7459809 Z M99.5121466,40.9705655 C103.506906,44.4314288 106.399509,50.5259149 104.595118,56.6154207 C103.679227,59.7072382 101.969464,62.3069945 99.6266953,64.4968658 C99.2705984,64.8285588 98.8268469,65.2912358 98.4199501,65.2953631 C97.663431,65.3026906 96.9039237,65.015821 96.1454124,64.8514686 C96.3411412,64.2055138 96.3441294,63.3643283 96.7654692,62.9464747 C98.6331102,61.096265 99.9972352,58.9532092 100.78015,56.4714878 C102.36142,51.4587394 100.706441,47.2169531 97.4945963,43.3895341 C97.0707663,42.8840259 96.617054,42.4034196 96.1996985,41.8924331 C96.1065655,41.7783825 96.1115458,41.5846458 96.0722009,41.4312502 C97.4233769,39.931161 98.1325824,39.7752752 99.5121466,40.9705655 Z M454.064619,41.5406375 C447.712149,41.5118825 443.061972,46.2541966 443.058982,52.7635481 C443.055498,59.2888368 447.682765,63.9967862 454.092011,63.9898214 C460.156117,63.9833392 465.030909,59.0343396 465.065471,52.8487125 C465.100634,46.4140667 460.387704,41.5691569 454.064619,41.5406375 Z M371.995891,41.5362724 C365.691233,41.5164147 360.924515,46.1680859 360.849809,52.4184578 C360.770123,58.8376645 365.511441,63.9231265 371.637304,63.9878714 C378.066969,64.062079 382.818248,59.3909843 382.858091,52.9563384 C382.897934,46.4619281 378.231322,41.5612381 371.995891,41.5362724 Z M34.5104699,47.4345468 C30.1187743,47.4555629 27.0533528,50.5792548 27.0867214,54.9993385 C27.1190938,59.3158304 30.3438873,62.5062593 34.6474302,62.4798633 C38.8732793,62.4534673 42.1169982,59.1395251 42.1135148,54.8509233 C42.1100257,50.568796 38.8757695,47.4142258 34.5104699,47.4345468 Z M92.2719747,44.1931676 C95.0923617,46.7555711 97.7120395,51.7942175 95.3702667,56.8139385 C94.5838653,58.4987997 93.3771202,60.0491908 92.1111086,61.4302491 C90.8993831,62.7510448 90.1204523,62.6006374 88.235878,61.0895913 C93.6729545,55.6709422 93.9528517,50.1905364 88.553626,44.7992793 C89.7917475,43.2244844 90.9656221,43.00734 92.2719747,44.1931676 Z M155.223828,44.5543279 C150.812211,44.5638072 147.319972,48.151172 147.343755,52.7654904 C147.367285,57.3230325 150.702643,60.8795191 155.00519,60.9333071 C159.255443,60.9865972 162.633632,57.4161656 162.655545,52.8486627 C163.075889,48.1691014 158.914785,44.5453798 155.223828,44.5543279 Z M232.563241,44.564604 C228.307012,44.5959804 224.981117,48.1972903 224.990559,52.7647932 C224.999544,57.2984295 228.394168,60.9271315 232.628484,60.930621 C237.006733,60.934602 240.322667,57.3377745 240.322169,52.5864957 C240.321671,48.0941965 236.876745,44.5327296 232.563241,44.564604 Z M193.549963,52.749852 C193.549963,57.3736332 196.752345,60.8504337 201.085272,60.9301197 C205.403258,61.0098057 208.564801,57.6191657 208.594185,52.8768516 C208.624566,48.0035537 205.718018,44.6642115 201.364672,44.5710785 C196.99987,44.4779455 193.549963,48.0882201 193.549963,52.749852 Z M10.700836,37.0079293 C11.5116412,38.2475449 12.5092105,38.36807 13.4988112,37.3027675 C13.9968488,36.7668791 14.4241651,36.1662457 15.1000021,35.3265543 C16.2385161,35.9560738 17.1469367,36.4585938 17.8626167,36.8545337 C17.7570327,38.408411 17.2256266,39.9159708 17.7405975,40.8398306 C18.0897219,41.4663619 19.9085552,41.2716292 21.5660243,41.5181578 C21.799604,42.1915046 22.1815988,43.2941599 22.594472,44.4849678 C21.7891452,44.8938567 21.2084333,45.1822205 20.6336979,45.481043 C18.952323,46.3555971 18.8432527,47.2376216 20.2820834,48.4139865 C20.7860974,48.8263616 21.3180016,49.2058663 22.025215,49.7437469 C21.5072559,50.7941082 21.0132026,51.7961598 20.4638671,52.9097719 C19.6844383,52.686153 19.0703579,52.5118399 18.4582697,52.3330444 C16.5836561,51.7871952 16.0014502,52.2498721 16.1757633,54.1658228 C16.2345318,54.8142677 16.3276648,55.4587284 16.4257782,56.2690356 C15.2857701,56.6365873 14.2174795,56.9802333 13.0700008,57.3497772 C12.581426,56.4637683 12.2253291,55.7241824 11.7835697,55.0398788 C11.0141016,53.8475767 10.1868612,53.7639064 9.18580557,54.7928521 C8.61854074,55.3750581 8.14640109,56.049899 7.51289726,56.8288298 C6.46701829,56.2471219 5.4883744,55.7027668 4.61282429,55.215686 C4.55185241,54.7174975 4.68867784,54.2300106 4.85188317,53.7544449 L4.95160062,53.4705458 C5.30209187,52.4819741 5.61772834,51.5470505 4.3110135,50.6770693 C3.32440101,50.7697043 2.28051419,50.8683158 1.072773,50.9813703 C0.698746758,49.8498289 0.369045865,48.8547497 -4.09983159e-12,47.7371534 C0.574237357,47.3895231 1.03243195,47.0712771 1.52499114,46.8222583 C3.7666584,45.6877286 3.82144254,44.9501349 1.76952761,43.347948 C1.38653669,43.0491254 1.0224712,42.726397 0.497041529,42.2876259 C1.07576122,41.243241 1.61961829,40.262107 2.09424812,39.4054823 C2.66488676,39.3003321 3.20605255,39.4731045 3.73258712,39.6606335 L4.01842596,39.7628038 C4.87212464,40.0642145 5.69387114,40.277016 6.54869646,39.2481024 C6.46004576,38.236588 6.36243039,37.1224779 6.27228559,36.0965204 C9.1584135,34.6487251 9.1584135,34.6487251 10.700836,37.0079293 Z M11.3741828,40.0479508 C8.08215424,40.0100999 5.30609263,42.6785854 5.25479476,45.9317671 C5.19901455,49.4738105 7.73302988,52.0307355 11.3129242,52.045237 C14.7473915,52.0591237 17.2316031,49.5714259 17.247621,46.1015979 C17.2639755,42.659162 14.7683091,40.0872958 11.3741828,40.0479508 Z M55.5172976,10.9706727 C57.5497891,11.4557614 59.4383477,11.9064854 61.4803018,12.3935662 C61.3154514,13.8538124 61.1261971,15.066534 61.0514915,16.2862281 C60.8766803,19.1185679 62.2916051,20.1221137 64.8540086,19.0199565 C65.9108444,18.5652482 66.9597116,18.0936065 68.3243346,17.4924752 L68.779281,18.2412115 L68.779281,18.2412115 L69.6812286,19.7257643 C70.2831775,20.7165775 70.892003,21.7187511 71.5411595,22.7871129 C70.3403908,23.7264118 69.2447081,24.5666013 68.1689469,25.4301985 C66.4128663,26.8401429 66.6668654,28.721729 68.7496587,29.6670044 C69.3517862,29.940427 70.0022233,30.1042814 70.6138135,30.3582806 C71.2109605,30.6053072 71.786692,30.9036318 72.66025,31.3155089 C72.196577,33.1965969 71.7518294,35.0009871 71.2458232,37.0558903 C70.0331016,36.9552867 68.9827403,36.932875 67.9537946,36.7695187 C65.5662023,36.390512 65.561222,36.3676023 64.1004777,38.668038 C64.8191459,40.2154408 65.5786533,41.8509963 66.4551995,43.7380608 C64.7155541,44.8506768 63.0705359,45.9040264 61.2691339,47.0559873 C59.9249304,45.5075884 58.6937814,44.0876832 57.5438126,42.7629032 C55.2762474,42.4665708 54.11831,43.4312697 53.6277429,45.4388592 C53.3971515,46.3811464 52.9638588,47.2736298 52.5300681,48.4360495 C50.5334353,47.9375139 48.7190843,47.4842997 46.6258323,46.9613602 C46.7219535,45.7889797 46.6915732,44.7291556 46.9151921,43.726606 C47.3315515,41.8569728 46.9694782,40.4440401 44.807497,39.6043487 C43.3303174,40.2547858 41.6778287,40.9824188 39.6533058,41.873408 C38.6188817,40.1297784 37.5934223,38.4020859 36.4733357,36.5145234 C38.0829932,35.2634529 39.5038945,34.1598016 40.8580588,33.1069501 C40.8356471,30.3124611 40.8092511,30.2855671 38.4072157,29.4000562 C37.4136307,29.0339986 36.4349868,28.6261058 35.3104179,28.1823543 C35.6366325,26.7161316 35.8906317,25.4282063 36.2188385,24.1597046 C36.3811987,23.5326752 36.6800213,22.9405085 36.9708753,22.1934521 C38.7533518,22.4140828 40.4586326,22.6247527 42.3959989,22.8653048 C42.8766052,22.2387735 43.4144858,21.5375366 43.9722879,20.8099036 C43.1639729,19.0871916 42.3984891,17.4561184 41.5443546,15.635791 C43.3168704,14.4883123 44.9589004,13.425002 46.8056238,12.2287157 C47.5740959,13.1909244 48.3385836,13.9489376 48.8640132,14.8468994 C49.9542176,16.7100581 51.4313971,16.9984219 53.4863003,16.1462795 C54.0954002,14.5929002 54.753806,12.9165057 55.5172976,10.9706727 Z M53.8384128,19.6684015 C48.4795282,19.7082445 44.1102443,24.1512379 44.0917539,29.5803458 C44.0728915,35.2211197 48.3151758,39.5166941 53.9350321,39.5472347 C59.5289905,39.5774547 63.9406076,35.2878568 64.012823,29.7481845 C64.0845405,24.3190766 59.3482028,19.6270643 53.8384128,19.6684015 Z M348.676256,26.4777313 C334.429539,26.4557925 319.868934,26.6368888 318.591318,27.0384615 C319.547551,28.4772922 320.802605,28.0743797 321.858445,28.0743797 C339.185173,28.0987836 356.511902,28.0943012 373.83863,28.0893209 C374.50102,28.0893209 375.183331,28.143607 375.815839,27.9941957 C376.164465,27.9100273 376.428425,27.4563151 376.811914,27.0877672 C375.80538,26.7228402 363.437442,26.5161168 350.350072,26.481248 Z M296.065078,26.4878348 L288.191103,26.4906202 C278.823016,26.4956005 269.454928,26.4906202 260.091821,26.5205024 C259.195354,26.5205024 258.303368,26.7446193 257.407399,26.8641484 C257.402418,27.1330887 257.402418,27.4070093 257.397438,27.6759497 C258.283945,27.8099218 259.170452,28.0544582 260.056959,28.0589406 C266.770008,28.0943012 273.484053,28.0788621 280.20258,28.0788621 C290.810781,28.0788621 301.418982,28.0893209 312.032163,28.064419 C312.928631,28.0589406 313.825099,27.8298433 314.726547,27.7053339 C314.726547,27.4319112 314.731527,27.1579905 314.736507,26.8840699 C313.760354,26.7491017 312.78918,26.5050632 311.813027,26.5050632 C303.939052,26.475679 296.065078,26.4906202 288.191103,26.4906202 Z M329.099912,14.158711 C328.163601,17.0876702 328.338412,23.721033 329.289166,25.7933675 C329.757322,25.0308719 330.39979,24.4835286 330.354967,23.9949537 C330.046183,20.7034232 331.440689,17.1618778 329.099912,14.158711 Z M269.863319,15.6383808 C269.649163,15.7524314 269.435007,15.8674781 269.220851,15.9815287 C269.624261,19.0897814 268.518618,22.3071043 270.00277,25.7834068 C270.650219,25.1658401 270.978923,25.0014877 270.983904,24.8271746 C271.053629,22.1870772 271.143276,19.5429956 271.06857,16.9083767 C271.05861,16.4750839 270.286651,16.0617127 269.863319,15.6383808 Z M323.462126,10.4289074 C322.630403,14.0645819 322.949147,23.8958442 324.224124,25.7834068 C324.592672,24.951684 324.986121,24.4785482 324.991102,24.0004321 C325.040407,20.1007977 325.030945,16.1961829 325.011023,12.2965484 C325.006043,11.2855321 324.54237,10.6077029 323.462126,10.4289074 Z M298.664834,15.9521445 C298.435737,16.3799588 298.027346,16.7988084 298.012405,17.2321011 C297.922758,19.7023676 297.887895,22.1776145 297.958119,24.647881 C297.962601,24.9367428 298.689736,25.2056831 299.476635,25.7580068 L299.476635,25.7580068 L299.476635,16.4596448 C299.207695,16.290312 298.933774,16.1214772 298.664834,15.9521445 Z M259.060884,7.98852317 C258.313827,12.8687937 258.672414,23.945648 259.862724,25.7485441 C260.23177,24.9462055 260.724329,24.3739603 260.73429,23.7962367 C260.799035,19.1694674 260.784094,14.542698 260.754211,9.91094832 C260.744251,8.85012822 260.291037,8.06820919 259.060884,7.98852317 Z M293.958379,17.9089342 C293.465321,18.4672344 292.797951,18.8756252 292.78799,19.2939768 C292.738186,21.3309506 292.169926,23.4575711 293.400576,25.7485441 C294.845384,23.9750322 295.024179,20.7084036 293.958379,17.9089342 Z M343.368689,20.7527289 C343.483238,19.787034 343.214298,18.9005271 341.550852,19.124644 C341.491087,21.2861272 341.032893,23.3579636 342.028968,25.7435638 C343.603458,24.6571991 343.472162,23.3076468 343.378867,22.0364229 L343.356538,21.7068006 C343.337364,21.3794043 343.331095,21.0593594 343.368689,20.7527289 Z M352.363248,18.7560962 C351.481722,20.5938549 351.979759,22.6203699 352.014622,24.568195 C352.019602,24.846598 352.572424,25.1210167 353.240293,25.7435638 L353.240293,25.7435638 L353.240293,18.8651664 C352.945952,18.8308018 352.657091,18.7909588 352.363248,18.7560962 Z M337.94506,18.8009196 C337.915177,17.8690912 337.342434,17.4756415 335.992752,18.1036669 C336.112281,20.290052 336.22185,22.6507502 336.421065,25.0014877 C336.436006,25.1857616 337.058553,25.3197338 337.964981,25.7435638 C337.964981,23.0691018 338.014785,20.9325205 337.94506,18.8009196 Z M326.445371,12.6103121 L325.743138,12.8488721 C325.4991,16.674299 325.583766,20.5086905 325.728197,24.34358 C325.743138,24.7126259 326.226235,25.0662326 326.649567,25.6439562 C327.032558,25.0308719 327.466847,24.6573437 327.471329,24.2793332 C327.530595,20.8926775 327.560976,17.5060218 327.471329,14.1243465 C327.461368,13.6113677 326.803959,13.1133301 326.445371,12.6103121 L326.445371,12.6103121 Z M363.90278,14.7419131 C362.373804,16.1812418 362.373804,16.1812418 362.333961,17.6106097 C362.144209,24.1344043 362.144209,24.1344043 363.544193,25.6389759 C364.30619,21.9883602 363.838035,18.6066849 363.90278,14.7419131 Z M264.594081,12.0973334 C263.7773,16.8884552 264.011377,23.8360797 265.10706,25.6334974 C265.425804,25.1155383 265.724627,24.8570568 265.729607,24.5925988 C265.773932,21.1018533 265.824234,17.6155901 265.754509,14.1293268 C265.744548,13.5864658 265.156864,13.0485852 264.594081,12.0973334 Z M339.952151,18.7805 C338.532744,20.5340904 338.597489,23.9406676 340.042296,25.6135759 C340.793835,23.1587486 340.664843,20.9818262 339.952151,18.7805 Z M358.678365,17.2067012 C356.880449,17.4910807 357.009939,18.6360691 356.975575,19.6724854 C356.800763,24.5328343 356.800763,24.5328343 358.628561,25.5792113 C359.056874,22.6905932 359.051893,20.0410332 358.678365,17.2067012 Z M355.550689,17.7301387 C355.03273,18.4517952 354.494849,18.8557037 354.489869,19.2586161 C354.479908,21.3155114 354.001792,23.44263 354.888299,25.5687526 C356.556725,24.3341173 356.855548,20.9972654 355.550689,17.7301387 Z M296.817114,17.3018264 C295.258257,18.2779801 295.103865,18.2874428 295.248296,20.0559743 C295.392727,21.8334705 294.436495,23.905805 296.209509,25.5642702 C297.28527,23.9102873 297.484485,20.7527289 296.817114,17.3018264 Z M302.45988,15.0501984 C300.746631,15.0252965 300.577298,15.8819212 300.577298,16.8486121 C300.572816,19.2386946 300.562357,21.6347535 300.6022,24.025334 C300.612161,24.4730698 300.846239,24.9168213 300.975728,25.3595768 C301.169963,25.4243216 301.369178,25.4890665 301.563413,25.5543095 C301.872196,25.1409383 302.420037,24.7420101 302.444939,24.3141958 C302.628715,21.230845 302.654115,18.1430119 302.45988,15.0501984 Z M277.677529,18.4318737 C276.726277,20.7482466 276.89561,24.0995416 278.180547,25.5393683 C279.335994,22.6651933 279.037172,19.2491534 277.677529,18.4318737 Z M272.293743,16.2011633 C271.247864,20.832913 271.601471,24.3834231 273.240014,25.534388 C274.171345,22.9844354 273.663346,20.4544044 273.623503,17.9936006 C273.618025,17.535406 272.976054,17.0876702 272.293743,16.2011633 Z M257.188262,5.56756238 C256.794813,12.0674511 256.635441,18.5469204 257.516967,25.534388 C258.627591,22.7299382 258.453278,7.36597616 257.188262,5.56756238 Z M281.641909,20.5390708 C281.542301,19.587819 281.412811,18.7062924 279.898777,19.0145777 L279.898777,19.0145777 L279.898777,25.5289095 C281.716614,24.6279595 281.970613,23.6717273 281.641909,20.5390708 Z M275.356674,17.4263358 C274.390481,18.9498328 273.927804,22.8449849 274.445265,24.4138033 C274.589696,24.8416177 275.082753,25.1553813 275.416439,25.5194468 C275.660477,25.4098786 275.904515,25.2998122 276.148554,25.1857616 C276.104976,24.5644597 276.137971,23.9359985 276.185907,23.3010006 L276.229216,22.7551303 C276.368847,21.0215638 276.48882,19.2411492 275.356674,17.4263358 Z M285.621229,19.1893889 C284.082293,20.5739334 284.899075,22.515782 284.874173,24.2190706 C284.869192,24.647881 285.586366,25.0861541 285.974836,25.5194468 C286.129725,25.4198393 286.288599,25.3152514 286.442493,25.2151459 L286.442493,25.2151459 L286.442493,19.363204 C286.16907,19.3034395 285.89515,19.2491534 285.621229,19.1893889 Z M310.059934,9.67637261 C308.371587,9.99063434 308.107129,11.2257676 308.107129,12.6596179 C308.117588,15.7280275 308.102647,18.7959392 308.112607,21.8638508 C308.112607,22.6955736 308.052843,23.5422375 308.202254,24.3485604 C308.421391,25.5040077 309.093741,25.8825162 310.149581,25.1259971 C310.119699,19.9762883 310.089817,14.8265795 310.059934,9.67637261 Z M371.069541,9.93086982 C370.681071,10.7476515 369.988301,11.5544724 369.963897,12.3861952 C369.849349,16.1961829 369.884211,20.0106529 369.953937,23.8256209 C369.95947,24.1413214 370.115645,24.4537939 370.299489,24.7656857 L370.525512,25.1398465 C370.600033,25.2645868 370.671111,25.3894037 370.730875,25.5144665 C371.034678,25.4547019 371.333501,25.3999178 371.637304,25.3446356 C371.905478,22.6417089 371.912141,19.9298293 371.885347,17.2170833 L371.859507,14.8918489 C371.84391,13.3418027 371.838664,11.7922279 371.886322,10.2446335 C371.612402,10.1400456 371.338481,10.0354577 371.069541,9.93086982 Z M314.746468,4.11877099 C314.178705,4.87578814 313.884863,5.26425747 313.591021,5.65272681 C313.620903,12.2661681 313.646303,18.8850879 313.670707,25.4995253 C315.025369,25.5991328 315.060232,24.6678025 315.065212,23.7115703 C315.079655,17.7047388 315.100075,11.7038837 315.100075,5.69755019 C315.100075,5.34394349 314.945683,4.98485838 314.746468,4.11877099 Z M312.530201,7.21656488 C312.027681,7.8485746 311.519184,8.47660002 311.016166,9.1041274 L311.016166,9.1041274 L311.06099,25.110558 C311.534126,25.2350674 312.012242,25.3645571 312.490358,25.494545 C312.505299,19.3985647 312.51526,13.3070667 312.530201,7.21656488 Z M373.998002,7.53481091 C373.450161,8.21762047 372.932201,8.56126641 372.927221,8.91487311 C372.852017,14.2782401 372.842555,19.6475835 372.857496,25.0109504 C372.857496,25.1658401 373.355533,25.3252122 373.619493,25.4796038 C374.510981,23.9207461 374.804823,11.8483146 373.998002,7.53481091 Z M368.325354,11.8682361 C367.941865,12.7891076 367.473709,13.4420349 367.408964,14.1293268 C366.881045,19.6226816 367.289435,24.1896864 368.459824,25.469145 C369.645153,23.5073749 369.655114,13.9848959 368.325354,11.8682361 Z M283.036414,19.3681844 C281.851084,21.1461786 281.890927,23.7459349 283.266009,25.469145 C284.674958,23.3380421 284.511103,20.4544044 283.036414,19.3681844 Z M320.931597,7.8988764 C320.787664,8.23256159 320.613351,8.43675701 320.613351,8.64095243 C320.588449,13.6860734 320.558069,18.7262139 320.588449,23.7713348 C320.59343,24.3236585 320.942056,24.8769783 321.13131,25.4298001 C321.39029,25.4198393 321.649269,25.4098786 321.908249,25.3949374 C322.097503,24.9018802 322.45111,24.4038426 322.45609,23.905805 C322.500914,19.3587217 322.490953,14.8116383 322.476012,10.264555 C322.476012,9.19825651 321.988433,8.42181588 320.931597,7.8988764 Z M331.097043,15.8077136 C330.967553,19.0344992 330.92771,22.157693 331.107003,25.2798907 C331.45563,25.3301925 331.804256,25.3794983 332.147902,25.4298001 C333.172437,23.8798715 333.102,22.1675496 332.976579,20.4489648 L332.934163,19.8760855 C332.878696,19.1125081 332.835194,18.3511204 332.894958,17.6056293 C332.964684,16.6887421 332.611077,15.8276351 331.097043,15.8077136 Z M376.468268,4.11877099 C376.010074,5.39374725 375.387527,6.34499908 375.367605,7.31069399 C375.272978,12.7891076 375.307841,18.2729997 375.337723,23.7514133 C375.342205,24.3092155 375.646506,24.8615392 375.805878,25.4148589 C376.029995,25.3949374 376.254112,25.3750159 376.478229,25.350114 C377.215325,23.1089448 376.831836,20.7283251 376.941404,18.4119522 C377.050972,16.091595 377.041012,13.7652613 377.220305,11.4548649 C377.469324,8.33216912 377.339834,5.85194185 376.468268,4.11877099 Z M304.491874,13.2328591 C303.854386,14.0541231 303.221878,14.4874159 303.211917,14.9361477 C303.126753,18.3626465 303.162113,21.7936275 303.162113,25.4098786 C305.014813,25.3949374 305.059637,24.4636071 305.059637,23.5521983 C305.055154,20.7527289 305.034735,17.9537576 304.979951,15.1602647 C304.97497,14.7070504 304.760814,14.2632989 304.491874,13.2328591 Z M291.513014,18.4717167 C290.960192,18.8850879 290.342626,19.1141852 290.312743,19.403047 C290.118509,21.3857347 289.764902,23.4077674 290.586664,25.3999178 C292.304894,24.5183912 292.638579,22.1073912 291.513014,18.4717167 Z M307.305786,11.9280006 C305.682184,12.1272157 305.616941,13.1979965 305.616941,14.3086204 C305.612458,17.45572 305.597517,20.608298 305.63238,23.7563937 C305.63736,24.2892939 305.851517,24.8216961 305.966065,25.3252122 C307.539864,25.6688581 307.62453,24.7171083 307.629511,23.7608761 C307.639472,20.2004052 307.634491,16.634456 307.609091,13.0734871 C307.609091,12.7044412 307.420833,12.3363915 307.305786,11.9280006 Z M360.720319,16.091595 C358.563817,18.3721092 359.833812,21.0420888 359.53499,23.4077674 C359.430402,24.2544313 359.450323,25.2853692 360.750202,25.3844786 C361.671571,23.5422375 361.706932,18.3327642 360.720319,16.091595 Z M262.133776,10.4936523 C261.356837,13.2926237 261.53115,23.6363666 262.407696,25.3700355 C262.696558,25.0507934 263.144792,24.7818531 263.149772,24.5079325 C263.174674,20.2053856 263.159235,15.9018427 263.085027,11.6037781 C263.075067,11.2556499 262.517265,10.9214666 262.133776,10.4936523 Z M267.462778,14.2538362 C267.273524,14.3285419 267.08925,14.4027495 266.899996,14.4779531 C266.899996,17.8890127 266.880074,21.3010683 266.939839,24.7126259 C266.944819,24.9367428 267.512582,25.1459186 267.826844,25.3700355 C268.623206,24.0502359 269.071938,17.8596285 268.488735,15.8923799 C268.314422,15.2942368 267.816385,14.7961992 267.462778,14.2538362 Z M334.349228,16.7440242 C334.125111,16.8286906 333.896014,16.912859 333.671897,16.9975254 C333.692317,19.7969948 332.850135,22.6557306 334.593267,25.3700355 C336.002713,23.1288663 335.365225,20.6785213 335.385146,18.3272858 C335.388052,18.0196231 335.158781,17.7116214 334.895052,17.4036762 L334.665171,17.1397463 C334.550622,17.0077974 334.44012,16.8758797 334.349228,16.7440242 Z M347.985498,18.6863709 C347.238441,19.4732703 346.605934,19.8318574 346.595973,20.2053856 C346.55613,21.9435368 345.928603,23.7912563 347.532284,25.3595768 C348.827181,23.3778851 348.5433,21.3553544 347.985498,18.6863709 Z M319.129199,5.07500319 L318.755671,5.23387718 L318.755671,25.1708205 C318.979788,25.2201262 319.203905,25.270428 319.428022,25.3197338 C319.607315,24.8172138 319.935522,24.3092155 319.941,23.8056994 C319.980843,18.3327642 320.000765,12.8643113 319.93104,7.39038001 C319.921079,6.61891976 319.4081,5.84696147 319.129199,5.07500319 L319.129199,5.07500319 Z M344.673548,19.1390871 C343.483238,21.6491966 343.712335,24.2838155 345.10684,25.310271 C346.346954,23.3724067 346.217464,20.6237372 344.673548,19.1390871 Z M350.191306,19.2690749 C349.056279,21.2557469 349.220631,23.2628384 350.156942,25.2853692 L350.156,25.284 L350.279246,25.023548 C351.100098,23.1906251 351.177022,21.3542724 350.320097,19.5296533 Z M288.41522,19.2785376 C287.344439,21.2662057 287.449027,23.2628384 287.962006,25.2654477 C288.305652,25.2654477 288.644317,25.2654477 288.982983,25.2599692 C289.217061,23.2583561 289.580628,21.2557469 288.41522,19.2785376 Z M365.730578,13.7159556 C365.406853,14.3136007 364.948659,14.7717953 364.944176,15.2299899 C364.938133,15.6722473 364.929275,16.1146729 364.919993,16.5571995 L364.893266,17.8850147 C364.850707,20.3196509 364.867678,22.7553049 365.342108,25.1807813 C366.726653,23.6468254 366.836221,15.9372033 365.730578,13.7159556 Z" id="Combined-Shape-Copy-5" fill="#1F2937"></path>
    </g>
</svg>