<?xml version="1.0" encoding="UTF-8"?>
<svg width="151px" height="160px" viewBox="0 0 151 160" version="1.1" xmlns="http://www.w3.org/2000/svg" xmlns:xlink="http://www.w3.org/1999/xlink">
    <title>uxcamp-logo</title>
    <g id="uxcamp-logo" stroke="none" stroke-width="1" fill="none" fill-rule="evenodd">
        <path d="M74.9143538,24.0335389 C76.9172521,25.7264025 78.8790513,27.3844443 80.8344446,29.0370049 L83.1800618,31.0193244 C87.4828641,34.6556386 91.8218263,38.3222272 96.5663581,42.3315091 C96.770569,39.4733327 96.9564292,36.8751187 97.1399367,34.3121618 L97.2970259,32.1187351 C97.4280752,30.2893399 97.5602563,28.4451771 97.6993994,26.5043572 L119.929217,26.5043572 L119.929217,26.5043572 L119.929217,62.5549877 L119.929217,62.5549877 C130.484193,71.9644054 140.527229,80.9187712 150.570266,89.8731371 C150.047035,90.9223887 149.523803,91.9716403 149.000571,93.0208919 C143.777665,93.5511589 138.556641,94.0833062 132.44537,94.7038313 L132.44537,160 L132.44537,160 L17.8877476,160 L17.8877476,160 L17.8877476,94.8222952 L17.8877476,94.8222952 C11.3529981,94.0306556 5.99646085,93.3819247 0.639923631,92.7331939 C0.42724313,91.5391531 0.214562629,90.3469927 1.73372428e-12,89.1529519 C24.7217556,67.6639781 49.4435112,46.1731239 74.9143538,24.0335389 Z M100.168752,137.177837 C99.0394747,137.177837 98.3261481,137.929989 98.3261481,139.112748 C98.3261481,139.904387 98.5821176,140.523032 99.3481438,141.677585 L99.967364,142.591449 C100.586584,143.411294 100.73339,143.761045 100.73339,144.351484 C100.73339,144.92876 100.545177,145.239023 100.168752,145.239023 C99.6850448,145.239023 99.5231817,144.943804 99.5231817,144.014896 L99.5231817,143.625658 L98.2885055,143.682069 C98.2753306,143.896432 98.2753306,143.977289 98.2753306,144.165327 C98.2753306,144.943804 98.3694371,145.32176 98.6649312,145.724161 C99.0150071,146.194256 99.4855392,146.408619 100.157459,146.408619 C101.328143,146.408619 101.986888,145.737324 101.986888,144.541402 C101.986888,143.776088 101.663162,142.862224 101.085348,142.016053 L100.452953,141.102189 C99.6191703,139.853617 99.5645885,139.731392 99.5645885,139.180441 C99.5645885,138.644533 99.7528014,138.347433 100.089702,138.347433 C100.372022,138.347433 100.573409,138.548634 100.614816,138.911547 C100.641166,139.099585 100.654341,139.261298 100.654341,139.716349 L101.877724,139.596005 L101.877411,139.280188 C101.875842,138.835601 101.866431,138.76143 101.809968,138.48094 C101.63493,137.661095 101.015709,137.177837 100.168752,137.177837 Z M73.6175674,137.177837 C72.9851723,137.177837 72.4205338,137.459894 72.1250397,137.903664 C71.8822451,138.292902 71.8427204,138.522308 71.8427204,139.582842 L71.8427204,143.990451 C71.8427204,145.050985 71.8822451,145.280391 72.1250397,145.66963 C72.4205338,146.126562 72.9851723,146.408619 73.6175674,146.408619 C74.2499625,146.408619 74.814601,146.126562 75.1100952,145.66963 C75.3528897,145.280391 75.3924144,145.064148 75.3924144,143.990451 L75.3924144,139.582842 C75.3924144,138.522308 75.3528897,138.292902 75.1100952,137.903664 C74.814601,137.459894 74.2499625,137.177837 73.6175674,137.177837 Z M59.751928,137.177837 C58.5812442,137.177837 57.9902559,137.903664 57.9902559,139.327111 L57.9902559,144.257465 C57.9902559,145.682793 58.5812442,146.406739 59.751928,146.406739 C60.9753114,146.406739 61.5681819,145.628262 61.5681819,144.029939 C61.5681819,143.78737 61.555007,143.573007 61.5418321,143.08975 L60.2920989,143.08975 C60.3052738,143.505313 60.3184487,143.747882 60.3184487,144.016777 C60.3184487,144.972009 60.1979924,145.240903 59.7538102,145.240903 C59.3510347,145.240903 59.2437534,145.037822 59.2437534,144.259345 L59.2437534,139.328991 C59.2437534,138.550514 59.3510347,138.347433 59.7538102,138.347433 C60.1979924,138.347433 60.3184487,138.616327 60.3184487,139.611048 C60.3184487,139.825411 60.3184487,139.945756 60.2920989,140.227812 L61.5418321,140.227812 C61.5681819,139.878062 61.5681819,139.731392 61.5681819,139.515149 C61.5681819,137.956314 60.9621365,137.177837 59.751928,137.177837 Z M48.2897665,137.177837 C47.1190827,137.177837 46.5280944,137.903664 46.5280944,139.327111 L46.5280944,144.257465 C46.5280944,145.682793 47.1190827,146.406739 48.2897665,146.406739 C49.5131499,146.406739 50.1060203,145.628262 50.1060203,144.029939 C50.1060203,143.78737 50.0928454,143.573007 50.0796705,143.08975 L48.8299373,143.08975 C48.8431122,143.505313 48.8562871,143.747882 48.8562871,144.016777 C48.8562871,144.972009 48.7358309,145.240903 48.2916486,145.240903 C47.8888732,145.240903 47.7815919,145.037822 47.7815919,144.259345 L47.7815919,139.328991 C47.7815919,138.550514 47.8888732,138.347433 48.2916486,138.347433 C48.7358309,138.347433 48.8562871,138.616327 48.8562871,139.611048 C48.8562871,139.825411 48.8562871,139.945756 48.8299373,140.227812 L50.0796705,140.227812 C50.1060203,139.878062 50.1060203,139.731392 50.1060203,139.515149 C50.1060203,137.956314 49.499975,137.177837 48.2897665,137.177837 Z M80.5118035,137.177837 C79.3411197,137.177837 78.7501314,137.903664 78.7501314,139.327111 L78.7501314,144.257465 C78.7501314,145.682793 79.3411197,146.406739 80.5118035,146.406739 C81.7351869,146.406739 82.3280573,145.628262 82.3280573,144.029939 C82.3280573,143.78737 82.3148824,143.573007 82.3017075,143.08975 L81.0519743,143.08975 C81.0651492,143.505313 81.0783241,143.747882 81.0783241,144.016777 C81.0783241,144.972009 80.9578679,145.240903 80.5136856,145.240903 C80.1109101,145.240903 80.0036288,145.037822 80.0036288,144.259345 L80.0036288,139.328991 C80.0036288,138.550514 80.1109101,138.347433 80.5136856,138.347433 C80.9578679,138.347433 81.0783241,138.616327 81.0783241,139.611048 C81.0783241,139.825411 81.0783241,139.945756 81.0519743,140.227812 L82.3017075,140.227812 C82.3280573,139.878062 82.3280573,139.731392 82.3280573,139.515149 C82.3280573,137.956314 81.722012,137.177837 80.5118035,137.177837 Z M69.0176458,137.177837 C67.8337871,137.177837 67.2427988,137.903664 67.2427988,139.327111 L67.2427988,144.069427 C67.2427988,144.874229 67.2973805,145.239023 67.4987682,145.613219 C67.7547377,146.098356 68.2516196,146.404858 68.7767334,146.404858 C69.2077407,146.404858 69.5841664,146.162289 69.9323602,145.652706 L70.120573,146.273232 L70.7924928,146.273232 L70.7924928,141.718953 L68.991296,141.718953 L68.991296,142.781367 L69.5427596,142.781367 L69.5427596,144.071308 C69.5427596,144.635421 69.5295847,144.770809 69.475003,144.917478 C69.3808966,145.133722 69.2058586,145.254066 69.0044709,145.254066 C68.8162581,145.254066 68.6675699,145.160047 68.5885205,144.985172 C68.5143333,144.836935 68.4970805,144.756641 68.4947202,144.227219 L68.4944141,139.328991 C68.4944141,138.550514 68.6016954,138.347433 69.0044709,138.347433 C69.4486532,138.347433 69.5691094,138.616327 69.5691094,139.611048 C69.5691094,139.812249 69.5691094,139.932593 69.5427596,140.227812 L70.7924928,140.227812 C70.8188426,139.878062 70.8188426,139.705067 70.8188426,139.515149 C70.8188426,137.956314 70.2127973,137.177837 69.0176458,137.177837 Z M95.113355,137.313225 L93.9294963,137.313225 L93.9294963,146.273232 L95.1792295,146.273232 L95.1792295,142.632817 L95.3542675,142.632817 C96.1071188,142.632817 96.6585824,142.431617 96.9823085,142.055541 C97.3455592,141.638097 97.4528406,141.183045 97.4528406,139.987124 C97.4528406,138.872059 97.3455592,138.415127 96.9954834,137.931869 C96.6322326,137.446732 96.2162822,137.313225 95.113355,137.313225 Z M65.2195108,137.313225 L63.6065268,137.313225 L62.3812613,146.273232 L63.5914698,146.273232 L63.8060324,144.257465 L64.9353094,144.257465 L65.1649291,146.273232 L66.3883125,146.273232 L65.2195108,137.313225 Z M85.9812684,137.313225 L84.3682844,137.313225 L83.1430189,146.273232 L84.3532274,146.273232 L84.56779,144.257465 L85.697067,144.257465 L85.9266867,146.273232 L87.1500701,146.273232 L85.9812684,137.313225 Z M89.583662,137.313225 L88.1043092,137.313225 L88.1043092,146.273232 L89.1526546,146.273232 L89.1526546,139.945756 L90.2010001,146.273232 L90.7392888,146.273232 L91.7876343,139.945756 L91.7876343,146.273232 L92.8642117,146.273232 L92.8642117,137.313225 L91.358509,137.313225 L90.4701445,141.773484 L89.583662,137.313225 Z M52.3608101,137.313225 L51.1110769,137.313225 L51.1110769,146.273232 L52.3608101,146.273232 L52.3608101,142.162723 L53.3828058,142.162723 L53.3828058,146.273232 L54.632539,146.273232 L54.632539,137.313225 L53.3828058,137.313225 L53.3828058,140.995007 L52.3608101,140.995007 L52.3608101,137.313225 Z M56.9513211,137.313225 L55.7015879,137.313225 L55.7015879,146.273232 L56.9513211,146.273232 L56.9513211,137.313225 Z M73.6175674,138.345553 C73.9939931,138.345553 74.1407991,138.561796 74.1407991,139.071379 L74.1407991,144.513197 C74.1407991,145.022779 73.9789361,145.239023 73.6175674,145.239023 C73.2411418,145.239023 73.0924536,145.022779 73.0924536,144.513197 L73.0924536,139.071379 C73.0924536,138.561796 73.2543166,138.345553 73.6175674,138.345553 Z M85.1324285,138.937872 L85.5634359,143.08975 L84.7014211,143.08975 L85.1324285,138.937872 Z M64.3725531,138.937872 L64.8035605,143.08975 L63.9415457,143.08975 L64.3725531,138.937872 Z M95.3561496,138.482821 C96.095826,138.482821 96.2445142,138.725389 96.2445142,139.973961 C96.2445142,141.235696 96.095826,141.478265 95.3561496,141.478265 L95.1811117,141.478265 L95.1811117,138.482821 L95.3561496,138.482821 Z M102.45742,131.965426 L46.8762881,131.965426 L46.8762881,132.915018 L102.45742,132.915018 L102.45742,131.965426 Z M95.230047,114.547473 C91.5655432,114.547473 89.3879207,117.518473 89.3879207,120.850504 L89.3879207,120.884351 C89.3879207,124.216383 91.5316648,127.153536 95.1961687,127.153536 C98.8606726,127.153536 101.038295,124.182536 101.038295,120.850504 L101.038295,120.816658 C101.038295,117.484626 98.8945509,114.547473 95.230047,114.547473 Z M66.5031223,114.547473 C62.8386185,114.547473 60.660996,117.518473 60.660996,120.850504 L60.660996,120.884351 C60.660996,124.216383 62.8047402,127.153536 66.469244,127.153536 C70.1337479,127.153536 72.3113704,124.182536 72.3113704,120.850504 L72.3113704,120.816658 C72.3113704,117.484626 70.1676262,114.547473 66.5031223,114.547473 Z M80.9465751,114.583201 C78.422641,114.583201 77.0053984,115.515869 75.6050949,117.242057 L78.2664244,119.504153 C79.2695988,118.434217 79.9095224,118.00173 80.6002635,118.00173 C81.2928867,118.00173 81.6900158,118.381567 81.6900158,118.898671 C81.6900158,119.365005 81.3964038,119.831339 80.636024,120.367247 L75.6239162,123.958771 L75.6239162,126.894043 L85.8231696,126.894043 L85.8231696,123.735006 L81.1009096,123.735006 L83.261593,122.352927 C84.714596,121.420259 85.6989492,120.418017 85.6989492,118.571485 L85.6989492,118.537638 C85.6989492,116.241695 83.7114216,114.583201 80.9465751,114.583201 Z M52.2177683,114.583201 C49.6938342,114.583201 48.2765916,115.515869 46.8762881,117.242057 L49.5376176,119.504153 C50.540792,118.434217 51.1807156,118.00173 51.8714567,118.00173 C52.5640799,118.00173 52.961209,118.381567 52.961209,118.898671 C52.961209,119.365005 52.667597,119.831339 51.9072172,120.367247 L46.8951094,123.958771 L46.8951094,126.894043 L57.0943628,126.894043 L57.0943628,123.735006 L52.373985,123.735006 L54.5346683,122.352927 C55.9876714,121.420259 56.9720245,120.418017 56.9720245,118.571485 L56.9720245,118.537638 C56.9720245,116.241695 54.984497,114.583201 52.2177683,114.583201 Z M66.4673619,118.054381 C67.5571142,118.054381 68.3005549,119.19389 68.2986763,120.852385 L68.2986763,120.852385 L68.2986763,120.886232 C68.2986763,122.542846 67.5909925,123.648509 66.5012402,123.648509 C65.41337,123.648509 64.6699293,122.508999 64.6699293,120.850504 L64.6699293,120.850504 L64.6699293,120.816658 C64.6699293,119.160044 65.3794917,118.054381 66.4673619,118.054381 Z M95.1980508,118.054381 C96.285921,118.054381 97.0293617,119.19389 97.0293617,120.852385 L97.0293617,120.886232 C97.0293617,122.544726 96.3197993,123.648509 95.2319291,123.648509 C94.144059,123.648509 93.4006183,122.508999 93.4006183,120.850504 L93.4006183,120.816658 C93.4006183,119.158163 94.1101807,118.054381 95.1980508,118.054381 Z M53.4411517,98.8839144 C49.8293475,98.8839144 47.0118014,101.578498 47.0118014,105.186946 L47.0118014,105.220792 C47.0118014,108.968388 49.9328645,111.489979 53.2849351,111.489979 C56.290694,111.491857 57.9846095,110.023281 59.0047231,108.227519 L55.6695917,106.345259 C55.1689455,107.24408 54.5290219,107.864606 53.3884521,107.864606 C52.0577874,107.864606 51.1242518,106.758943 51.1242518,105.186946 L51.1242518,105.153099 C51.1242518,103.701446 52.022027,102.511166 53.3884521,102.511166 C54.4951436,102.511166 55.1331851,103.114768 55.5830138,103.979742 L58.9200273,102.027908 C57.8999138,100.179496 56.1024812,98.8839144 53.4411517,98.8839144 Z M97.6034108,99.1452871 L92.1584136,99.1452871 L92.1584136,111.234245 L96.2031074,111.234245 L96.2031074,107.952983 L97.5168329,107.952983 C100.784208,107.952983 103.012648,106.39979 103.012648,103.481442 L103.012648,103.445714 L103.01453,103.445714 C103.01453,100.578136 100.819968,99.1452871 97.6034108,99.1452871 Z M79.9114045,99.1452871 L75.693555,99.1452871 L75.693555,111.234245 L79.653553,111.234245 L79.653553,105.241477 L82.4353386,109.541904 L82.5049774,109.541904 L85.286763,105.241477 L85.286763,111.234245 L89.3145177,111.234245 L89.3145177,99.1452871 L85.0966681,99.1452871 L82.5049774,103.393064 L79.9114045,99.1452871 Z M68.9216572,99.0587896 L64.9108418,99.0587896 L59.8121561,111.232365 L64.1335228,111.232365 L64.7546251,109.609597 L68.9894139,109.609597 L69.6293375,111.232365 L74.0203429,111.232365 L68.9216572,99.0587896 Z M66.8814301,103.806747 L67.9881216,106.742019 L65.7747387,106.742019 L66.8814301,103.806747 Z M97.3116809,102.373898 C98.382612,102.373898 99.0225356,102.823309 99.0225356,103.705207 L99.0225356,103.705207 L99.0225356,103.739054 C99.0225356,104.602148 98.3299124,105.068482 97.2928597,105.068482 L97.2928597,105.068482 L96.2049895,105.068482 L96.2049895,102.373898 Z M55.9914356,69.7192326 L47.4672764,69.7192326 L47.4672764,83.530618 C47.4672764,91.8343726 52.3024641,95.2698255 59.7876885,95.2698255 C67.2729128,95.2698255 72.2511423,91.9058271 72.2511423,83.3538623 L72.2511423,69.7211129 L63.7269831,69.7211129 L63.7269831,83.6039528 C63.7269831,86.644526 62.1158812,87.8611313 59.8592093,87.8611313 C57.6025375,87.8611313 55.9914356,86.5373444 55.9914356,83.4234364 L55.9914356,69.7192326 Z M85.4806223,69.7192326 L75.9532887,69.7192326 L84.0822009,82.0300754 L75.5938022,94.7677642 L84.9423336,94.7677642 L88.953149,88.256011 L92.9282041,94.7677642 L102.455538,94.7677642 L93.9671389,81.9567406 L102.097933,69.7192326 L92.751284,69.7192326 L89.0980729,75.6950777 L85.4806223,69.7192326 Z M113.324935,16.5590795 L113.324935,20.4024074 L104.822538,20.4024074 L104.822538,16.5590795 L113.324935,16.5590795 Z M109.041843,4.89081941 L109.955495,8.63564898 L113.786451,7.44041 L110.869146,10.2703419 L113.786451,13.102168 L109.955495,11.9050348 L109.041843,15.6517586 L108.128192,11.9050348 L104.29536,13.102168 L107.214541,10.2703419 L104.29536,7.44041 L108.128192,8.63564898 L109.041843,4.89081941 Z M113.293042,1.31450406e-13 L113.293042,3.84332788 L104.790645,3.84332788 L104.790645,1.31450406e-13 L113.293042,1.31450406e-13 Z" id="Combined-Shape-Copy-3" fill="#1F2937" fill-rule="nonzero"></path>
    </g>
</svg>